G04 MADE WITH FRITZING*
G04 WWW.FRITZING.ORG*
G04 DOUBLE SIDED*
G04 HOLES PLATED*
G04 CONTOUR ON CENTER OF CONTOUR VECTOR*
%ASAXBY*%
%FSLAX23Y23*%
%MOIN*%
%OFA0B0*%
%SFA1.0B1.0*%
%ADD10C,0.075361*%
%ADD11C,0.074000*%
%ADD12C,0.094488*%
%ADD13C,0.024000*%
%ADD14R,0.001000X0.001000*%
%LNCOPPER0*%
G90*
G70*
G54D10*
X92Y1223D03*
X192Y1223D03*
X292Y1223D03*
X392Y1223D03*
X492Y1223D03*
X592Y1223D03*
X692Y1223D03*
X792Y1223D03*
X892Y1223D03*
X992Y1223D03*
X1092Y1223D03*
X1192Y1223D03*
X1292Y1223D03*
X1392Y1223D03*
X1492Y1223D03*
X1592Y1223D03*
X1692Y1223D03*
X1792Y1223D03*
X1892Y1223D03*
X1992Y1223D03*
X1992Y1323D03*
X1892Y1323D03*
X1792Y1323D03*
X1692Y1323D03*
X1592Y1323D03*
X1492Y1323D03*
X1392Y1323D03*
X1292Y1323D03*
X1192Y1323D03*
X1092Y1323D03*
X992Y1323D03*
X892Y1323D03*
X792Y1323D03*
X692Y1323D03*
X592Y1323D03*
X492Y1323D03*
X392Y1323D03*
X292Y1323D03*
X192Y1323D03*
X92Y1323D03*
G54D11*
X992Y223D03*
X692Y573D03*
X692Y673D03*
X692Y773D03*
X692Y173D03*
X692Y273D03*
X692Y373D03*
X692Y473D03*
X1092Y223D03*
G54D12*
X492Y623D03*
X292Y523D03*
X92Y323D03*
X192Y423D03*
G54D13*
X518Y616D02*
X662Y580D01*
D02*
X319Y519D02*
X661Y477D01*
D02*
X119Y321D02*
X661Y275D01*
D02*
X219Y420D02*
X661Y376D01*
G54D14*
X691Y585D02*
X692Y585D01*
X687Y584D02*
X697Y584D01*
X685Y583D02*
X701Y583D01*
X684Y582D02*
X705Y582D01*
X683Y581D02*
X709Y581D01*
X682Y580D02*
X713Y580D01*
X682Y579D02*
X717Y579D01*
X681Y578D02*
X721Y578D01*
X681Y577D02*
X725Y577D01*
X680Y576D02*
X729Y576D01*
X680Y575D02*
X733Y575D01*
X680Y574D02*
X737Y574D01*
X680Y573D02*
X740Y573D01*
X680Y572D02*
X744Y572D01*
X680Y571D02*
X748Y571D01*
X681Y570D02*
X752Y570D01*
X681Y569D02*
X756Y569D01*
X681Y568D02*
X760Y568D01*
X682Y567D02*
X764Y567D01*
X682Y566D02*
X768Y566D01*
X683Y565D02*
X772Y565D01*
X684Y564D02*
X776Y564D01*
X686Y563D02*
X780Y563D01*
X688Y562D02*
X784Y562D01*
X691Y561D02*
X788Y561D01*
X695Y560D02*
X792Y560D01*
X699Y559D02*
X796Y559D01*
X703Y558D02*
X800Y558D01*
X707Y557D02*
X804Y557D01*
X711Y556D02*
X808Y556D01*
X715Y555D02*
X812Y555D01*
X719Y554D02*
X816Y554D01*
X723Y553D02*
X820Y553D01*
X727Y552D02*
X824Y552D01*
X731Y551D02*
X828Y551D01*
X735Y550D02*
X832Y550D01*
X739Y549D02*
X835Y549D01*
X742Y548D02*
X839Y548D01*
X746Y547D02*
X843Y547D01*
X750Y546D02*
X847Y546D01*
X754Y545D02*
X851Y545D01*
X758Y544D02*
X855Y544D01*
X762Y543D02*
X859Y543D01*
X766Y542D02*
X863Y542D01*
X770Y541D02*
X867Y541D01*
X774Y540D02*
X871Y540D01*
X778Y539D02*
X875Y539D01*
X782Y538D02*
X879Y538D01*
X786Y537D02*
X883Y537D01*
X790Y536D02*
X887Y536D01*
X794Y535D02*
X891Y535D01*
X798Y534D02*
X895Y534D01*
X802Y533D02*
X898Y533D01*
X806Y532D02*
X899Y532D01*
X810Y531D02*
X901Y531D01*
X814Y530D02*
X902Y530D01*
X818Y529D02*
X902Y529D01*
X822Y528D02*
X903Y528D01*
X826Y527D02*
X904Y527D01*
X830Y526D02*
X904Y526D01*
X834Y525D02*
X904Y525D01*
X837Y524D02*
X904Y524D01*
X841Y523D02*
X904Y523D01*
X845Y522D02*
X905Y522D01*
X849Y521D02*
X905Y521D01*
X853Y520D02*
X905Y520D01*
X857Y519D02*
X905Y519D01*
X861Y518D02*
X905Y518D01*
X865Y517D02*
X905Y517D01*
X869Y516D02*
X905Y516D01*
X873Y515D02*
X905Y515D01*
X877Y514D02*
X905Y514D01*
X881Y513D02*
X905Y513D01*
X882Y512D02*
X905Y512D01*
X882Y511D02*
X905Y511D01*
X882Y510D02*
X905Y510D01*
X882Y509D02*
X905Y509D01*
X882Y508D02*
X905Y508D01*
X882Y507D02*
X905Y507D01*
X882Y506D02*
X905Y506D01*
X882Y505D02*
X905Y505D01*
X882Y504D02*
X905Y504D01*
X882Y503D02*
X905Y503D01*
X882Y502D02*
X905Y502D01*
X882Y501D02*
X905Y501D01*
X882Y500D02*
X905Y500D01*
X882Y499D02*
X905Y499D01*
X882Y498D02*
X905Y498D01*
X882Y497D02*
X905Y497D01*
X882Y496D02*
X905Y496D01*
X882Y495D02*
X905Y495D01*
X882Y494D02*
X905Y494D01*
X882Y493D02*
X905Y493D01*
X882Y492D02*
X905Y492D01*
X882Y491D02*
X905Y491D01*
X882Y490D02*
X905Y490D01*
X882Y489D02*
X905Y489D01*
X882Y488D02*
X905Y488D01*
X882Y487D02*
X905Y487D01*
X882Y486D02*
X905Y486D01*
X882Y485D02*
X905Y485D01*
X882Y484D02*
X905Y484D01*
X882Y483D02*
X905Y483D01*
X882Y482D02*
X905Y482D01*
X882Y481D02*
X905Y481D01*
X882Y480D02*
X905Y480D01*
X882Y479D02*
X905Y479D01*
X882Y478D02*
X905Y478D01*
X882Y477D02*
X905Y477D01*
X882Y476D02*
X905Y476D01*
X882Y475D02*
X905Y475D01*
X882Y474D02*
X905Y474D01*
X882Y473D02*
X905Y473D01*
X882Y472D02*
X905Y472D01*
X882Y471D02*
X905Y471D01*
X882Y470D02*
X905Y470D01*
X882Y469D02*
X905Y469D01*
X882Y468D02*
X905Y468D01*
X882Y467D02*
X905Y467D01*
X882Y466D02*
X905Y466D01*
X882Y465D02*
X905Y465D01*
X882Y464D02*
X905Y464D01*
X882Y463D02*
X905Y463D01*
X882Y462D02*
X905Y462D01*
X882Y461D02*
X905Y461D01*
X882Y460D02*
X905Y460D01*
X882Y459D02*
X905Y459D01*
X882Y458D02*
X905Y458D01*
X882Y457D02*
X905Y457D01*
X882Y456D02*
X905Y456D01*
X882Y455D02*
X905Y455D01*
X882Y454D02*
X905Y454D01*
X882Y453D02*
X905Y453D01*
X882Y452D02*
X905Y452D01*
X882Y451D02*
X905Y451D01*
X882Y450D02*
X905Y450D01*
X882Y449D02*
X905Y449D01*
X882Y448D02*
X905Y448D01*
X882Y447D02*
X905Y447D01*
X882Y446D02*
X905Y446D01*
X882Y445D02*
X905Y445D01*
X882Y444D02*
X905Y444D01*
X882Y443D02*
X905Y443D01*
X882Y442D02*
X905Y442D01*
X882Y441D02*
X905Y441D01*
X882Y440D02*
X905Y440D01*
X882Y439D02*
X905Y439D01*
X882Y438D02*
X905Y438D01*
X882Y437D02*
X905Y437D01*
X882Y436D02*
X905Y436D01*
X882Y435D02*
X905Y435D01*
X882Y434D02*
X905Y434D01*
X882Y433D02*
X905Y433D01*
X882Y432D02*
X905Y432D01*
X882Y431D02*
X905Y431D01*
X882Y430D02*
X905Y430D01*
X882Y429D02*
X905Y429D01*
X882Y428D02*
X905Y428D01*
X882Y427D02*
X905Y427D01*
X882Y426D02*
X905Y426D01*
X882Y425D02*
X905Y425D01*
X882Y424D02*
X905Y424D01*
X882Y423D02*
X905Y423D01*
X882Y422D02*
X905Y422D01*
X882Y421D02*
X905Y421D01*
X882Y420D02*
X905Y420D01*
X882Y419D02*
X905Y419D01*
X882Y418D02*
X905Y418D01*
X882Y417D02*
X905Y417D01*
X882Y416D02*
X905Y416D01*
X882Y415D02*
X905Y415D01*
X882Y414D02*
X905Y414D01*
X882Y413D02*
X905Y413D01*
X882Y412D02*
X905Y412D01*
X882Y411D02*
X905Y411D01*
X882Y410D02*
X905Y410D01*
X882Y409D02*
X905Y409D01*
X882Y408D02*
X905Y408D01*
X882Y407D02*
X905Y407D01*
X882Y406D02*
X905Y406D01*
X882Y405D02*
X905Y405D01*
X882Y404D02*
X905Y404D01*
X882Y403D02*
X905Y403D01*
X882Y402D02*
X905Y402D01*
X882Y401D02*
X905Y401D01*
X882Y400D02*
X905Y400D01*
X882Y399D02*
X905Y399D01*
X882Y398D02*
X905Y398D01*
X882Y397D02*
X905Y397D01*
X882Y396D02*
X905Y396D01*
X882Y395D02*
X905Y395D01*
X882Y394D02*
X905Y394D01*
X882Y393D02*
X905Y393D01*
X882Y392D02*
X905Y392D01*
X882Y391D02*
X905Y391D01*
X882Y390D02*
X905Y390D01*
X882Y389D02*
X905Y389D01*
X882Y388D02*
X905Y388D01*
X882Y387D02*
X905Y387D01*
X882Y386D02*
X905Y386D01*
X882Y385D02*
X905Y385D01*
X882Y384D02*
X905Y384D01*
X882Y383D02*
X905Y383D01*
X882Y382D02*
X905Y382D01*
X882Y381D02*
X905Y381D01*
X882Y380D02*
X905Y380D01*
X882Y379D02*
X905Y379D01*
X882Y378D02*
X905Y378D01*
X882Y377D02*
X905Y377D01*
X882Y376D02*
X905Y376D01*
X882Y375D02*
X905Y375D01*
X882Y374D02*
X905Y374D01*
X882Y373D02*
X905Y373D01*
X882Y372D02*
X905Y372D01*
X882Y371D02*
X905Y371D01*
X882Y370D02*
X905Y370D01*
X882Y369D02*
X905Y369D01*
X882Y368D02*
X905Y368D01*
X882Y367D02*
X905Y367D01*
X882Y366D02*
X905Y366D01*
X882Y365D02*
X905Y365D01*
X882Y364D02*
X905Y364D01*
X882Y363D02*
X905Y363D01*
X882Y362D02*
X905Y362D01*
X882Y361D02*
X905Y361D01*
X882Y360D02*
X905Y360D01*
X882Y359D02*
X905Y359D01*
X882Y358D02*
X905Y358D01*
X882Y357D02*
X905Y357D01*
X882Y356D02*
X905Y356D01*
X882Y355D02*
X905Y355D01*
X882Y354D02*
X905Y354D01*
X882Y353D02*
X905Y353D01*
X882Y352D02*
X905Y352D01*
X882Y351D02*
X905Y351D01*
X882Y350D02*
X905Y350D01*
X882Y349D02*
X905Y349D01*
X882Y348D02*
X905Y348D01*
X882Y347D02*
X905Y347D01*
X882Y346D02*
X905Y346D01*
X882Y345D02*
X905Y345D01*
X882Y344D02*
X905Y344D01*
X882Y343D02*
X905Y343D01*
X882Y342D02*
X905Y342D01*
X882Y341D02*
X905Y341D01*
X882Y340D02*
X905Y340D01*
X882Y339D02*
X905Y339D01*
X882Y338D02*
X905Y338D01*
X882Y337D02*
X905Y337D01*
X882Y336D02*
X905Y336D01*
X882Y335D02*
X905Y335D01*
X882Y334D02*
X905Y334D01*
X882Y333D02*
X905Y333D01*
X882Y332D02*
X905Y332D01*
X882Y331D02*
X905Y331D01*
X882Y330D02*
X905Y330D01*
X882Y329D02*
X905Y329D01*
X882Y328D02*
X905Y328D01*
X882Y327D02*
X905Y327D01*
X882Y326D02*
X905Y326D01*
X882Y325D02*
X905Y325D01*
X882Y324D02*
X905Y324D01*
X882Y323D02*
X905Y323D01*
X882Y322D02*
X905Y322D01*
X882Y321D02*
X905Y321D01*
X882Y320D02*
X905Y320D01*
X882Y319D02*
X905Y319D01*
X882Y318D02*
X905Y318D01*
X882Y317D02*
X905Y317D01*
X882Y316D02*
X905Y316D01*
X882Y315D02*
X905Y315D01*
X882Y314D02*
X905Y314D01*
X882Y313D02*
X905Y313D01*
X882Y312D02*
X905Y312D01*
X882Y311D02*
X905Y311D01*
X882Y310D02*
X905Y310D01*
X882Y309D02*
X905Y309D01*
X882Y308D02*
X905Y308D01*
X882Y307D02*
X905Y307D01*
X882Y306D02*
X905Y306D01*
X882Y305D02*
X905Y305D01*
X882Y304D02*
X905Y304D01*
X882Y303D02*
X905Y303D01*
X882Y302D02*
X905Y302D01*
X882Y301D02*
X905Y301D01*
X882Y300D02*
X905Y300D01*
X882Y299D02*
X905Y299D01*
X882Y298D02*
X905Y298D01*
X882Y297D02*
X905Y297D01*
X882Y296D02*
X905Y296D01*
X882Y295D02*
X905Y295D01*
X882Y294D02*
X905Y294D01*
X882Y293D02*
X905Y293D01*
X882Y292D02*
X905Y292D01*
X882Y291D02*
X905Y291D01*
X882Y290D02*
X905Y290D01*
X882Y289D02*
X905Y289D01*
X882Y288D02*
X905Y288D01*
X882Y287D02*
X905Y287D01*
X882Y286D02*
X905Y286D01*
X882Y285D02*
X905Y285D01*
X882Y284D02*
X905Y284D01*
X882Y283D02*
X905Y283D01*
X882Y282D02*
X905Y282D01*
X882Y281D02*
X905Y281D01*
X882Y280D02*
X905Y280D01*
X882Y279D02*
X905Y279D01*
X882Y278D02*
X905Y278D01*
X882Y277D02*
X905Y277D01*
X882Y276D02*
X905Y276D01*
X882Y275D02*
X905Y275D01*
X882Y274D02*
X905Y274D01*
X882Y273D02*
X905Y273D01*
X882Y272D02*
X905Y272D01*
X882Y271D02*
X905Y271D01*
X882Y270D02*
X905Y270D01*
X882Y269D02*
X905Y269D01*
X882Y268D02*
X905Y268D01*
X882Y267D02*
X905Y267D01*
X882Y266D02*
X905Y266D01*
X882Y265D02*
X905Y265D01*
X882Y264D02*
X905Y264D01*
X882Y263D02*
X905Y263D01*
X882Y262D02*
X905Y262D01*
X882Y261D02*
X905Y261D01*
X882Y260D02*
X905Y260D01*
X882Y259D02*
X905Y259D01*
X882Y258D02*
X905Y258D01*
X882Y257D02*
X905Y257D01*
X882Y256D02*
X905Y256D01*
X882Y255D02*
X905Y255D01*
X882Y254D02*
X905Y254D01*
X882Y253D02*
X905Y253D01*
X882Y252D02*
X905Y252D01*
X882Y251D02*
X905Y251D01*
X882Y250D02*
X905Y250D01*
X882Y249D02*
X905Y249D01*
X882Y248D02*
X905Y248D01*
X882Y247D02*
X905Y247D01*
X882Y246D02*
X905Y246D01*
X882Y245D02*
X905Y245D01*
X882Y244D02*
X905Y244D01*
X882Y243D02*
X905Y243D01*
X882Y242D02*
X905Y242D01*
X882Y241D02*
X905Y241D01*
X882Y240D02*
X905Y240D01*
X882Y239D02*
X905Y239D01*
X882Y238D02*
X905Y238D01*
X882Y237D02*
X905Y237D01*
X882Y236D02*
X905Y236D01*
X882Y235D02*
X905Y235D01*
X882Y234D02*
X905Y234D01*
X882Y233D02*
X905Y233D01*
X878Y232D02*
X905Y232D01*
X874Y231D02*
X905Y231D01*
X870Y230D02*
X905Y230D01*
X866Y229D02*
X905Y229D01*
X862Y228D02*
X905Y228D01*
X858Y227D02*
X905Y227D01*
X854Y226D02*
X905Y226D01*
X850Y225D02*
X905Y225D01*
X846Y224D02*
X905Y224D01*
X842Y223D02*
X904Y223D01*
X838Y222D02*
X904Y222D01*
X834Y221D02*
X904Y221D01*
X830Y220D02*
X904Y220D01*
X826Y219D02*
X904Y219D01*
X822Y218D02*
X903Y218D01*
X818Y217D02*
X903Y217D01*
X814Y216D02*
X902Y216D01*
X810Y215D02*
X901Y215D01*
X806Y214D02*
X900Y214D01*
X802Y213D02*
X898Y213D01*
X798Y212D02*
X895Y212D01*
X794Y211D02*
X892Y211D01*
X790Y210D02*
X888Y210D01*
X786Y209D02*
X884Y209D01*
X782Y208D02*
X880Y208D01*
X778Y207D02*
X876Y207D01*
X774Y206D02*
X872Y206D01*
X770Y205D02*
X868Y205D01*
X766Y204D02*
X864Y204D01*
X762Y203D02*
X860Y203D01*
X758Y202D02*
X856Y202D01*
X754Y201D02*
X852Y201D01*
X750Y200D02*
X848Y200D01*
X746Y199D02*
X844Y199D01*
X742Y198D02*
X840Y198D01*
X738Y197D02*
X836Y197D01*
X734Y196D02*
X832Y196D01*
X730Y195D02*
X828Y195D01*
X726Y194D02*
X824Y194D01*
X722Y193D02*
X820Y193D01*
X718Y192D02*
X816Y192D01*
X714Y191D02*
X812Y191D01*
X710Y190D02*
X808Y190D01*
X706Y189D02*
X804Y189D01*
X702Y188D02*
X800Y188D01*
X698Y187D02*
X796Y187D01*
X694Y186D02*
X792Y186D01*
X690Y185D02*
X788Y185D01*
X687Y184D02*
X784Y184D01*
X685Y183D02*
X780Y183D01*
X684Y182D02*
X776Y182D01*
X683Y181D02*
X772Y181D01*
X682Y180D02*
X768Y180D01*
X682Y179D02*
X764Y179D01*
X681Y178D02*
X760Y178D01*
X681Y177D02*
X756Y177D01*
X680Y176D02*
X752Y176D01*
X680Y175D02*
X748Y175D01*
X680Y174D02*
X744Y174D01*
X680Y173D02*
X740Y173D01*
X680Y172D02*
X736Y172D01*
X680Y171D02*
X732Y171D01*
X681Y170D02*
X728Y170D01*
X681Y169D02*
X724Y169D01*
X681Y168D02*
X720Y168D01*
X682Y167D02*
X716Y167D01*
X683Y166D02*
X712Y166D01*
X683Y165D02*
X708Y165D01*
X684Y164D02*
X704Y164D01*
X686Y163D02*
X700Y163D01*
X688Y162D02*
X696Y162D01*
D02*
G04 End of Copper0*
M02*