; NON-PLATED HOLES START AT T1
; THROUGH (PLATED) HOLES START AT T100
M48
INCH
T100C0.035433
T101C0.040000
T102C0.031496
T103C0.040639
%
T100
X009922Y002227
X010922Y002227
T101
X006922Y001727
X006922Y006727
X006922Y004727
X006922Y002727
X006922Y003727
X006922Y007727
X006922Y005727
T102
X001922Y004227
X004922Y006227
X000922Y003227
X002922Y005227
T103
X005922Y012227
X015922Y013227
X017922Y012227
X010922Y013227
X011922Y012227
X016922Y013227
X007922Y012227
X009922Y013227
X008922Y012227
X007922Y013227
X004922Y013227
X005922Y013227
X014922Y012227
X008922Y013227
X006922Y013227
X019922Y013227
X001922Y013227
X003922Y012227
X009922Y012227
X012922Y012227
X018922Y012227
X010922Y012227
X001922Y012227
X000922Y012227
X013922Y012227
X000922Y013227
X004922Y012227
X011922Y013227
X006922Y012227
X017922Y013227
X012922Y013227
X019922Y012227
X014922Y013227
X013922Y013227
X015922Y012227
X002922Y012227
X002922Y013227
X016922Y012227
X018922Y013227
X003922Y013227
T00
M30
