; NON-PLATED HOLES START AT T1
; THROUGH (PLATED) HOLES START AT T100
M48
INCH
T100C0.044111
T101C0.040000
T102C0.035433
T103C0.044139
T104C0.031496
%
T100
X003644Y017727
X014644Y016727
X002644Y017727
X006644Y017727
X012644Y017727
X018644Y017727
X010644Y016727
X019644Y016727
X001644Y017727
X012644Y016727
X001644Y016727
X013644Y017727
X013644Y016727
X000644Y017727
X005644Y017727
X014644Y017727
X006644Y016727
X010644Y017727
X005644Y016727
X008644Y017727
X019644Y017727
X017644Y016727
X007644Y016727
X017644Y017727
X018644Y016727
X015644Y016727
X015644Y017727
X002644Y016727
X007644Y017727
X008644Y016727
X003644Y016727
X000644Y016727
T101
X003664Y007743
X008644Y013727
X008544Y012727
X008348Y001727
X008348Y003727
X002664Y007743
X001664Y007743
X004664Y007743
X008448Y004727
X006664Y007743
X008644Y011727
X008544Y010727
X005664Y007743
X008448Y002727
X000664Y007743
T102
X001164Y003742
X001164Y004743
T103
X016644Y017727
X011644Y017727
X004644Y017727
X004644Y016727
X009644Y016727
X009644Y017727
X011644Y016727
X016644Y016727
T104
X002644Y012727
X004644Y010727
X000644Y011727
X001644Y013727
X003644Y011727
T00
M30
