G04 MADE WITH FRITZING*
G04 WWW.FRITZING.ORG*
G04 DOUBLE SIDED*
G04 HOLES PLATED*
G04 CONTOUR ON CENTER OF CONTOUR VECTOR*
%ASAXBY*%
%FSLAX23Y23*%
%MOIN*%
%OFA0B0*%
%SFA1.0B1.0*%
%ADD10C,0.020075X0.0200748*%
%ADD11C,0.008000*%
%ADD12C,0.005000*%
%ADD13R,0.001000X0.001000*%
%LNSILK1*%
G90*
G70*
G54D10*
X457Y495D03*
G54D11*
X146Y424D02*
X116Y424D01*
D02*
X116Y424D02*
X86Y424D01*
G54D12*
D02*
X449Y487D02*
X284Y487D01*
D02*
X449Y361D02*
X449Y487D01*
D02*
X284Y361D02*
X449Y361D01*
D02*
X284Y487D02*
X284Y361D01*
D02*
X739Y1023D02*
X959Y1023D01*
D02*
X739Y1423D02*
X959Y1423D01*
D02*
X739Y1423D02*
X739Y1023D01*
D02*
X959Y1423D02*
X959Y1373D01*
D02*
X959Y1373D02*
X959Y1073D01*
D02*
X959Y1073D02*
X959Y1023D01*
D02*
X959Y1073D02*
X909Y1073D01*
D02*
X909Y1073D02*
X909Y1373D01*
D02*
X909Y1373D02*
X959Y1373D01*
D02*
X960Y523D02*
X740Y523D01*
D02*
X960Y123D02*
X740Y123D01*
D02*
X960Y123D02*
X960Y523D01*
D02*
X740Y123D02*
X740Y173D01*
D02*
X740Y173D02*
X740Y473D01*
D02*
X740Y473D02*
X740Y523D01*
D02*
X740Y473D02*
X790Y473D01*
D02*
X790Y473D02*
X790Y173D01*
D02*
X790Y173D02*
X740Y173D01*
G54D13*
X0Y1827D02*
X2020Y1827D01*
X0Y1826D02*
X2020Y1826D01*
X0Y1825D02*
X2020Y1825D01*
X0Y1824D02*
X2020Y1824D01*
X0Y1823D02*
X2020Y1823D01*
X0Y1822D02*
X2020Y1822D01*
X0Y1821D02*
X2020Y1821D01*
X0Y1820D02*
X2020Y1820D01*
X0Y1819D02*
X7Y1819D01*
X2013Y1819D02*
X2020Y1819D01*
X0Y1818D02*
X7Y1818D01*
X2013Y1818D02*
X2020Y1818D01*
X0Y1817D02*
X7Y1817D01*
X2013Y1817D02*
X2020Y1817D01*
X0Y1816D02*
X7Y1816D01*
X2013Y1816D02*
X2020Y1816D01*
X0Y1815D02*
X7Y1815D01*
X2013Y1815D02*
X2020Y1815D01*
X0Y1814D02*
X7Y1814D01*
X2013Y1814D02*
X2020Y1814D01*
X0Y1813D02*
X7Y1813D01*
X2013Y1813D02*
X2020Y1813D01*
X0Y1812D02*
X7Y1812D01*
X2013Y1812D02*
X2020Y1812D01*
X0Y1811D02*
X7Y1811D01*
X2013Y1811D02*
X2020Y1811D01*
X0Y1810D02*
X7Y1810D01*
X2013Y1810D02*
X2020Y1810D01*
X0Y1809D02*
X7Y1809D01*
X2013Y1809D02*
X2020Y1809D01*
X0Y1808D02*
X7Y1808D01*
X2013Y1808D02*
X2020Y1808D01*
X0Y1807D02*
X7Y1807D01*
X2013Y1807D02*
X2020Y1807D01*
X0Y1806D02*
X7Y1806D01*
X2013Y1806D02*
X2020Y1806D01*
X0Y1805D02*
X7Y1805D01*
X2013Y1805D02*
X2020Y1805D01*
X0Y1804D02*
X7Y1804D01*
X2013Y1804D02*
X2020Y1804D01*
X0Y1803D02*
X7Y1803D01*
X2013Y1803D02*
X2020Y1803D01*
X0Y1802D02*
X7Y1802D01*
X2013Y1802D02*
X2020Y1802D01*
X0Y1801D02*
X7Y1801D01*
X2013Y1801D02*
X2020Y1801D01*
X0Y1800D02*
X7Y1800D01*
X2013Y1800D02*
X2020Y1800D01*
X0Y1799D02*
X7Y1799D01*
X2013Y1799D02*
X2020Y1799D01*
X0Y1798D02*
X7Y1798D01*
X2013Y1798D02*
X2020Y1798D01*
X0Y1797D02*
X7Y1797D01*
X2013Y1797D02*
X2020Y1797D01*
X0Y1796D02*
X7Y1796D01*
X2013Y1796D02*
X2020Y1796D01*
X0Y1795D02*
X7Y1795D01*
X2013Y1795D02*
X2020Y1795D01*
X0Y1794D02*
X7Y1794D01*
X2013Y1794D02*
X2020Y1794D01*
X0Y1793D02*
X7Y1793D01*
X2013Y1793D02*
X2020Y1793D01*
X0Y1792D02*
X7Y1792D01*
X2013Y1792D02*
X2020Y1792D01*
X0Y1791D02*
X7Y1791D01*
X2013Y1791D02*
X2020Y1791D01*
X0Y1790D02*
X7Y1790D01*
X2013Y1790D02*
X2020Y1790D01*
X0Y1789D02*
X7Y1789D01*
X2013Y1789D02*
X2020Y1789D01*
X0Y1788D02*
X7Y1788D01*
X2013Y1788D02*
X2020Y1788D01*
X0Y1787D02*
X7Y1787D01*
X2013Y1787D02*
X2020Y1787D01*
X0Y1786D02*
X7Y1786D01*
X2013Y1786D02*
X2020Y1786D01*
X0Y1785D02*
X7Y1785D01*
X2013Y1785D02*
X2020Y1785D01*
X0Y1784D02*
X7Y1784D01*
X2013Y1784D02*
X2020Y1784D01*
X0Y1783D02*
X7Y1783D01*
X2013Y1783D02*
X2020Y1783D01*
X0Y1782D02*
X7Y1782D01*
X2013Y1782D02*
X2020Y1782D01*
X0Y1781D02*
X7Y1781D01*
X2013Y1781D02*
X2020Y1781D01*
X0Y1780D02*
X7Y1780D01*
X2013Y1780D02*
X2020Y1780D01*
X0Y1779D02*
X7Y1779D01*
X2013Y1779D02*
X2020Y1779D01*
X0Y1778D02*
X7Y1778D01*
X2013Y1778D02*
X2020Y1778D01*
X0Y1777D02*
X7Y1777D01*
X2013Y1777D02*
X2020Y1777D01*
X0Y1776D02*
X7Y1776D01*
X2013Y1776D02*
X2020Y1776D01*
X0Y1775D02*
X7Y1775D01*
X2013Y1775D02*
X2020Y1775D01*
X0Y1774D02*
X7Y1774D01*
X2013Y1774D02*
X2020Y1774D01*
X0Y1773D02*
X7Y1773D01*
X2013Y1773D02*
X2020Y1773D01*
X0Y1772D02*
X7Y1772D01*
X2013Y1772D02*
X2020Y1772D01*
X0Y1771D02*
X7Y1771D01*
X2013Y1771D02*
X2020Y1771D01*
X0Y1770D02*
X7Y1770D01*
X2013Y1770D02*
X2020Y1770D01*
X0Y1769D02*
X7Y1769D01*
X2013Y1769D02*
X2020Y1769D01*
X0Y1768D02*
X7Y1768D01*
X2013Y1768D02*
X2020Y1768D01*
X0Y1767D02*
X7Y1767D01*
X2013Y1767D02*
X2020Y1767D01*
X0Y1766D02*
X7Y1766D01*
X2013Y1766D02*
X2020Y1766D01*
X0Y1765D02*
X7Y1765D01*
X2013Y1765D02*
X2020Y1765D01*
X0Y1764D02*
X7Y1764D01*
X2013Y1764D02*
X2020Y1764D01*
X0Y1763D02*
X7Y1763D01*
X2013Y1763D02*
X2020Y1763D01*
X0Y1762D02*
X7Y1762D01*
X2013Y1762D02*
X2020Y1762D01*
X0Y1761D02*
X7Y1761D01*
X2013Y1761D02*
X2020Y1761D01*
X0Y1760D02*
X7Y1760D01*
X2013Y1760D02*
X2020Y1760D01*
X0Y1759D02*
X7Y1759D01*
X2013Y1759D02*
X2020Y1759D01*
X0Y1758D02*
X7Y1758D01*
X2013Y1758D02*
X2020Y1758D01*
X0Y1757D02*
X7Y1757D01*
X2013Y1757D02*
X2020Y1757D01*
X0Y1756D02*
X7Y1756D01*
X2013Y1756D02*
X2020Y1756D01*
X0Y1755D02*
X7Y1755D01*
X2013Y1755D02*
X2020Y1755D01*
X0Y1754D02*
X7Y1754D01*
X2013Y1754D02*
X2020Y1754D01*
X0Y1753D02*
X7Y1753D01*
X2013Y1753D02*
X2020Y1753D01*
X0Y1752D02*
X7Y1752D01*
X2013Y1752D02*
X2020Y1752D01*
X0Y1751D02*
X7Y1751D01*
X2013Y1751D02*
X2020Y1751D01*
X0Y1750D02*
X7Y1750D01*
X2013Y1750D02*
X2020Y1750D01*
X0Y1749D02*
X7Y1749D01*
X2013Y1749D02*
X2020Y1749D01*
X0Y1748D02*
X7Y1748D01*
X2013Y1748D02*
X2020Y1748D01*
X0Y1747D02*
X7Y1747D01*
X2013Y1747D02*
X2020Y1747D01*
X0Y1746D02*
X7Y1746D01*
X2013Y1746D02*
X2020Y1746D01*
X0Y1745D02*
X7Y1745D01*
X2013Y1745D02*
X2020Y1745D01*
X0Y1744D02*
X7Y1744D01*
X2013Y1744D02*
X2020Y1744D01*
X0Y1743D02*
X7Y1743D01*
X2013Y1743D02*
X2020Y1743D01*
X0Y1742D02*
X7Y1742D01*
X2013Y1742D02*
X2020Y1742D01*
X0Y1741D02*
X7Y1741D01*
X2013Y1741D02*
X2020Y1741D01*
X0Y1740D02*
X7Y1740D01*
X2013Y1740D02*
X2020Y1740D01*
X0Y1739D02*
X7Y1739D01*
X2013Y1739D02*
X2020Y1739D01*
X0Y1738D02*
X7Y1738D01*
X2013Y1738D02*
X2020Y1738D01*
X0Y1737D02*
X7Y1737D01*
X2013Y1737D02*
X2020Y1737D01*
X0Y1736D02*
X7Y1736D01*
X2013Y1736D02*
X2020Y1736D01*
X0Y1735D02*
X7Y1735D01*
X2013Y1735D02*
X2020Y1735D01*
X0Y1734D02*
X7Y1734D01*
X2013Y1734D02*
X2020Y1734D01*
X0Y1733D02*
X7Y1733D01*
X2013Y1733D02*
X2020Y1733D01*
X0Y1732D02*
X7Y1732D01*
X2013Y1732D02*
X2020Y1732D01*
X0Y1731D02*
X7Y1731D01*
X2013Y1731D02*
X2020Y1731D01*
X0Y1730D02*
X7Y1730D01*
X2013Y1730D02*
X2020Y1730D01*
X0Y1729D02*
X7Y1729D01*
X2013Y1729D02*
X2020Y1729D01*
X0Y1728D02*
X7Y1728D01*
X2013Y1728D02*
X2020Y1728D01*
X0Y1727D02*
X7Y1727D01*
X2013Y1727D02*
X2020Y1727D01*
X0Y1726D02*
X7Y1726D01*
X2013Y1726D02*
X2020Y1726D01*
X0Y1725D02*
X7Y1725D01*
X2013Y1725D02*
X2020Y1725D01*
X0Y1724D02*
X7Y1724D01*
X2013Y1724D02*
X2020Y1724D01*
X0Y1723D02*
X7Y1723D01*
X2013Y1723D02*
X2020Y1723D01*
X0Y1722D02*
X7Y1722D01*
X2013Y1722D02*
X2020Y1722D01*
X0Y1721D02*
X7Y1721D01*
X2013Y1721D02*
X2020Y1721D01*
X0Y1720D02*
X7Y1720D01*
X2013Y1720D02*
X2020Y1720D01*
X0Y1719D02*
X7Y1719D01*
X2013Y1719D02*
X2020Y1719D01*
X0Y1718D02*
X7Y1718D01*
X2013Y1718D02*
X2020Y1718D01*
X0Y1717D02*
X7Y1717D01*
X2013Y1717D02*
X2020Y1717D01*
X0Y1716D02*
X7Y1716D01*
X2013Y1716D02*
X2020Y1716D01*
X0Y1715D02*
X7Y1715D01*
X2013Y1715D02*
X2020Y1715D01*
X0Y1714D02*
X7Y1714D01*
X2013Y1714D02*
X2020Y1714D01*
X0Y1713D02*
X7Y1713D01*
X2013Y1713D02*
X2020Y1713D01*
X0Y1712D02*
X7Y1712D01*
X2013Y1712D02*
X2020Y1712D01*
X0Y1711D02*
X7Y1711D01*
X2013Y1711D02*
X2020Y1711D01*
X0Y1710D02*
X7Y1710D01*
X2013Y1710D02*
X2020Y1710D01*
X0Y1709D02*
X7Y1709D01*
X2013Y1709D02*
X2020Y1709D01*
X0Y1708D02*
X7Y1708D01*
X2013Y1708D02*
X2020Y1708D01*
X0Y1707D02*
X7Y1707D01*
X2013Y1707D02*
X2020Y1707D01*
X0Y1706D02*
X7Y1706D01*
X2013Y1706D02*
X2020Y1706D01*
X0Y1705D02*
X7Y1705D01*
X2013Y1705D02*
X2020Y1705D01*
X0Y1704D02*
X7Y1704D01*
X2013Y1704D02*
X2020Y1704D01*
X0Y1703D02*
X7Y1703D01*
X2013Y1703D02*
X2020Y1703D01*
X0Y1702D02*
X7Y1702D01*
X2013Y1702D02*
X2020Y1702D01*
X0Y1701D02*
X7Y1701D01*
X2013Y1701D02*
X2020Y1701D01*
X0Y1700D02*
X7Y1700D01*
X2013Y1700D02*
X2020Y1700D01*
X0Y1699D02*
X7Y1699D01*
X2013Y1699D02*
X2020Y1699D01*
X0Y1698D02*
X7Y1698D01*
X2013Y1698D02*
X2020Y1698D01*
X0Y1697D02*
X7Y1697D01*
X2013Y1697D02*
X2020Y1697D01*
X0Y1696D02*
X7Y1696D01*
X2013Y1696D02*
X2020Y1696D01*
X0Y1695D02*
X7Y1695D01*
X2013Y1695D02*
X2020Y1695D01*
X0Y1694D02*
X7Y1694D01*
X2013Y1694D02*
X2020Y1694D01*
X0Y1693D02*
X7Y1693D01*
X2013Y1693D02*
X2020Y1693D01*
X0Y1692D02*
X7Y1692D01*
X2013Y1692D02*
X2020Y1692D01*
X0Y1691D02*
X7Y1691D01*
X2013Y1691D02*
X2020Y1691D01*
X0Y1690D02*
X7Y1690D01*
X2013Y1690D02*
X2020Y1690D01*
X0Y1689D02*
X7Y1689D01*
X2013Y1689D02*
X2020Y1689D01*
X0Y1688D02*
X7Y1688D01*
X2013Y1688D02*
X2020Y1688D01*
X0Y1687D02*
X7Y1687D01*
X2013Y1687D02*
X2020Y1687D01*
X0Y1686D02*
X7Y1686D01*
X2013Y1686D02*
X2020Y1686D01*
X0Y1685D02*
X7Y1685D01*
X2013Y1685D02*
X2020Y1685D01*
X0Y1684D02*
X7Y1684D01*
X2013Y1684D02*
X2020Y1684D01*
X0Y1683D02*
X7Y1683D01*
X2013Y1683D02*
X2020Y1683D01*
X0Y1682D02*
X7Y1682D01*
X2013Y1682D02*
X2020Y1682D01*
X0Y1681D02*
X7Y1681D01*
X2013Y1681D02*
X2020Y1681D01*
X0Y1680D02*
X7Y1680D01*
X2013Y1680D02*
X2020Y1680D01*
X0Y1679D02*
X7Y1679D01*
X2013Y1679D02*
X2020Y1679D01*
X0Y1678D02*
X7Y1678D01*
X2013Y1678D02*
X2020Y1678D01*
X0Y1677D02*
X7Y1677D01*
X2013Y1677D02*
X2020Y1677D01*
X0Y1676D02*
X7Y1676D01*
X2013Y1676D02*
X2020Y1676D01*
X0Y1675D02*
X7Y1675D01*
X2013Y1675D02*
X2020Y1675D01*
X0Y1674D02*
X7Y1674D01*
X2013Y1674D02*
X2020Y1674D01*
X0Y1673D02*
X7Y1673D01*
X2013Y1673D02*
X2020Y1673D01*
X0Y1672D02*
X7Y1672D01*
X2013Y1672D02*
X2020Y1672D01*
X0Y1671D02*
X7Y1671D01*
X2013Y1671D02*
X2020Y1671D01*
X0Y1670D02*
X7Y1670D01*
X2013Y1670D02*
X2020Y1670D01*
X0Y1669D02*
X7Y1669D01*
X2013Y1669D02*
X2020Y1669D01*
X0Y1668D02*
X7Y1668D01*
X2013Y1668D02*
X2020Y1668D01*
X0Y1667D02*
X7Y1667D01*
X2013Y1667D02*
X2020Y1667D01*
X0Y1666D02*
X7Y1666D01*
X2013Y1666D02*
X2020Y1666D01*
X0Y1665D02*
X7Y1665D01*
X2013Y1665D02*
X2020Y1665D01*
X0Y1664D02*
X7Y1664D01*
X2013Y1664D02*
X2020Y1664D01*
X0Y1663D02*
X7Y1663D01*
X2013Y1663D02*
X2020Y1663D01*
X0Y1662D02*
X7Y1662D01*
X2013Y1662D02*
X2020Y1662D01*
X0Y1661D02*
X7Y1661D01*
X2013Y1661D02*
X2020Y1661D01*
X0Y1660D02*
X7Y1660D01*
X2013Y1660D02*
X2020Y1660D01*
X0Y1659D02*
X7Y1659D01*
X2013Y1659D02*
X2020Y1659D01*
X0Y1658D02*
X7Y1658D01*
X2013Y1658D02*
X2020Y1658D01*
X0Y1657D02*
X7Y1657D01*
X2013Y1657D02*
X2020Y1657D01*
X0Y1656D02*
X7Y1656D01*
X2013Y1656D02*
X2020Y1656D01*
X0Y1655D02*
X7Y1655D01*
X2013Y1655D02*
X2020Y1655D01*
X0Y1654D02*
X7Y1654D01*
X2013Y1654D02*
X2020Y1654D01*
X0Y1653D02*
X7Y1653D01*
X2013Y1653D02*
X2020Y1653D01*
X0Y1652D02*
X7Y1652D01*
X2013Y1652D02*
X2020Y1652D01*
X0Y1651D02*
X7Y1651D01*
X2013Y1651D02*
X2020Y1651D01*
X0Y1650D02*
X7Y1650D01*
X2013Y1650D02*
X2020Y1650D01*
X0Y1649D02*
X7Y1649D01*
X2013Y1649D02*
X2020Y1649D01*
X0Y1648D02*
X7Y1648D01*
X2013Y1648D02*
X2020Y1648D01*
X0Y1647D02*
X7Y1647D01*
X2013Y1647D02*
X2020Y1647D01*
X0Y1646D02*
X7Y1646D01*
X2013Y1646D02*
X2020Y1646D01*
X0Y1645D02*
X7Y1645D01*
X2013Y1645D02*
X2020Y1645D01*
X0Y1644D02*
X7Y1644D01*
X2013Y1644D02*
X2020Y1644D01*
X0Y1643D02*
X7Y1643D01*
X2013Y1643D02*
X2020Y1643D01*
X0Y1642D02*
X7Y1642D01*
X2013Y1642D02*
X2020Y1642D01*
X0Y1641D02*
X7Y1641D01*
X2013Y1641D02*
X2020Y1641D01*
X0Y1640D02*
X7Y1640D01*
X2013Y1640D02*
X2020Y1640D01*
X0Y1639D02*
X7Y1639D01*
X2013Y1639D02*
X2020Y1639D01*
X0Y1638D02*
X7Y1638D01*
X2013Y1638D02*
X2020Y1638D01*
X0Y1637D02*
X7Y1637D01*
X2013Y1637D02*
X2020Y1637D01*
X0Y1636D02*
X7Y1636D01*
X2013Y1636D02*
X2020Y1636D01*
X0Y1635D02*
X7Y1635D01*
X2013Y1635D02*
X2020Y1635D01*
X0Y1634D02*
X7Y1634D01*
X2013Y1634D02*
X2020Y1634D01*
X0Y1633D02*
X7Y1633D01*
X2013Y1633D02*
X2020Y1633D01*
X0Y1632D02*
X7Y1632D01*
X2013Y1632D02*
X2020Y1632D01*
X0Y1631D02*
X7Y1631D01*
X2013Y1631D02*
X2020Y1631D01*
X0Y1630D02*
X7Y1630D01*
X2013Y1630D02*
X2020Y1630D01*
X0Y1629D02*
X7Y1629D01*
X2013Y1629D02*
X2020Y1629D01*
X0Y1628D02*
X7Y1628D01*
X2013Y1628D02*
X2020Y1628D01*
X0Y1627D02*
X7Y1627D01*
X2013Y1627D02*
X2020Y1627D01*
X0Y1626D02*
X7Y1626D01*
X2013Y1626D02*
X2020Y1626D01*
X0Y1625D02*
X7Y1625D01*
X2013Y1625D02*
X2020Y1625D01*
X0Y1624D02*
X7Y1624D01*
X2013Y1624D02*
X2020Y1624D01*
X0Y1623D02*
X7Y1623D01*
X2013Y1623D02*
X2020Y1623D01*
X0Y1622D02*
X7Y1622D01*
X2013Y1622D02*
X2020Y1622D01*
X0Y1621D02*
X7Y1621D01*
X2013Y1621D02*
X2020Y1621D01*
X0Y1620D02*
X7Y1620D01*
X2013Y1620D02*
X2020Y1620D01*
X0Y1619D02*
X7Y1619D01*
X2013Y1619D02*
X2020Y1619D01*
X0Y1618D02*
X7Y1618D01*
X2013Y1618D02*
X2020Y1618D01*
X0Y1617D02*
X7Y1617D01*
X2013Y1617D02*
X2020Y1617D01*
X0Y1616D02*
X7Y1616D01*
X2013Y1616D02*
X2020Y1616D01*
X0Y1615D02*
X7Y1615D01*
X2013Y1615D02*
X2020Y1615D01*
X0Y1614D02*
X7Y1614D01*
X2013Y1614D02*
X2020Y1614D01*
X0Y1613D02*
X7Y1613D01*
X2013Y1613D02*
X2020Y1613D01*
X0Y1612D02*
X7Y1612D01*
X2013Y1612D02*
X2020Y1612D01*
X0Y1611D02*
X7Y1611D01*
X2013Y1611D02*
X2020Y1611D01*
X0Y1610D02*
X7Y1610D01*
X2013Y1610D02*
X2020Y1610D01*
X0Y1609D02*
X7Y1609D01*
X2013Y1609D02*
X2020Y1609D01*
X0Y1608D02*
X7Y1608D01*
X2013Y1608D02*
X2020Y1608D01*
X0Y1607D02*
X7Y1607D01*
X2013Y1607D02*
X2020Y1607D01*
X0Y1606D02*
X7Y1606D01*
X2013Y1606D02*
X2020Y1606D01*
X0Y1605D02*
X7Y1605D01*
X2013Y1605D02*
X2020Y1605D01*
X0Y1604D02*
X7Y1604D01*
X2013Y1604D02*
X2020Y1604D01*
X0Y1603D02*
X7Y1603D01*
X2013Y1603D02*
X2020Y1603D01*
X0Y1602D02*
X7Y1602D01*
X2013Y1602D02*
X2020Y1602D01*
X0Y1601D02*
X7Y1601D01*
X2013Y1601D02*
X2020Y1601D01*
X0Y1600D02*
X7Y1600D01*
X2013Y1600D02*
X2020Y1600D01*
X0Y1599D02*
X7Y1599D01*
X2013Y1599D02*
X2020Y1599D01*
X0Y1598D02*
X7Y1598D01*
X2013Y1598D02*
X2020Y1598D01*
X0Y1597D02*
X7Y1597D01*
X2013Y1597D02*
X2020Y1597D01*
X0Y1596D02*
X7Y1596D01*
X2013Y1596D02*
X2020Y1596D01*
X0Y1595D02*
X7Y1595D01*
X2013Y1595D02*
X2020Y1595D01*
X0Y1594D02*
X7Y1594D01*
X2013Y1594D02*
X2020Y1594D01*
X0Y1593D02*
X7Y1593D01*
X2013Y1593D02*
X2020Y1593D01*
X0Y1592D02*
X7Y1592D01*
X2013Y1592D02*
X2020Y1592D01*
X0Y1591D02*
X7Y1591D01*
X2013Y1591D02*
X2020Y1591D01*
X0Y1590D02*
X7Y1590D01*
X2013Y1590D02*
X2020Y1590D01*
X0Y1589D02*
X7Y1589D01*
X2013Y1589D02*
X2020Y1589D01*
X0Y1588D02*
X7Y1588D01*
X2013Y1588D02*
X2020Y1588D01*
X0Y1587D02*
X7Y1587D01*
X2013Y1587D02*
X2020Y1587D01*
X0Y1586D02*
X7Y1586D01*
X2013Y1586D02*
X2020Y1586D01*
X0Y1585D02*
X7Y1585D01*
X2013Y1585D02*
X2020Y1585D01*
X0Y1584D02*
X7Y1584D01*
X2013Y1584D02*
X2020Y1584D01*
X0Y1583D02*
X7Y1583D01*
X2013Y1583D02*
X2020Y1583D01*
X0Y1582D02*
X7Y1582D01*
X2013Y1582D02*
X2020Y1582D01*
X0Y1581D02*
X7Y1581D01*
X2013Y1581D02*
X2020Y1581D01*
X0Y1580D02*
X7Y1580D01*
X2013Y1580D02*
X2020Y1580D01*
X0Y1579D02*
X7Y1579D01*
X2013Y1579D02*
X2020Y1579D01*
X0Y1578D02*
X7Y1578D01*
X2013Y1578D02*
X2020Y1578D01*
X0Y1577D02*
X7Y1577D01*
X2013Y1577D02*
X2020Y1577D01*
X0Y1576D02*
X7Y1576D01*
X2013Y1576D02*
X2020Y1576D01*
X0Y1575D02*
X7Y1575D01*
X2013Y1575D02*
X2020Y1575D01*
X0Y1574D02*
X7Y1574D01*
X2013Y1574D02*
X2020Y1574D01*
X0Y1573D02*
X7Y1573D01*
X2013Y1573D02*
X2020Y1573D01*
X0Y1572D02*
X7Y1572D01*
X2013Y1572D02*
X2020Y1572D01*
X0Y1571D02*
X7Y1571D01*
X2013Y1571D02*
X2020Y1571D01*
X0Y1570D02*
X7Y1570D01*
X2013Y1570D02*
X2020Y1570D01*
X0Y1569D02*
X7Y1569D01*
X2013Y1569D02*
X2020Y1569D01*
X0Y1568D02*
X7Y1568D01*
X2013Y1568D02*
X2020Y1568D01*
X0Y1567D02*
X7Y1567D01*
X2013Y1567D02*
X2020Y1567D01*
X0Y1566D02*
X7Y1566D01*
X2013Y1566D02*
X2020Y1566D01*
X0Y1565D02*
X7Y1565D01*
X2013Y1565D02*
X2020Y1565D01*
X0Y1564D02*
X7Y1564D01*
X2013Y1564D02*
X2020Y1564D01*
X0Y1563D02*
X7Y1563D01*
X2013Y1563D02*
X2020Y1563D01*
X0Y1562D02*
X7Y1562D01*
X2013Y1562D02*
X2020Y1562D01*
X0Y1561D02*
X7Y1561D01*
X2013Y1561D02*
X2020Y1561D01*
X0Y1560D02*
X7Y1560D01*
X2013Y1560D02*
X2020Y1560D01*
X0Y1559D02*
X7Y1559D01*
X2013Y1559D02*
X2020Y1559D01*
X0Y1558D02*
X7Y1558D01*
X2013Y1558D02*
X2020Y1558D01*
X0Y1557D02*
X7Y1557D01*
X2013Y1557D02*
X2020Y1557D01*
X0Y1556D02*
X7Y1556D01*
X2013Y1556D02*
X2020Y1556D01*
X0Y1555D02*
X7Y1555D01*
X2013Y1555D02*
X2020Y1555D01*
X0Y1554D02*
X7Y1554D01*
X2013Y1554D02*
X2020Y1554D01*
X0Y1553D02*
X7Y1553D01*
X2013Y1553D02*
X2020Y1553D01*
X0Y1552D02*
X7Y1552D01*
X2013Y1552D02*
X2020Y1552D01*
X0Y1551D02*
X7Y1551D01*
X2013Y1551D02*
X2020Y1551D01*
X0Y1550D02*
X7Y1550D01*
X2013Y1550D02*
X2020Y1550D01*
X0Y1549D02*
X7Y1549D01*
X2013Y1549D02*
X2020Y1549D01*
X0Y1548D02*
X7Y1548D01*
X2013Y1548D02*
X2020Y1548D01*
X0Y1547D02*
X7Y1547D01*
X2013Y1547D02*
X2020Y1547D01*
X0Y1546D02*
X7Y1546D01*
X2013Y1546D02*
X2020Y1546D01*
X0Y1545D02*
X7Y1545D01*
X2013Y1545D02*
X2020Y1545D01*
X0Y1544D02*
X7Y1544D01*
X2013Y1544D02*
X2020Y1544D01*
X0Y1543D02*
X7Y1543D01*
X2013Y1543D02*
X2020Y1543D01*
X0Y1542D02*
X7Y1542D01*
X2013Y1542D02*
X2020Y1542D01*
X0Y1541D02*
X7Y1541D01*
X2013Y1541D02*
X2020Y1541D01*
X0Y1540D02*
X7Y1540D01*
X2013Y1540D02*
X2020Y1540D01*
X0Y1539D02*
X7Y1539D01*
X2013Y1539D02*
X2020Y1539D01*
X0Y1538D02*
X7Y1538D01*
X2013Y1538D02*
X2020Y1538D01*
X0Y1537D02*
X7Y1537D01*
X2013Y1537D02*
X2020Y1537D01*
X0Y1536D02*
X7Y1536D01*
X2013Y1536D02*
X2020Y1536D01*
X0Y1535D02*
X7Y1535D01*
X2013Y1535D02*
X2020Y1535D01*
X0Y1534D02*
X7Y1534D01*
X2013Y1534D02*
X2020Y1534D01*
X0Y1533D02*
X7Y1533D01*
X2013Y1533D02*
X2020Y1533D01*
X0Y1532D02*
X7Y1532D01*
X2013Y1532D02*
X2020Y1532D01*
X0Y1531D02*
X7Y1531D01*
X2013Y1531D02*
X2020Y1531D01*
X0Y1530D02*
X7Y1530D01*
X2013Y1530D02*
X2020Y1530D01*
X0Y1529D02*
X7Y1529D01*
X2013Y1529D02*
X2020Y1529D01*
X0Y1528D02*
X7Y1528D01*
X2013Y1528D02*
X2020Y1528D01*
X0Y1527D02*
X7Y1527D01*
X2013Y1527D02*
X2020Y1527D01*
X0Y1526D02*
X7Y1526D01*
X2013Y1526D02*
X2020Y1526D01*
X0Y1525D02*
X7Y1525D01*
X2013Y1525D02*
X2020Y1525D01*
X0Y1524D02*
X7Y1524D01*
X2013Y1524D02*
X2020Y1524D01*
X0Y1523D02*
X7Y1523D01*
X2013Y1523D02*
X2020Y1523D01*
X0Y1522D02*
X7Y1522D01*
X2013Y1522D02*
X2020Y1522D01*
X0Y1521D02*
X7Y1521D01*
X2013Y1521D02*
X2020Y1521D01*
X0Y1520D02*
X7Y1520D01*
X2013Y1520D02*
X2020Y1520D01*
X0Y1519D02*
X7Y1519D01*
X2013Y1519D02*
X2020Y1519D01*
X0Y1518D02*
X7Y1518D01*
X2013Y1518D02*
X2020Y1518D01*
X0Y1517D02*
X7Y1517D01*
X2013Y1517D02*
X2020Y1517D01*
X0Y1516D02*
X7Y1516D01*
X2013Y1516D02*
X2020Y1516D01*
X0Y1515D02*
X7Y1515D01*
X2013Y1515D02*
X2020Y1515D01*
X0Y1514D02*
X7Y1514D01*
X2013Y1514D02*
X2020Y1514D01*
X0Y1513D02*
X7Y1513D01*
X2013Y1513D02*
X2020Y1513D01*
X0Y1512D02*
X7Y1512D01*
X2013Y1512D02*
X2020Y1512D01*
X0Y1511D02*
X7Y1511D01*
X2013Y1511D02*
X2020Y1511D01*
X0Y1510D02*
X7Y1510D01*
X2013Y1510D02*
X2020Y1510D01*
X0Y1509D02*
X7Y1509D01*
X2013Y1509D02*
X2020Y1509D01*
X0Y1508D02*
X7Y1508D01*
X2013Y1508D02*
X2020Y1508D01*
X0Y1507D02*
X7Y1507D01*
X2013Y1507D02*
X2020Y1507D01*
X0Y1506D02*
X7Y1506D01*
X2013Y1506D02*
X2020Y1506D01*
X0Y1505D02*
X7Y1505D01*
X2013Y1505D02*
X2020Y1505D01*
X0Y1504D02*
X7Y1504D01*
X2013Y1504D02*
X2020Y1504D01*
X0Y1503D02*
X7Y1503D01*
X2013Y1503D02*
X2020Y1503D01*
X0Y1502D02*
X7Y1502D01*
X2013Y1502D02*
X2020Y1502D01*
X0Y1501D02*
X7Y1501D01*
X2013Y1501D02*
X2020Y1501D01*
X0Y1500D02*
X7Y1500D01*
X2013Y1500D02*
X2020Y1500D01*
X0Y1499D02*
X7Y1499D01*
X2013Y1499D02*
X2020Y1499D01*
X0Y1498D02*
X7Y1498D01*
X2013Y1498D02*
X2020Y1498D01*
X0Y1497D02*
X7Y1497D01*
X2013Y1497D02*
X2020Y1497D01*
X0Y1496D02*
X7Y1496D01*
X2013Y1496D02*
X2020Y1496D01*
X0Y1495D02*
X7Y1495D01*
X2013Y1495D02*
X2020Y1495D01*
X0Y1494D02*
X7Y1494D01*
X2013Y1494D02*
X2020Y1494D01*
X0Y1493D02*
X7Y1493D01*
X2013Y1493D02*
X2020Y1493D01*
X0Y1492D02*
X7Y1492D01*
X2013Y1492D02*
X2020Y1492D01*
X0Y1491D02*
X7Y1491D01*
X2013Y1491D02*
X2020Y1491D01*
X0Y1490D02*
X7Y1490D01*
X2013Y1490D02*
X2020Y1490D01*
X0Y1489D02*
X7Y1489D01*
X2013Y1489D02*
X2020Y1489D01*
X0Y1488D02*
X7Y1488D01*
X2013Y1488D02*
X2020Y1488D01*
X0Y1487D02*
X7Y1487D01*
X2013Y1487D02*
X2020Y1487D01*
X0Y1486D02*
X7Y1486D01*
X2013Y1486D02*
X2020Y1486D01*
X0Y1485D02*
X7Y1485D01*
X2013Y1485D02*
X2020Y1485D01*
X0Y1484D02*
X7Y1484D01*
X2013Y1484D02*
X2020Y1484D01*
X0Y1483D02*
X7Y1483D01*
X2013Y1483D02*
X2020Y1483D01*
X0Y1482D02*
X7Y1482D01*
X2013Y1482D02*
X2020Y1482D01*
X0Y1481D02*
X7Y1481D01*
X2013Y1481D02*
X2020Y1481D01*
X0Y1480D02*
X7Y1480D01*
X2013Y1480D02*
X2020Y1480D01*
X0Y1479D02*
X7Y1479D01*
X2013Y1479D02*
X2020Y1479D01*
X0Y1478D02*
X7Y1478D01*
X2013Y1478D02*
X2020Y1478D01*
X0Y1477D02*
X7Y1477D01*
X2013Y1477D02*
X2020Y1477D01*
X0Y1476D02*
X7Y1476D01*
X2013Y1476D02*
X2020Y1476D01*
X0Y1475D02*
X7Y1475D01*
X2013Y1475D02*
X2020Y1475D01*
X0Y1474D02*
X7Y1474D01*
X2013Y1474D02*
X2020Y1474D01*
X0Y1473D02*
X7Y1473D01*
X2013Y1473D02*
X2020Y1473D01*
X0Y1472D02*
X7Y1472D01*
X2013Y1472D02*
X2020Y1472D01*
X0Y1471D02*
X7Y1471D01*
X2013Y1471D02*
X2020Y1471D01*
X0Y1470D02*
X7Y1470D01*
X2013Y1470D02*
X2020Y1470D01*
X0Y1469D02*
X7Y1469D01*
X2013Y1469D02*
X2020Y1469D01*
X0Y1468D02*
X7Y1468D01*
X2013Y1468D02*
X2020Y1468D01*
X0Y1467D02*
X7Y1467D01*
X2013Y1467D02*
X2020Y1467D01*
X0Y1466D02*
X7Y1466D01*
X2013Y1466D02*
X2020Y1466D01*
X0Y1465D02*
X7Y1465D01*
X2013Y1465D02*
X2020Y1465D01*
X0Y1464D02*
X7Y1464D01*
X2013Y1464D02*
X2020Y1464D01*
X0Y1463D02*
X7Y1463D01*
X2013Y1463D02*
X2020Y1463D01*
X0Y1462D02*
X7Y1462D01*
X2013Y1462D02*
X2020Y1462D01*
X0Y1461D02*
X7Y1461D01*
X2013Y1461D02*
X2020Y1461D01*
X0Y1460D02*
X7Y1460D01*
X2013Y1460D02*
X2020Y1460D01*
X0Y1459D02*
X7Y1459D01*
X2013Y1459D02*
X2020Y1459D01*
X0Y1458D02*
X7Y1458D01*
X2013Y1458D02*
X2020Y1458D01*
X0Y1457D02*
X7Y1457D01*
X2013Y1457D02*
X2020Y1457D01*
X0Y1456D02*
X7Y1456D01*
X2013Y1456D02*
X2020Y1456D01*
X0Y1455D02*
X7Y1455D01*
X2013Y1455D02*
X2020Y1455D01*
X0Y1454D02*
X7Y1454D01*
X2013Y1454D02*
X2020Y1454D01*
X0Y1453D02*
X7Y1453D01*
X2013Y1453D02*
X2020Y1453D01*
X0Y1452D02*
X7Y1452D01*
X2013Y1452D02*
X2020Y1452D01*
X0Y1451D02*
X7Y1451D01*
X2013Y1451D02*
X2020Y1451D01*
X0Y1450D02*
X7Y1450D01*
X2013Y1450D02*
X2020Y1450D01*
X0Y1449D02*
X7Y1449D01*
X2013Y1449D02*
X2020Y1449D01*
X0Y1448D02*
X7Y1448D01*
X2013Y1448D02*
X2020Y1448D01*
X0Y1447D02*
X7Y1447D01*
X2013Y1447D02*
X2020Y1447D01*
X0Y1446D02*
X7Y1446D01*
X2013Y1446D02*
X2020Y1446D01*
X0Y1445D02*
X7Y1445D01*
X2013Y1445D02*
X2020Y1445D01*
X0Y1444D02*
X7Y1444D01*
X2013Y1444D02*
X2020Y1444D01*
X0Y1443D02*
X7Y1443D01*
X2013Y1443D02*
X2020Y1443D01*
X0Y1442D02*
X7Y1442D01*
X2013Y1442D02*
X2020Y1442D01*
X0Y1441D02*
X7Y1441D01*
X2013Y1441D02*
X2020Y1441D01*
X0Y1440D02*
X7Y1440D01*
X2013Y1440D02*
X2020Y1440D01*
X0Y1439D02*
X7Y1439D01*
X2013Y1439D02*
X2020Y1439D01*
X0Y1438D02*
X7Y1438D01*
X2013Y1438D02*
X2020Y1438D01*
X0Y1437D02*
X7Y1437D01*
X2013Y1437D02*
X2020Y1437D01*
X0Y1436D02*
X7Y1436D01*
X2013Y1436D02*
X2020Y1436D01*
X0Y1435D02*
X7Y1435D01*
X2013Y1435D02*
X2020Y1435D01*
X0Y1434D02*
X7Y1434D01*
X2013Y1434D02*
X2020Y1434D01*
X0Y1433D02*
X7Y1433D01*
X2013Y1433D02*
X2020Y1433D01*
X0Y1432D02*
X7Y1432D01*
X2013Y1432D02*
X2020Y1432D01*
X0Y1431D02*
X7Y1431D01*
X2013Y1431D02*
X2020Y1431D01*
X0Y1430D02*
X7Y1430D01*
X2013Y1430D02*
X2020Y1430D01*
X0Y1429D02*
X7Y1429D01*
X2013Y1429D02*
X2020Y1429D01*
X0Y1428D02*
X7Y1428D01*
X2013Y1428D02*
X2020Y1428D01*
X0Y1427D02*
X7Y1427D01*
X2013Y1427D02*
X2020Y1427D01*
X0Y1426D02*
X7Y1426D01*
X2013Y1426D02*
X2020Y1426D01*
X0Y1425D02*
X7Y1425D01*
X2013Y1425D02*
X2020Y1425D01*
X0Y1424D02*
X7Y1424D01*
X2013Y1424D02*
X2020Y1424D01*
X0Y1423D02*
X7Y1423D01*
X2013Y1423D02*
X2020Y1423D01*
X0Y1422D02*
X7Y1422D01*
X2013Y1422D02*
X2020Y1422D01*
X0Y1421D02*
X7Y1421D01*
X2013Y1421D02*
X2020Y1421D01*
X0Y1420D02*
X7Y1420D01*
X2013Y1420D02*
X2020Y1420D01*
X0Y1419D02*
X7Y1419D01*
X2013Y1419D02*
X2020Y1419D01*
X0Y1418D02*
X7Y1418D01*
X2013Y1418D02*
X2020Y1418D01*
X0Y1417D02*
X7Y1417D01*
X2013Y1417D02*
X2020Y1417D01*
X0Y1416D02*
X7Y1416D01*
X2013Y1416D02*
X2020Y1416D01*
X0Y1415D02*
X7Y1415D01*
X2013Y1415D02*
X2020Y1415D01*
X0Y1414D02*
X7Y1414D01*
X2013Y1414D02*
X2020Y1414D01*
X0Y1413D02*
X7Y1413D01*
X2013Y1413D02*
X2020Y1413D01*
X0Y1412D02*
X7Y1412D01*
X2013Y1412D02*
X2020Y1412D01*
X0Y1411D02*
X7Y1411D01*
X2013Y1411D02*
X2020Y1411D01*
X0Y1410D02*
X7Y1410D01*
X2013Y1410D02*
X2020Y1410D01*
X0Y1409D02*
X7Y1409D01*
X2013Y1409D02*
X2020Y1409D01*
X0Y1408D02*
X7Y1408D01*
X2013Y1408D02*
X2020Y1408D01*
X0Y1407D02*
X7Y1407D01*
X2013Y1407D02*
X2020Y1407D01*
X0Y1406D02*
X7Y1406D01*
X2013Y1406D02*
X2020Y1406D01*
X0Y1405D02*
X7Y1405D01*
X2013Y1405D02*
X2020Y1405D01*
X0Y1404D02*
X7Y1404D01*
X2013Y1404D02*
X2020Y1404D01*
X0Y1403D02*
X7Y1403D01*
X2013Y1403D02*
X2020Y1403D01*
X0Y1402D02*
X7Y1402D01*
X2013Y1402D02*
X2020Y1402D01*
X0Y1401D02*
X7Y1401D01*
X2013Y1401D02*
X2020Y1401D01*
X0Y1400D02*
X7Y1400D01*
X2013Y1400D02*
X2020Y1400D01*
X0Y1399D02*
X7Y1399D01*
X2013Y1399D02*
X2020Y1399D01*
X0Y1398D02*
X7Y1398D01*
X2013Y1398D02*
X2020Y1398D01*
X0Y1397D02*
X7Y1397D01*
X2013Y1397D02*
X2020Y1397D01*
X0Y1396D02*
X7Y1396D01*
X2013Y1396D02*
X2020Y1396D01*
X0Y1395D02*
X7Y1395D01*
X2013Y1395D02*
X2020Y1395D01*
X0Y1394D02*
X7Y1394D01*
X2013Y1394D02*
X2020Y1394D01*
X0Y1393D02*
X7Y1393D01*
X2013Y1393D02*
X2020Y1393D01*
X0Y1392D02*
X7Y1392D01*
X2013Y1392D02*
X2020Y1392D01*
X0Y1391D02*
X7Y1391D01*
X2013Y1391D02*
X2020Y1391D01*
X0Y1390D02*
X7Y1390D01*
X2013Y1390D02*
X2020Y1390D01*
X0Y1389D02*
X7Y1389D01*
X2013Y1389D02*
X2020Y1389D01*
X0Y1388D02*
X7Y1388D01*
X2013Y1388D02*
X2020Y1388D01*
X0Y1387D02*
X7Y1387D01*
X2013Y1387D02*
X2020Y1387D01*
X0Y1386D02*
X7Y1386D01*
X2013Y1386D02*
X2020Y1386D01*
X0Y1385D02*
X7Y1385D01*
X2013Y1385D02*
X2020Y1385D01*
X0Y1384D02*
X7Y1384D01*
X2013Y1384D02*
X2020Y1384D01*
X0Y1383D02*
X7Y1383D01*
X2013Y1383D02*
X2020Y1383D01*
X0Y1382D02*
X7Y1382D01*
X2013Y1382D02*
X2020Y1382D01*
X0Y1381D02*
X7Y1381D01*
X2013Y1381D02*
X2020Y1381D01*
X0Y1380D02*
X7Y1380D01*
X2013Y1380D02*
X2020Y1380D01*
X0Y1379D02*
X7Y1379D01*
X2013Y1379D02*
X2020Y1379D01*
X0Y1378D02*
X7Y1378D01*
X2013Y1378D02*
X2020Y1378D01*
X0Y1377D02*
X7Y1377D01*
X2013Y1377D02*
X2020Y1377D01*
X0Y1376D02*
X7Y1376D01*
X2013Y1376D02*
X2020Y1376D01*
X0Y1375D02*
X7Y1375D01*
X2013Y1375D02*
X2020Y1375D01*
X0Y1374D02*
X7Y1374D01*
X2013Y1374D02*
X2020Y1374D01*
X0Y1373D02*
X7Y1373D01*
X2013Y1373D02*
X2020Y1373D01*
X0Y1372D02*
X7Y1372D01*
X2013Y1372D02*
X2020Y1372D01*
X0Y1371D02*
X7Y1371D01*
X2013Y1371D02*
X2020Y1371D01*
X0Y1370D02*
X7Y1370D01*
X2013Y1370D02*
X2020Y1370D01*
X0Y1369D02*
X7Y1369D01*
X2013Y1369D02*
X2020Y1369D01*
X0Y1368D02*
X7Y1368D01*
X2013Y1368D02*
X2020Y1368D01*
X0Y1367D02*
X7Y1367D01*
X2013Y1367D02*
X2020Y1367D01*
X0Y1366D02*
X7Y1366D01*
X2013Y1366D02*
X2020Y1366D01*
X0Y1365D02*
X7Y1365D01*
X2013Y1365D02*
X2020Y1365D01*
X0Y1364D02*
X7Y1364D01*
X2013Y1364D02*
X2020Y1364D01*
X0Y1363D02*
X7Y1363D01*
X2013Y1363D02*
X2020Y1363D01*
X0Y1362D02*
X7Y1362D01*
X2013Y1362D02*
X2020Y1362D01*
X0Y1361D02*
X7Y1361D01*
X2013Y1361D02*
X2020Y1361D01*
X0Y1360D02*
X7Y1360D01*
X2013Y1360D02*
X2020Y1360D01*
X0Y1359D02*
X7Y1359D01*
X2013Y1359D02*
X2020Y1359D01*
X0Y1358D02*
X7Y1358D01*
X2013Y1358D02*
X2020Y1358D01*
X0Y1357D02*
X7Y1357D01*
X2013Y1357D02*
X2020Y1357D01*
X0Y1356D02*
X7Y1356D01*
X2013Y1356D02*
X2020Y1356D01*
X0Y1355D02*
X7Y1355D01*
X2013Y1355D02*
X2020Y1355D01*
X0Y1354D02*
X7Y1354D01*
X2013Y1354D02*
X2020Y1354D01*
X0Y1353D02*
X7Y1353D01*
X2013Y1353D02*
X2020Y1353D01*
X0Y1352D02*
X7Y1352D01*
X2013Y1352D02*
X2020Y1352D01*
X0Y1351D02*
X7Y1351D01*
X2013Y1351D02*
X2020Y1351D01*
X0Y1350D02*
X7Y1350D01*
X2013Y1350D02*
X2020Y1350D01*
X0Y1349D02*
X7Y1349D01*
X2013Y1349D02*
X2020Y1349D01*
X0Y1348D02*
X7Y1348D01*
X2013Y1348D02*
X2020Y1348D01*
X0Y1347D02*
X7Y1347D01*
X2013Y1347D02*
X2020Y1347D01*
X0Y1346D02*
X7Y1346D01*
X2013Y1346D02*
X2020Y1346D01*
X0Y1345D02*
X7Y1345D01*
X2013Y1345D02*
X2020Y1345D01*
X0Y1344D02*
X7Y1344D01*
X2013Y1344D02*
X2020Y1344D01*
X0Y1343D02*
X7Y1343D01*
X2013Y1343D02*
X2020Y1343D01*
X0Y1342D02*
X7Y1342D01*
X2013Y1342D02*
X2020Y1342D01*
X0Y1341D02*
X7Y1341D01*
X2013Y1341D02*
X2020Y1341D01*
X0Y1340D02*
X7Y1340D01*
X2013Y1340D02*
X2020Y1340D01*
X0Y1339D02*
X7Y1339D01*
X2013Y1339D02*
X2020Y1339D01*
X0Y1338D02*
X7Y1338D01*
X2013Y1338D02*
X2020Y1338D01*
X0Y1337D02*
X7Y1337D01*
X2013Y1337D02*
X2020Y1337D01*
X0Y1336D02*
X7Y1336D01*
X2013Y1336D02*
X2020Y1336D01*
X0Y1335D02*
X7Y1335D01*
X2013Y1335D02*
X2020Y1335D01*
X0Y1334D02*
X7Y1334D01*
X2013Y1334D02*
X2020Y1334D01*
X0Y1333D02*
X7Y1333D01*
X2013Y1333D02*
X2020Y1333D01*
X0Y1332D02*
X7Y1332D01*
X2013Y1332D02*
X2020Y1332D01*
X0Y1331D02*
X7Y1331D01*
X2013Y1331D02*
X2020Y1331D01*
X0Y1330D02*
X7Y1330D01*
X2013Y1330D02*
X2020Y1330D01*
X0Y1329D02*
X7Y1329D01*
X2013Y1329D02*
X2020Y1329D01*
X0Y1328D02*
X7Y1328D01*
X2013Y1328D02*
X2020Y1328D01*
X0Y1327D02*
X7Y1327D01*
X2013Y1327D02*
X2020Y1327D01*
X0Y1326D02*
X7Y1326D01*
X2013Y1326D02*
X2020Y1326D01*
X0Y1325D02*
X7Y1325D01*
X2013Y1325D02*
X2020Y1325D01*
X0Y1324D02*
X7Y1324D01*
X2013Y1324D02*
X2020Y1324D01*
X0Y1323D02*
X7Y1323D01*
X2013Y1323D02*
X2020Y1323D01*
X0Y1322D02*
X7Y1322D01*
X2013Y1322D02*
X2020Y1322D01*
X0Y1321D02*
X7Y1321D01*
X2013Y1321D02*
X2020Y1321D01*
X0Y1320D02*
X7Y1320D01*
X2013Y1320D02*
X2020Y1320D01*
X0Y1319D02*
X7Y1319D01*
X2013Y1319D02*
X2020Y1319D01*
X0Y1318D02*
X7Y1318D01*
X2013Y1318D02*
X2020Y1318D01*
X0Y1317D02*
X7Y1317D01*
X2013Y1317D02*
X2020Y1317D01*
X0Y1316D02*
X7Y1316D01*
X2013Y1316D02*
X2020Y1316D01*
X0Y1315D02*
X7Y1315D01*
X2013Y1315D02*
X2020Y1315D01*
X0Y1314D02*
X7Y1314D01*
X2013Y1314D02*
X2020Y1314D01*
X0Y1313D02*
X7Y1313D01*
X2013Y1313D02*
X2020Y1313D01*
X0Y1312D02*
X7Y1312D01*
X2013Y1312D02*
X2020Y1312D01*
X0Y1311D02*
X7Y1311D01*
X2013Y1311D02*
X2020Y1311D01*
X0Y1310D02*
X7Y1310D01*
X2013Y1310D02*
X2020Y1310D01*
X0Y1309D02*
X7Y1309D01*
X2013Y1309D02*
X2020Y1309D01*
X0Y1308D02*
X7Y1308D01*
X2013Y1308D02*
X2020Y1308D01*
X0Y1307D02*
X7Y1307D01*
X2013Y1307D02*
X2020Y1307D01*
X0Y1306D02*
X7Y1306D01*
X2013Y1306D02*
X2020Y1306D01*
X0Y1305D02*
X7Y1305D01*
X2013Y1305D02*
X2020Y1305D01*
X0Y1304D02*
X7Y1304D01*
X2013Y1304D02*
X2020Y1304D01*
X0Y1303D02*
X7Y1303D01*
X2013Y1303D02*
X2020Y1303D01*
X0Y1302D02*
X7Y1302D01*
X2013Y1302D02*
X2020Y1302D01*
X0Y1301D02*
X7Y1301D01*
X2013Y1301D02*
X2020Y1301D01*
X0Y1300D02*
X7Y1300D01*
X2013Y1300D02*
X2020Y1300D01*
X0Y1299D02*
X7Y1299D01*
X2013Y1299D02*
X2020Y1299D01*
X0Y1298D02*
X7Y1298D01*
X2013Y1298D02*
X2020Y1298D01*
X0Y1297D02*
X7Y1297D01*
X2013Y1297D02*
X2020Y1297D01*
X0Y1296D02*
X7Y1296D01*
X2013Y1296D02*
X2020Y1296D01*
X0Y1295D02*
X7Y1295D01*
X2013Y1295D02*
X2020Y1295D01*
X0Y1294D02*
X7Y1294D01*
X2013Y1294D02*
X2020Y1294D01*
X0Y1293D02*
X7Y1293D01*
X2013Y1293D02*
X2020Y1293D01*
X0Y1292D02*
X7Y1292D01*
X2013Y1292D02*
X2020Y1292D01*
X0Y1291D02*
X7Y1291D01*
X2013Y1291D02*
X2020Y1291D01*
X0Y1290D02*
X7Y1290D01*
X2013Y1290D02*
X2020Y1290D01*
X0Y1289D02*
X7Y1289D01*
X2013Y1289D02*
X2020Y1289D01*
X0Y1288D02*
X7Y1288D01*
X2013Y1288D02*
X2020Y1288D01*
X0Y1287D02*
X7Y1287D01*
X2013Y1287D02*
X2020Y1287D01*
X0Y1286D02*
X7Y1286D01*
X2013Y1286D02*
X2020Y1286D01*
X0Y1285D02*
X7Y1285D01*
X2013Y1285D02*
X2020Y1285D01*
X0Y1284D02*
X7Y1284D01*
X2013Y1284D02*
X2020Y1284D01*
X0Y1283D02*
X7Y1283D01*
X2013Y1283D02*
X2020Y1283D01*
X0Y1282D02*
X7Y1282D01*
X2013Y1282D02*
X2020Y1282D01*
X0Y1281D02*
X7Y1281D01*
X2013Y1281D02*
X2020Y1281D01*
X0Y1280D02*
X7Y1280D01*
X2013Y1280D02*
X2020Y1280D01*
X0Y1279D02*
X7Y1279D01*
X2013Y1279D02*
X2020Y1279D01*
X0Y1278D02*
X7Y1278D01*
X2013Y1278D02*
X2020Y1278D01*
X0Y1277D02*
X7Y1277D01*
X2013Y1277D02*
X2020Y1277D01*
X0Y1276D02*
X7Y1276D01*
X2013Y1276D02*
X2020Y1276D01*
X0Y1275D02*
X7Y1275D01*
X2013Y1275D02*
X2020Y1275D01*
X0Y1274D02*
X7Y1274D01*
X2013Y1274D02*
X2020Y1274D01*
X0Y1273D02*
X7Y1273D01*
X2013Y1273D02*
X2020Y1273D01*
X0Y1272D02*
X7Y1272D01*
X2013Y1272D02*
X2020Y1272D01*
X0Y1271D02*
X7Y1271D01*
X2013Y1271D02*
X2020Y1271D01*
X0Y1270D02*
X7Y1270D01*
X2013Y1270D02*
X2020Y1270D01*
X0Y1269D02*
X7Y1269D01*
X2013Y1269D02*
X2020Y1269D01*
X0Y1268D02*
X7Y1268D01*
X2013Y1268D02*
X2020Y1268D01*
X0Y1267D02*
X7Y1267D01*
X2013Y1267D02*
X2020Y1267D01*
X0Y1266D02*
X7Y1266D01*
X2013Y1266D02*
X2020Y1266D01*
X0Y1265D02*
X7Y1265D01*
X2013Y1265D02*
X2020Y1265D01*
X0Y1264D02*
X7Y1264D01*
X2013Y1264D02*
X2020Y1264D01*
X0Y1263D02*
X7Y1263D01*
X2013Y1263D02*
X2020Y1263D01*
X0Y1262D02*
X7Y1262D01*
X2013Y1262D02*
X2020Y1262D01*
X0Y1261D02*
X7Y1261D01*
X2013Y1261D02*
X2020Y1261D01*
X0Y1260D02*
X7Y1260D01*
X2013Y1260D02*
X2020Y1260D01*
X0Y1259D02*
X7Y1259D01*
X2013Y1259D02*
X2020Y1259D01*
X0Y1258D02*
X7Y1258D01*
X2013Y1258D02*
X2020Y1258D01*
X0Y1257D02*
X7Y1257D01*
X2013Y1257D02*
X2020Y1257D01*
X0Y1256D02*
X7Y1256D01*
X2013Y1256D02*
X2020Y1256D01*
X0Y1255D02*
X7Y1255D01*
X2013Y1255D02*
X2020Y1255D01*
X0Y1254D02*
X7Y1254D01*
X2013Y1254D02*
X2020Y1254D01*
X0Y1253D02*
X7Y1253D01*
X2013Y1253D02*
X2020Y1253D01*
X0Y1252D02*
X7Y1252D01*
X2013Y1252D02*
X2020Y1252D01*
X0Y1251D02*
X7Y1251D01*
X2013Y1251D02*
X2020Y1251D01*
X0Y1250D02*
X7Y1250D01*
X2013Y1250D02*
X2020Y1250D01*
X0Y1249D02*
X7Y1249D01*
X2013Y1249D02*
X2020Y1249D01*
X0Y1248D02*
X7Y1248D01*
X2013Y1248D02*
X2020Y1248D01*
X0Y1247D02*
X7Y1247D01*
X2013Y1247D02*
X2020Y1247D01*
X0Y1246D02*
X7Y1246D01*
X2013Y1246D02*
X2020Y1246D01*
X0Y1245D02*
X7Y1245D01*
X2013Y1245D02*
X2020Y1245D01*
X0Y1244D02*
X7Y1244D01*
X2013Y1244D02*
X2020Y1244D01*
X0Y1243D02*
X7Y1243D01*
X2013Y1243D02*
X2020Y1243D01*
X0Y1242D02*
X7Y1242D01*
X2013Y1242D02*
X2020Y1242D01*
X0Y1241D02*
X7Y1241D01*
X2013Y1241D02*
X2020Y1241D01*
X0Y1240D02*
X7Y1240D01*
X2013Y1240D02*
X2020Y1240D01*
X0Y1239D02*
X7Y1239D01*
X2013Y1239D02*
X2020Y1239D01*
X0Y1238D02*
X7Y1238D01*
X2013Y1238D02*
X2020Y1238D01*
X0Y1237D02*
X7Y1237D01*
X2013Y1237D02*
X2020Y1237D01*
X0Y1236D02*
X7Y1236D01*
X2013Y1236D02*
X2020Y1236D01*
X0Y1235D02*
X7Y1235D01*
X2013Y1235D02*
X2020Y1235D01*
X0Y1234D02*
X7Y1234D01*
X2013Y1234D02*
X2020Y1234D01*
X0Y1233D02*
X7Y1233D01*
X2013Y1233D02*
X2020Y1233D01*
X0Y1232D02*
X7Y1232D01*
X2013Y1232D02*
X2020Y1232D01*
X0Y1231D02*
X7Y1231D01*
X2013Y1231D02*
X2020Y1231D01*
X0Y1230D02*
X7Y1230D01*
X2013Y1230D02*
X2020Y1230D01*
X0Y1229D02*
X7Y1229D01*
X2013Y1229D02*
X2020Y1229D01*
X0Y1228D02*
X7Y1228D01*
X2013Y1228D02*
X2020Y1228D01*
X0Y1227D02*
X7Y1227D01*
X2013Y1227D02*
X2020Y1227D01*
X0Y1226D02*
X7Y1226D01*
X2013Y1226D02*
X2020Y1226D01*
X0Y1225D02*
X7Y1225D01*
X2013Y1225D02*
X2020Y1225D01*
X0Y1224D02*
X7Y1224D01*
X2013Y1224D02*
X2020Y1224D01*
X0Y1223D02*
X7Y1223D01*
X2013Y1223D02*
X2020Y1223D01*
X0Y1222D02*
X7Y1222D01*
X2013Y1222D02*
X2020Y1222D01*
X0Y1221D02*
X7Y1221D01*
X2013Y1221D02*
X2020Y1221D01*
X0Y1220D02*
X7Y1220D01*
X2013Y1220D02*
X2020Y1220D01*
X0Y1219D02*
X7Y1219D01*
X2013Y1219D02*
X2020Y1219D01*
X0Y1218D02*
X7Y1218D01*
X2013Y1218D02*
X2020Y1218D01*
X0Y1217D02*
X7Y1217D01*
X2013Y1217D02*
X2020Y1217D01*
X0Y1216D02*
X7Y1216D01*
X2013Y1216D02*
X2020Y1216D01*
X0Y1215D02*
X7Y1215D01*
X2013Y1215D02*
X2020Y1215D01*
X0Y1214D02*
X7Y1214D01*
X2013Y1214D02*
X2020Y1214D01*
X0Y1213D02*
X7Y1213D01*
X2013Y1213D02*
X2020Y1213D01*
X0Y1212D02*
X7Y1212D01*
X2013Y1212D02*
X2020Y1212D01*
X0Y1211D02*
X7Y1211D01*
X2013Y1211D02*
X2020Y1211D01*
X0Y1210D02*
X7Y1210D01*
X2013Y1210D02*
X2020Y1210D01*
X0Y1209D02*
X7Y1209D01*
X2013Y1209D02*
X2020Y1209D01*
X0Y1208D02*
X7Y1208D01*
X2013Y1208D02*
X2020Y1208D01*
X0Y1207D02*
X7Y1207D01*
X2013Y1207D02*
X2020Y1207D01*
X0Y1206D02*
X7Y1206D01*
X2013Y1206D02*
X2020Y1206D01*
X0Y1205D02*
X7Y1205D01*
X2013Y1205D02*
X2020Y1205D01*
X0Y1204D02*
X7Y1204D01*
X2013Y1204D02*
X2020Y1204D01*
X0Y1203D02*
X7Y1203D01*
X2013Y1203D02*
X2020Y1203D01*
X0Y1202D02*
X7Y1202D01*
X2013Y1202D02*
X2020Y1202D01*
X0Y1201D02*
X7Y1201D01*
X2013Y1201D02*
X2020Y1201D01*
X0Y1200D02*
X7Y1200D01*
X2013Y1200D02*
X2020Y1200D01*
X0Y1199D02*
X7Y1199D01*
X2013Y1199D02*
X2020Y1199D01*
X0Y1198D02*
X7Y1198D01*
X2013Y1198D02*
X2020Y1198D01*
X0Y1197D02*
X7Y1197D01*
X2013Y1197D02*
X2020Y1197D01*
X0Y1196D02*
X7Y1196D01*
X2013Y1196D02*
X2020Y1196D01*
X0Y1195D02*
X7Y1195D01*
X2013Y1195D02*
X2020Y1195D01*
X0Y1194D02*
X7Y1194D01*
X2013Y1194D02*
X2020Y1194D01*
X0Y1193D02*
X7Y1193D01*
X2013Y1193D02*
X2020Y1193D01*
X0Y1192D02*
X7Y1192D01*
X2013Y1192D02*
X2020Y1192D01*
X0Y1191D02*
X7Y1191D01*
X2013Y1191D02*
X2020Y1191D01*
X0Y1190D02*
X7Y1190D01*
X2013Y1190D02*
X2020Y1190D01*
X0Y1189D02*
X7Y1189D01*
X2013Y1189D02*
X2020Y1189D01*
X0Y1188D02*
X7Y1188D01*
X2013Y1188D02*
X2020Y1188D01*
X0Y1187D02*
X7Y1187D01*
X2013Y1187D02*
X2020Y1187D01*
X0Y1186D02*
X7Y1186D01*
X2013Y1186D02*
X2020Y1186D01*
X0Y1185D02*
X7Y1185D01*
X2013Y1185D02*
X2020Y1185D01*
X0Y1184D02*
X7Y1184D01*
X2013Y1184D02*
X2020Y1184D01*
X0Y1183D02*
X7Y1183D01*
X2013Y1183D02*
X2020Y1183D01*
X0Y1182D02*
X7Y1182D01*
X2013Y1182D02*
X2020Y1182D01*
X0Y1181D02*
X7Y1181D01*
X2013Y1181D02*
X2020Y1181D01*
X0Y1180D02*
X7Y1180D01*
X2013Y1180D02*
X2020Y1180D01*
X0Y1179D02*
X7Y1179D01*
X2013Y1179D02*
X2020Y1179D01*
X0Y1178D02*
X7Y1178D01*
X2013Y1178D02*
X2020Y1178D01*
X0Y1177D02*
X7Y1177D01*
X2013Y1177D02*
X2020Y1177D01*
X0Y1176D02*
X7Y1176D01*
X2013Y1176D02*
X2020Y1176D01*
X0Y1175D02*
X7Y1175D01*
X2013Y1175D02*
X2020Y1175D01*
X0Y1174D02*
X7Y1174D01*
X2013Y1174D02*
X2020Y1174D01*
X0Y1173D02*
X7Y1173D01*
X2013Y1173D02*
X2020Y1173D01*
X0Y1172D02*
X7Y1172D01*
X2013Y1172D02*
X2020Y1172D01*
X0Y1171D02*
X7Y1171D01*
X2013Y1171D02*
X2020Y1171D01*
X0Y1170D02*
X7Y1170D01*
X2013Y1170D02*
X2020Y1170D01*
X0Y1169D02*
X7Y1169D01*
X2013Y1169D02*
X2020Y1169D01*
X0Y1168D02*
X7Y1168D01*
X2013Y1168D02*
X2020Y1168D01*
X0Y1167D02*
X7Y1167D01*
X2013Y1167D02*
X2020Y1167D01*
X0Y1166D02*
X7Y1166D01*
X2013Y1166D02*
X2020Y1166D01*
X0Y1165D02*
X7Y1165D01*
X2013Y1165D02*
X2020Y1165D01*
X0Y1164D02*
X7Y1164D01*
X2013Y1164D02*
X2020Y1164D01*
X0Y1163D02*
X7Y1163D01*
X2013Y1163D02*
X2020Y1163D01*
X0Y1162D02*
X7Y1162D01*
X2013Y1162D02*
X2020Y1162D01*
X0Y1161D02*
X7Y1161D01*
X2013Y1161D02*
X2020Y1161D01*
X0Y1160D02*
X7Y1160D01*
X2013Y1160D02*
X2020Y1160D01*
X0Y1159D02*
X7Y1159D01*
X2013Y1159D02*
X2020Y1159D01*
X0Y1158D02*
X7Y1158D01*
X2013Y1158D02*
X2020Y1158D01*
X0Y1157D02*
X7Y1157D01*
X2013Y1157D02*
X2020Y1157D01*
X0Y1156D02*
X7Y1156D01*
X2013Y1156D02*
X2020Y1156D01*
X0Y1155D02*
X7Y1155D01*
X2013Y1155D02*
X2020Y1155D01*
X0Y1154D02*
X7Y1154D01*
X2013Y1154D02*
X2020Y1154D01*
X0Y1153D02*
X7Y1153D01*
X2013Y1153D02*
X2020Y1153D01*
X0Y1152D02*
X7Y1152D01*
X2013Y1152D02*
X2020Y1152D01*
X0Y1151D02*
X7Y1151D01*
X2013Y1151D02*
X2020Y1151D01*
X0Y1150D02*
X7Y1150D01*
X2013Y1150D02*
X2020Y1150D01*
X0Y1149D02*
X7Y1149D01*
X2013Y1149D02*
X2020Y1149D01*
X0Y1148D02*
X7Y1148D01*
X2013Y1148D02*
X2020Y1148D01*
X0Y1147D02*
X7Y1147D01*
X2013Y1147D02*
X2020Y1147D01*
X0Y1146D02*
X7Y1146D01*
X2013Y1146D02*
X2020Y1146D01*
X0Y1145D02*
X7Y1145D01*
X2013Y1145D02*
X2020Y1145D01*
X0Y1144D02*
X7Y1144D01*
X2013Y1144D02*
X2020Y1144D01*
X0Y1143D02*
X7Y1143D01*
X2013Y1143D02*
X2020Y1143D01*
X0Y1142D02*
X7Y1142D01*
X2013Y1142D02*
X2020Y1142D01*
X0Y1141D02*
X7Y1141D01*
X2013Y1141D02*
X2020Y1141D01*
X0Y1140D02*
X7Y1140D01*
X2013Y1140D02*
X2020Y1140D01*
X0Y1139D02*
X7Y1139D01*
X2013Y1139D02*
X2020Y1139D01*
X0Y1138D02*
X7Y1138D01*
X2013Y1138D02*
X2020Y1138D01*
X0Y1137D02*
X7Y1137D01*
X2013Y1137D02*
X2020Y1137D01*
X0Y1136D02*
X7Y1136D01*
X2013Y1136D02*
X2020Y1136D01*
X0Y1135D02*
X7Y1135D01*
X2013Y1135D02*
X2020Y1135D01*
X0Y1134D02*
X7Y1134D01*
X2013Y1134D02*
X2020Y1134D01*
X0Y1133D02*
X7Y1133D01*
X2013Y1133D02*
X2020Y1133D01*
X0Y1132D02*
X7Y1132D01*
X2013Y1132D02*
X2020Y1132D01*
X0Y1131D02*
X7Y1131D01*
X2013Y1131D02*
X2020Y1131D01*
X0Y1130D02*
X7Y1130D01*
X2013Y1130D02*
X2020Y1130D01*
X0Y1129D02*
X7Y1129D01*
X2013Y1129D02*
X2020Y1129D01*
X0Y1128D02*
X7Y1128D01*
X2013Y1128D02*
X2020Y1128D01*
X0Y1127D02*
X7Y1127D01*
X2013Y1127D02*
X2020Y1127D01*
X0Y1126D02*
X7Y1126D01*
X2013Y1126D02*
X2020Y1126D01*
X0Y1125D02*
X7Y1125D01*
X2013Y1125D02*
X2020Y1125D01*
X0Y1124D02*
X7Y1124D01*
X2013Y1124D02*
X2020Y1124D01*
X0Y1123D02*
X7Y1123D01*
X2013Y1123D02*
X2020Y1123D01*
X0Y1122D02*
X7Y1122D01*
X2013Y1122D02*
X2020Y1122D01*
X0Y1121D02*
X7Y1121D01*
X2013Y1121D02*
X2020Y1121D01*
X0Y1120D02*
X7Y1120D01*
X2013Y1120D02*
X2020Y1120D01*
X0Y1119D02*
X7Y1119D01*
X2013Y1119D02*
X2020Y1119D01*
X0Y1118D02*
X7Y1118D01*
X2013Y1118D02*
X2020Y1118D01*
X0Y1117D02*
X7Y1117D01*
X2013Y1117D02*
X2020Y1117D01*
X0Y1116D02*
X7Y1116D01*
X2013Y1116D02*
X2020Y1116D01*
X0Y1115D02*
X7Y1115D01*
X2013Y1115D02*
X2020Y1115D01*
X0Y1114D02*
X7Y1114D01*
X2013Y1114D02*
X2020Y1114D01*
X0Y1113D02*
X7Y1113D01*
X2013Y1113D02*
X2020Y1113D01*
X0Y1112D02*
X7Y1112D01*
X2013Y1112D02*
X2020Y1112D01*
X0Y1111D02*
X7Y1111D01*
X2013Y1111D02*
X2020Y1111D01*
X0Y1110D02*
X7Y1110D01*
X2013Y1110D02*
X2020Y1110D01*
X0Y1109D02*
X7Y1109D01*
X2013Y1109D02*
X2020Y1109D01*
X0Y1108D02*
X7Y1108D01*
X2013Y1108D02*
X2020Y1108D01*
X0Y1107D02*
X7Y1107D01*
X2013Y1107D02*
X2020Y1107D01*
X0Y1106D02*
X7Y1106D01*
X2013Y1106D02*
X2020Y1106D01*
X0Y1105D02*
X7Y1105D01*
X2013Y1105D02*
X2020Y1105D01*
X0Y1104D02*
X7Y1104D01*
X2013Y1104D02*
X2020Y1104D01*
X0Y1103D02*
X7Y1103D01*
X2013Y1103D02*
X2020Y1103D01*
X0Y1102D02*
X7Y1102D01*
X2013Y1102D02*
X2020Y1102D01*
X0Y1101D02*
X7Y1101D01*
X2013Y1101D02*
X2020Y1101D01*
X0Y1100D02*
X7Y1100D01*
X2013Y1100D02*
X2020Y1100D01*
X0Y1099D02*
X7Y1099D01*
X2013Y1099D02*
X2020Y1099D01*
X0Y1098D02*
X7Y1098D01*
X2013Y1098D02*
X2020Y1098D01*
X0Y1097D02*
X7Y1097D01*
X2013Y1097D02*
X2020Y1097D01*
X0Y1096D02*
X7Y1096D01*
X2013Y1096D02*
X2020Y1096D01*
X0Y1095D02*
X7Y1095D01*
X2013Y1095D02*
X2020Y1095D01*
X0Y1094D02*
X7Y1094D01*
X2013Y1094D02*
X2020Y1094D01*
X0Y1093D02*
X7Y1093D01*
X2013Y1093D02*
X2020Y1093D01*
X0Y1092D02*
X7Y1092D01*
X2013Y1092D02*
X2020Y1092D01*
X0Y1091D02*
X7Y1091D01*
X2013Y1091D02*
X2020Y1091D01*
X0Y1090D02*
X7Y1090D01*
X2013Y1090D02*
X2020Y1090D01*
X0Y1089D02*
X7Y1089D01*
X2013Y1089D02*
X2020Y1089D01*
X0Y1088D02*
X7Y1088D01*
X2013Y1088D02*
X2020Y1088D01*
X0Y1087D02*
X7Y1087D01*
X2013Y1087D02*
X2020Y1087D01*
X0Y1086D02*
X7Y1086D01*
X2013Y1086D02*
X2020Y1086D01*
X0Y1085D02*
X7Y1085D01*
X2013Y1085D02*
X2020Y1085D01*
X0Y1084D02*
X7Y1084D01*
X2013Y1084D02*
X2020Y1084D01*
X0Y1083D02*
X7Y1083D01*
X2013Y1083D02*
X2020Y1083D01*
X0Y1082D02*
X7Y1082D01*
X2013Y1082D02*
X2020Y1082D01*
X0Y1081D02*
X7Y1081D01*
X2013Y1081D02*
X2020Y1081D01*
X0Y1080D02*
X7Y1080D01*
X2013Y1080D02*
X2020Y1080D01*
X0Y1079D02*
X7Y1079D01*
X2013Y1079D02*
X2020Y1079D01*
X0Y1078D02*
X7Y1078D01*
X2013Y1078D02*
X2020Y1078D01*
X0Y1077D02*
X7Y1077D01*
X2013Y1077D02*
X2020Y1077D01*
X0Y1076D02*
X7Y1076D01*
X2013Y1076D02*
X2020Y1076D01*
X0Y1075D02*
X7Y1075D01*
X2013Y1075D02*
X2020Y1075D01*
X0Y1074D02*
X7Y1074D01*
X2013Y1074D02*
X2020Y1074D01*
X0Y1073D02*
X7Y1073D01*
X2013Y1073D02*
X2020Y1073D01*
X0Y1072D02*
X7Y1072D01*
X2013Y1072D02*
X2020Y1072D01*
X0Y1071D02*
X7Y1071D01*
X2013Y1071D02*
X2020Y1071D01*
X0Y1070D02*
X7Y1070D01*
X2013Y1070D02*
X2020Y1070D01*
X0Y1069D02*
X7Y1069D01*
X2013Y1069D02*
X2020Y1069D01*
X0Y1068D02*
X7Y1068D01*
X2013Y1068D02*
X2020Y1068D01*
X0Y1067D02*
X7Y1067D01*
X2013Y1067D02*
X2020Y1067D01*
X0Y1066D02*
X7Y1066D01*
X2013Y1066D02*
X2020Y1066D01*
X0Y1065D02*
X7Y1065D01*
X2013Y1065D02*
X2020Y1065D01*
X0Y1064D02*
X7Y1064D01*
X2013Y1064D02*
X2020Y1064D01*
X0Y1063D02*
X7Y1063D01*
X2013Y1063D02*
X2020Y1063D01*
X0Y1062D02*
X7Y1062D01*
X2013Y1062D02*
X2020Y1062D01*
X0Y1061D02*
X7Y1061D01*
X2013Y1061D02*
X2020Y1061D01*
X0Y1060D02*
X7Y1060D01*
X2013Y1060D02*
X2020Y1060D01*
X0Y1059D02*
X7Y1059D01*
X2013Y1059D02*
X2020Y1059D01*
X0Y1058D02*
X7Y1058D01*
X2013Y1058D02*
X2020Y1058D01*
X0Y1057D02*
X7Y1057D01*
X2013Y1057D02*
X2020Y1057D01*
X0Y1056D02*
X7Y1056D01*
X2013Y1056D02*
X2020Y1056D01*
X0Y1055D02*
X7Y1055D01*
X2013Y1055D02*
X2020Y1055D01*
X0Y1054D02*
X7Y1054D01*
X2013Y1054D02*
X2020Y1054D01*
X0Y1053D02*
X7Y1053D01*
X2013Y1053D02*
X2020Y1053D01*
X0Y1052D02*
X7Y1052D01*
X2013Y1052D02*
X2020Y1052D01*
X0Y1051D02*
X7Y1051D01*
X2013Y1051D02*
X2020Y1051D01*
X0Y1050D02*
X7Y1050D01*
X2013Y1050D02*
X2020Y1050D01*
X0Y1049D02*
X7Y1049D01*
X2013Y1049D02*
X2020Y1049D01*
X0Y1048D02*
X7Y1048D01*
X2013Y1048D02*
X2020Y1048D01*
X0Y1047D02*
X7Y1047D01*
X2013Y1047D02*
X2020Y1047D01*
X0Y1046D02*
X7Y1046D01*
X2013Y1046D02*
X2020Y1046D01*
X0Y1045D02*
X7Y1045D01*
X2013Y1045D02*
X2020Y1045D01*
X0Y1044D02*
X7Y1044D01*
X2013Y1044D02*
X2020Y1044D01*
X0Y1043D02*
X7Y1043D01*
X2013Y1043D02*
X2020Y1043D01*
X0Y1042D02*
X7Y1042D01*
X2013Y1042D02*
X2020Y1042D01*
X0Y1041D02*
X7Y1041D01*
X2013Y1041D02*
X2020Y1041D01*
X0Y1040D02*
X7Y1040D01*
X2013Y1040D02*
X2020Y1040D01*
X0Y1039D02*
X7Y1039D01*
X2013Y1039D02*
X2020Y1039D01*
X0Y1038D02*
X7Y1038D01*
X2013Y1038D02*
X2020Y1038D01*
X0Y1037D02*
X7Y1037D01*
X2013Y1037D02*
X2020Y1037D01*
X0Y1036D02*
X7Y1036D01*
X2013Y1036D02*
X2020Y1036D01*
X0Y1035D02*
X7Y1035D01*
X2013Y1035D02*
X2020Y1035D01*
X0Y1034D02*
X7Y1034D01*
X2013Y1034D02*
X2020Y1034D01*
X0Y1033D02*
X7Y1033D01*
X2013Y1033D02*
X2020Y1033D01*
X0Y1032D02*
X7Y1032D01*
X2013Y1032D02*
X2020Y1032D01*
X0Y1031D02*
X7Y1031D01*
X2013Y1031D02*
X2020Y1031D01*
X0Y1030D02*
X7Y1030D01*
X2013Y1030D02*
X2020Y1030D01*
X0Y1029D02*
X7Y1029D01*
X2013Y1029D02*
X2020Y1029D01*
X0Y1028D02*
X7Y1028D01*
X2013Y1028D02*
X2020Y1028D01*
X0Y1027D02*
X7Y1027D01*
X2013Y1027D02*
X2020Y1027D01*
X0Y1026D02*
X7Y1026D01*
X2013Y1026D02*
X2020Y1026D01*
X0Y1025D02*
X7Y1025D01*
X2013Y1025D02*
X2020Y1025D01*
X0Y1024D02*
X7Y1024D01*
X2013Y1024D02*
X2020Y1024D01*
X0Y1023D02*
X7Y1023D01*
X2013Y1023D02*
X2020Y1023D01*
X0Y1022D02*
X7Y1022D01*
X2013Y1022D02*
X2020Y1022D01*
X0Y1021D02*
X7Y1021D01*
X2013Y1021D02*
X2020Y1021D01*
X0Y1020D02*
X7Y1020D01*
X2013Y1020D02*
X2020Y1020D01*
X0Y1019D02*
X7Y1019D01*
X2013Y1019D02*
X2020Y1019D01*
X0Y1018D02*
X7Y1018D01*
X2013Y1018D02*
X2020Y1018D01*
X0Y1017D02*
X7Y1017D01*
X2013Y1017D02*
X2020Y1017D01*
X0Y1016D02*
X7Y1016D01*
X2013Y1016D02*
X2020Y1016D01*
X0Y1015D02*
X7Y1015D01*
X2013Y1015D02*
X2020Y1015D01*
X0Y1014D02*
X7Y1014D01*
X2013Y1014D02*
X2020Y1014D01*
X0Y1013D02*
X7Y1013D01*
X2013Y1013D02*
X2020Y1013D01*
X0Y1012D02*
X7Y1012D01*
X2013Y1012D02*
X2020Y1012D01*
X0Y1011D02*
X7Y1011D01*
X2013Y1011D02*
X2020Y1011D01*
X0Y1010D02*
X7Y1010D01*
X2013Y1010D02*
X2020Y1010D01*
X0Y1009D02*
X7Y1009D01*
X2013Y1009D02*
X2020Y1009D01*
X0Y1008D02*
X7Y1008D01*
X2013Y1008D02*
X2020Y1008D01*
X0Y1007D02*
X7Y1007D01*
X2013Y1007D02*
X2020Y1007D01*
X0Y1006D02*
X7Y1006D01*
X2013Y1006D02*
X2020Y1006D01*
X0Y1005D02*
X7Y1005D01*
X2013Y1005D02*
X2020Y1005D01*
X0Y1004D02*
X7Y1004D01*
X2013Y1004D02*
X2020Y1004D01*
X0Y1003D02*
X7Y1003D01*
X2013Y1003D02*
X2020Y1003D01*
X0Y1002D02*
X7Y1002D01*
X2013Y1002D02*
X2020Y1002D01*
X0Y1001D02*
X7Y1001D01*
X2013Y1001D02*
X2020Y1001D01*
X0Y1000D02*
X7Y1000D01*
X2013Y1000D02*
X2020Y1000D01*
X0Y999D02*
X7Y999D01*
X2013Y999D02*
X2020Y999D01*
X0Y998D02*
X7Y998D01*
X2013Y998D02*
X2020Y998D01*
X0Y997D02*
X7Y997D01*
X2013Y997D02*
X2020Y997D01*
X0Y996D02*
X7Y996D01*
X2013Y996D02*
X2020Y996D01*
X0Y995D02*
X7Y995D01*
X2013Y995D02*
X2020Y995D01*
X0Y994D02*
X7Y994D01*
X2013Y994D02*
X2020Y994D01*
X0Y993D02*
X7Y993D01*
X2013Y993D02*
X2020Y993D01*
X0Y992D02*
X7Y992D01*
X2013Y992D02*
X2020Y992D01*
X0Y991D02*
X7Y991D01*
X2013Y991D02*
X2020Y991D01*
X0Y990D02*
X7Y990D01*
X2013Y990D02*
X2020Y990D01*
X0Y989D02*
X7Y989D01*
X2013Y989D02*
X2020Y989D01*
X0Y988D02*
X7Y988D01*
X2013Y988D02*
X2020Y988D01*
X0Y987D02*
X7Y987D01*
X2013Y987D02*
X2020Y987D01*
X0Y986D02*
X7Y986D01*
X2013Y986D02*
X2020Y986D01*
X0Y985D02*
X7Y985D01*
X2013Y985D02*
X2020Y985D01*
X0Y984D02*
X7Y984D01*
X2013Y984D02*
X2020Y984D01*
X0Y983D02*
X7Y983D01*
X2013Y983D02*
X2020Y983D01*
X0Y982D02*
X7Y982D01*
X2013Y982D02*
X2020Y982D01*
X0Y981D02*
X7Y981D01*
X2013Y981D02*
X2020Y981D01*
X0Y980D02*
X7Y980D01*
X2013Y980D02*
X2020Y980D01*
X0Y979D02*
X7Y979D01*
X2013Y979D02*
X2020Y979D01*
X0Y978D02*
X7Y978D01*
X2013Y978D02*
X2020Y978D01*
X0Y977D02*
X7Y977D01*
X2013Y977D02*
X2020Y977D01*
X0Y976D02*
X7Y976D01*
X2013Y976D02*
X2020Y976D01*
X0Y975D02*
X7Y975D01*
X2013Y975D02*
X2020Y975D01*
X0Y974D02*
X7Y974D01*
X2013Y974D02*
X2020Y974D01*
X0Y973D02*
X7Y973D01*
X2013Y973D02*
X2020Y973D01*
X0Y972D02*
X7Y972D01*
X2013Y972D02*
X2020Y972D01*
X0Y971D02*
X7Y971D01*
X2013Y971D02*
X2020Y971D01*
X0Y970D02*
X7Y970D01*
X2013Y970D02*
X2020Y970D01*
X0Y969D02*
X7Y969D01*
X2013Y969D02*
X2020Y969D01*
X0Y968D02*
X7Y968D01*
X2013Y968D02*
X2020Y968D01*
X0Y967D02*
X7Y967D01*
X2013Y967D02*
X2020Y967D01*
X0Y966D02*
X7Y966D01*
X2013Y966D02*
X2020Y966D01*
X0Y965D02*
X7Y965D01*
X2013Y965D02*
X2020Y965D01*
X0Y964D02*
X7Y964D01*
X2013Y964D02*
X2020Y964D01*
X0Y963D02*
X7Y963D01*
X2013Y963D02*
X2020Y963D01*
X0Y962D02*
X7Y962D01*
X2013Y962D02*
X2020Y962D01*
X0Y961D02*
X7Y961D01*
X2013Y961D02*
X2020Y961D01*
X0Y960D02*
X7Y960D01*
X2013Y960D02*
X2020Y960D01*
X0Y959D02*
X7Y959D01*
X2013Y959D02*
X2020Y959D01*
X0Y958D02*
X7Y958D01*
X2013Y958D02*
X2020Y958D01*
X0Y957D02*
X7Y957D01*
X2013Y957D02*
X2020Y957D01*
X0Y956D02*
X7Y956D01*
X2013Y956D02*
X2020Y956D01*
X0Y955D02*
X7Y955D01*
X2013Y955D02*
X2020Y955D01*
X0Y954D02*
X7Y954D01*
X2013Y954D02*
X2020Y954D01*
X0Y953D02*
X7Y953D01*
X2013Y953D02*
X2020Y953D01*
X0Y952D02*
X7Y952D01*
X2013Y952D02*
X2020Y952D01*
X0Y951D02*
X7Y951D01*
X2013Y951D02*
X2020Y951D01*
X0Y950D02*
X7Y950D01*
X2013Y950D02*
X2020Y950D01*
X0Y949D02*
X7Y949D01*
X2013Y949D02*
X2020Y949D01*
X0Y948D02*
X7Y948D01*
X2013Y948D02*
X2020Y948D01*
X0Y947D02*
X7Y947D01*
X2013Y947D02*
X2020Y947D01*
X0Y946D02*
X7Y946D01*
X2013Y946D02*
X2020Y946D01*
X0Y945D02*
X7Y945D01*
X2013Y945D02*
X2020Y945D01*
X0Y944D02*
X7Y944D01*
X2013Y944D02*
X2020Y944D01*
X0Y943D02*
X7Y943D01*
X2013Y943D02*
X2020Y943D01*
X0Y942D02*
X7Y942D01*
X2013Y942D02*
X2020Y942D01*
X0Y941D02*
X7Y941D01*
X2013Y941D02*
X2020Y941D01*
X0Y940D02*
X7Y940D01*
X2013Y940D02*
X2020Y940D01*
X0Y939D02*
X7Y939D01*
X2013Y939D02*
X2020Y939D01*
X0Y938D02*
X7Y938D01*
X2013Y938D02*
X2020Y938D01*
X0Y937D02*
X7Y937D01*
X2013Y937D02*
X2020Y937D01*
X0Y936D02*
X7Y936D01*
X2013Y936D02*
X2020Y936D01*
X0Y935D02*
X7Y935D01*
X2013Y935D02*
X2020Y935D01*
X0Y934D02*
X7Y934D01*
X2013Y934D02*
X2020Y934D01*
X0Y933D02*
X7Y933D01*
X2013Y933D02*
X2020Y933D01*
X0Y932D02*
X7Y932D01*
X2013Y932D02*
X2020Y932D01*
X0Y931D02*
X7Y931D01*
X2013Y931D02*
X2020Y931D01*
X0Y930D02*
X7Y930D01*
X2013Y930D02*
X2020Y930D01*
X0Y929D02*
X7Y929D01*
X2013Y929D02*
X2020Y929D01*
X0Y928D02*
X7Y928D01*
X2013Y928D02*
X2020Y928D01*
X0Y927D02*
X7Y927D01*
X2013Y927D02*
X2020Y927D01*
X0Y926D02*
X7Y926D01*
X2013Y926D02*
X2020Y926D01*
X0Y925D02*
X7Y925D01*
X2013Y925D02*
X2020Y925D01*
X0Y924D02*
X7Y924D01*
X2013Y924D02*
X2020Y924D01*
X0Y923D02*
X7Y923D01*
X2013Y923D02*
X2020Y923D01*
X0Y922D02*
X7Y922D01*
X2013Y922D02*
X2020Y922D01*
X0Y921D02*
X7Y921D01*
X2013Y921D02*
X2020Y921D01*
X0Y920D02*
X7Y920D01*
X2013Y920D02*
X2020Y920D01*
X0Y919D02*
X7Y919D01*
X2013Y919D02*
X2020Y919D01*
X0Y918D02*
X7Y918D01*
X2013Y918D02*
X2020Y918D01*
X0Y917D02*
X7Y917D01*
X2013Y917D02*
X2020Y917D01*
X0Y916D02*
X7Y916D01*
X2013Y916D02*
X2020Y916D01*
X0Y915D02*
X7Y915D01*
X2013Y915D02*
X2020Y915D01*
X0Y914D02*
X7Y914D01*
X2013Y914D02*
X2020Y914D01*
X0Y913D02*
X7Y913D01*
X2013Y913D02*
X2020Y913D01*
X0Y912D02*
X7Y912D01*
X2013Y912D02*
X2020Y912D01*
X0Y911D02*
X7Y911D01*
X2013Y911D02*
X2020Y911D01*
X0Y910D02*
X7Y910D01*
X2013Y910D02*
X2020Y910D01*
X0Y909D02*
X7Y909D01*
X2013Y909D02*
X2020Y909D01*
X0Y908D02*
X7Y908D01*
X2013Y908D02*
X2020Y908D01*
X0Y907D02*
X7Y907D01*
X2013Y907D02*
X2020Y907D01*
X0Y906D02*
X7Y906D01*
X2013Y906D02*
X2020Y906D01*
X0Y905D02*
X7Y905D01*
X2013Y905D02*
X2020Y905D01*
X0Y904D02*
X7Y904D01*
X2013Y904D02*
X2020Y904D01*
X0Y903D02*
X7Y903D01*
X2013Y903D02*
X2020Y903D01*
X0Y902D02*
X7Y902D01*
X2013Y902D02*
X2020Y902D01*
X0Y901D02*
X7Y901D01*
X2013Y901D02*
X2020Y901D01*
X0Y900D02*
X7Y900D01*
X2013Y900D02*
X2020Y900D01*
X0Y899D02*
X7Y899D01*
X2013Y899D02*
X2020Y899D01*
X0Y898D02*
X7Y898D01*
X2013Y898D02*
X2020Y898D01*
X0Y897D02*
X7Y897D01*
X2013Y897D02*
X2020Y897D01*
X0Y896D02*
X7Y896D01*
X2013Y896D02*
X2020Y896D01*
X0Y895D02*
X7Y895D01*
X2013Y895D02*
X2020Y895D01*
X0Y894D02*
X7Y894D01*
X2013Y894D02*
X2020Y894D01*
X0Y893D02*
X7Y893D01*
X2013Y893D02*
X2020Y893D01*
X0Y892D02*
X7Y892D01*
X2013Y892D02*
X2020Y892D01*
X0Y891D02*
X7Y891D01*
X2013Y891D02*
X2020Y891D01*
X0Y890D02*
X7Y890D01*
X2013Y890D02*
X2020Y890D01*
X0Y889D02*
X7Y889D01*
X2013Y889D02*
X2020Y889D01*
X0Y888D02*
X7Y888D01*
X2013Y888D02*
X2020Y888D01*
X0Y887D02*
X7Y887D01*
X2013Y887D02*
X2020Y887D01*
X0Y886D02*
X7Y886D01*
X2013Y886D02*
X2020Y886D01*
X0Y885D02*
X7Y885D01*
X2013Y885D02*
X2020Y885D01*
X0Y884D02*
X7Y884D01*
X2013Y884D02*
X2020Y884D01*
X0Y883D02*
X7Y883D01*
X2013Y883D02*
X2020Y883D01*
X0Y882D02*
X7Y882D01*
X2013Y882D02*
X2020Y882D01*
X0Y881D02*
X7Y881D01*
X2013Y881D02*
X2020Y881D01*
X0Y880D02*
X7Y880D01*
X2013Y880D02*
X2020Y880D01*
X0Y879D02*
X7Y879D01*
X2013Y879D02*
X2020Y879D01*
X0Y878D02*
X7Y878D01*
X2013Y878D02*
X2020Y878D01*
X0Y877D02*
X7Y877D01*
X2013Y877D02*
X2020Y877D01*
X0Y876D02*
X7Y876D01*
X2013Y876D02*
X2020Y876D01*
X0Y875D02*
X7Y875D01*
X2013Y875D02*
X2020Y875D01*
X0Y874D02*
X7Y874D01*
X2013Y874D02*
X2020Y874D01*
X0Y873D02*
X7Y873D01*
X2013Y873D02*
X2020Y873D01*
X0Y872D02*
X7Y872D01*
X2013Y872D02*
X2020Y872D01*
X0Y871D02*
X7Y871D01*
X2013Y871D02*
X2020Y871D01*
X0Y870D02*
X7Y870D01*
X2013Y870D02*
X2020Y870D01*
X0Y869D02*
X7Y869D01*
X2013Y869D02*
X2020Y869D01*
X0Y868D02*
X7Y868D01*
X2013Y868D02*
X2020Y868D01*
X0Y867D02*
X7Y867D01*
X2013Y867D02*
X2020Y867D01*
X0Y866D02*
X7Y866D01*
X2013Y866D02*
X2020Y866D01*
X0Y865D02*
X7Y865D01*
X2013Y865D02*
X2020Y865D01*
X0Y864D02*
X7Y864D01*
X2013Y864D02*
X2020Y864D01*
X0Y863D02*
X7Y863D01*
X2013Y863D02*
X2020Y863D01*
X0Y862D02*
X7Y862D01*
X2013Y862D02*
X2020Y862D01*
X0Y861D02*
X7Y861D01*
X2013Y861D02*
X2020Y861D01*
X0Y860D02*
X7Y860D01*
X2013Y860D02*
X2020Y860D01*
X0Y859D02*
X7Y859D01*
X2013Y859D02*
X2020Y859D01*
X0Y858D02*
X7Y858D01*
X2013Y858D02*
X2020Y858D01*
X0Y857D02*
X7Y857D01*
X2013Y857D02*
X2020Y857D01*
X0Y856D02*
X7Y856D01*
X2013Y856D02*
X2020Y856D01*
X0Y855D02*
X7Y855D01*
X2013Y855D02*
X2020Y855D01*
X0Y854D02*
X7Y854D01*
X2013Y854D02*
X2020Y854D01*
X0Y853D02*
X7Y853D01*
X2013Y853D02*
X2020Y853D01*
X0Y852D02*
X7Y852D01*
X2013Y852D02*
X2020Y852D01*
X0Y851D02*
X7Y851D01*
X2013Y851D02*
X2020Y851D01*
X0Y850D02*
X7Y850D01*
X2013Y850D02*
X2020Y850D01*
X0Y849D02*
X7Y849D01*
X2013Y849D02*
X2020Y849D01*
X0Y848D02*
X7Y848D01*
X2013Y848D02*
X2020Y848D01*
X0Y847D02*
X7Y847D01*
X2013Y847D02*
X2020Y847D01*
X0Y846D02*
X7Y846D01*
X2013Y846D02*
X2020Y846D01*
X0Y845D02*
X7Y845D01*
X2013Y845D02*
X2020Y845D01*
X0Y844D02*
X7Y844D01*
X2013Y844D02*
X2020Y844D01*
X0Y843D02*
X7Y843D01*
X2013Y843D02*
X2020Y843D01*
X0Y842D02*
X7Y842D01*
X2013Y842D02*
X2020Y842D01*
X0Y841D02*
X7Y841D01*
X2013Y841D02*
X2020Y841D01*
X0Y840D02*
X7Y840D01*
X2013Y840D02*
X2020Y840D01*
X0Y839D02*
X7Y839D01*
X2013Y839D02*
X2020Y839D01*
X0Y838D02*
X7Y838D01*
X2013Y838D02*
X2020Y838D01*
X0Y837D02*
X7Y837D01*
X2013Y837D02*
X2020Y837D01*
X0Y836D02*
X7Y836D01*
X2013Y836D02*
X2020Y836D01*
X0Y835D02*
X7Y835D01*
X2013Y835D02*
X2020Y835D01*
X0Y834D02*
X7Y834D01*
X2013Y834D02*
X2020Y834D01*
X0Y833D02*
X7Y833D01*
X2013Y833D02*
X2020Y833D01*
X0Y832D02*
X7Y832D01*
X2013Y832D02*
X2020Y832D01*
X0Y831D02*
X7Y831D01*
X2013Y831D02*
X2020Y831D01*
X0Y830D02*
X7Y830D01*
X2013Y830D02*
X2020Y830D01*
X0Y829D02*
X7Y829D01*
X2013Y829D02*
X2020Y829D01*
X0Y828D02*
X7Y828D01*
X2013Y828D02*
X2020Y828D01*
X0Y827D02*
X7Y827D01*
X2013Y827D02*
X2020Y827D01*
X0Y826D02*
X7Y826D01*
X2013Y826D02*
X2020Y826D01*
X0Y825D02*
X7Y825D01*
X2013Y825D02*
X2020Y825D01*
X0Y824D02*
X7Y824D01*
X16Y824D02*
X715Y824D01*
X2013Y824D02*
X2020Y824D01*
X0Y823D02*
X7Y823D01*
X16Y823D02*
X715Y823D01*
X2013Y823D02*
X2020Y823D01*
X0Y822D02*
X7Y822D01*
X16Y822D02*
X715Y822D01*
X2013Y822D02*
X2020Y822D01*
X0Y821D02*
X7Y821D01*
X16Y821D02*
X715Y821D01*
X2013Y821D02*
X2020Y821D01*
X0Y820D02*
X7Y820D01*
X16Y820D02*
X715Y820D01*
X2013Y820D02*
X2020Y820D01*
X0Y819D02*
X7Y819D01*
X16Y819D02*
X715Y819D01*
X2013Y819D02*
X2020Y819D01*
X0Y818D02*
X7Y818D01*
X16Y818D02*
X715Y818D01*
X2013Y818D02*
X2020Y818D01*
X0Y817D02*
X7Y817D01*
X16Y817D02*
X715Y817D01*
X2013Y817D02*
X2020Y817D01*
X0Y816D02*
X7Y816D01*
X16Y816D02*
X23Y816D01*
X708Y816D02*
X715Y816D01*
X2013Y816D02*
X2020Y816D01*
X0Y815D02*
X7Y815D01*
X16Y815D02*
X23Y815D01*
X708Y815D02*
X715Y815D01*
X2013Y815D02*
X2020Y815D01*
X0Y814D02*
X7Y814D01*
X16Y814D02*
X23Y814D01*
X708Y814D02*
X715Y814D01*
X2013Y814D02*
X2020Y814D01*
X0Y813D02*
X7Y813D01*
X16Y813D02*
X23Y813D01*
X708Y813D02*
X715Y813D01*
X2013Y813D02*
X2020Y813D01*
X0Y812D02*
X7Y812D01*
X16Y812D02*
X23Y812D01*
X708Y812D02*
X715Y812D01*
X2013Y812D02*
X2020Y812D01*
X0Y811D02*
X7Y811D01*
X16Y811D02*
X23Y811D01*
X708Y811D02*
X715Y811D01*
X2013Y811D02*
X2020Y811D01*
X0Y810D02*
X7Y810D01*
X16Y810D02*
X23Y810D01*
X708Y810D02*
X715Y810D01*
X2013Y810D02*
X2020Y810D01*
X0Y809D02*
X7Y809D01*
X16Y809D02*
X23Y809D01*
X708Y809D02*
X715Y809D01*
X2013Y809D02*
X2020Y809D01*
X0Y808D02*
X7Y808D01*
X16Y808D02*
X23Y808D01*
X708Y808D02*
X715Y808D01*
X2013Y808D02*
X2020Y808D01*
X0Y807D02*
X7Y807D01*
X16Y807D02*
X23Y807D01*
X708Y807D02*
X715Y807D01*
X2013Y807D02*
X2020Y807D01*
X0Y806D02*
X7Y806D01*
X16Y806D02*
X23Y806D01*
X708Y806D02*
X715Y806D01*
X2013Y806D02*
X2020Y806D01*
X0Y805D02*
X7Y805D01*
X16Y805D02*
X23Y805D01*
X708Y805D02*
X715Y805D01*
X2013Y805D02*
X2020Y805D01*
X0Y804D02*
X7Y804D01*
X16Y804D02*
X23Y804D01*
X708Y804D02*
X715Y804D01*
X2013Y804D02*
X2020Y804D01*
X0Y803D02*
X7Y803D01*
X16Y803D02*
X23Y803D01*
X708Y803D02*
X715Y803D01*
X2013Y803D02*
X2020Y803D01*
X0Y802D02*
X7Y802D01*
X16Y802D02*
X23Y802D01*
X708Y802D02*
X715Y802D01*
X2013Y802D02*
X2020Y802D01*
X0Y801D02*
X7Y801D01*
X16Y801D02*
X23Y801D01*
X708Y801D02*
X715Y801D01*
X2013Y801D02*
X2020Y801D01*
X0Y800D02*
X7Y800D01*
X16Y800D02*
X23Y800D01*
X708Y800D02*
X715Y800D01*
X2013Y800D02*
X2020Y800D01*
X0Y799D02*
X7Y799D01*
X16Y799D02*
X23Y799D01*
X708Y799D02*
X715Y799D01*
X2013Y799D02*
X2020Y799D01*
X0Y798D02*
X7Y798D01*
X16Y798D02*
X23Y798D01*
X708Y798D02*
X715Y798D01*
X2013Y798D02*
X2020Y798D01*
X0Y797D02*
X7Y797D01*
X16Y797D02*
X23Y797D01*
X708Y797D02*
X715Y797D01*
X2013Y797D02*
X2020Y797D01*
X0Y796D02*
X7Y796D01*
X16Y796D02*
X23Y796D01*
X708Y796D02*
X715Y796D01*
X2013Y796D02*
X2020Y796D01*
X0Y795D02*
X7Y795D01*
X16Y795D02*
X23Y795D01*
X708Y795D02*
X715Y795D01*
X2013Y795D02*
X2020Y795D01*
X0Y794D02*
X7Y794D01*
X16Y794D02*
X23Y794D01*
X708Y794D02*
X715Y794D01*
X2013Y794D02*
X2020Y794D01*
X0Y793D02*
X7Y793D01*
X16Y793D02*
X23Y793D01*
X708Y793D02*
X715Y793D01*
X2013Y793D02*
X2020Y793D01*
X0Y792D02*
X7Y792D01*
X16Y792D02*
X23Y792D01*
X708Y792D02*
X715Y792D01*
X2013Y792D02*
X2020Y792D01*
X0Y791D02*
X7Y791D01*
X16Y791D02*
X23Y791D01*
X708Y791D02*
X715Y791D01*
X2013Y791D02*
X2020Y791D01*
X0Y790D02*
X7Y790D01*
X16Y790D02*
X23Y790D01*
X708Y790D02*
X715Y790D01*
X2013Y790D02*
X2020Y790D01*
X0Y789D02*
X7Y789D01*
X16Y789D02*
X23Y789D01*
X708Y789D02*
X715Y789D01*
X2013Y789D02*
X2020Y789D01*
X0Y788D02*
X7Y788D01*
X16Y788D02*
X23Y788D01*
X708Y788D02*
X715Y788D01*
X2013Y788D02*
X2020Y788D01*
X0Y787D02*
X7Y787D01*
X16Y787D02*
X23Y787D01*
X708Y787D02*
X715Y787D01*
X2013Y787D02*
X2020Y787D01*
X0Y786D02*
X7Y786D01*
X16Y786D02*
X23Y786D01*
X708Y786D02*
X715Y786D01*
X2013Y786D02*
X2020Y786D01*
X0Y785D02*
X7Y785D01*
X16Y785D02*
X23Y785D01*
X708Y785D02*
X715Y785D01*
X2013Y785D02*
X2020Y785D01*
X0Y784D02*
X7Y784D01*
X16Y784D02*
X23Y784D01*
X708Y784D02*
X715Y784D01*
X2013Y784D02*
X2020Y784D01*
X0Y783D02*
X7Y783D01*
X16Y783D02*
X23Y783D01*
X708Y783D02*
X715Y783D01*
X2013Y783D02*
X2020Y783D01*
X0Y782D02*
X7Y782D01*
X16Y782D02*
X23Y782D01*
X708Y782D02*
X715Y782D01*
X2013Y782D02*
X2020Y782D01*
X0Y781D02*
X7Y781D01*
X16Y781D02*
X23Y781D01*
X708Y781D02*
X715Y781D01*
X2013Y781D02*
X2020Y781D01*
X0Y780D02*
X7Y780D01*
X16Y780D02*
X23Y780D01*
X708Y780D02*
X715Y780D01*
X2013Y780D02*
X2020Y780D01*
X0Y779D02*
X7Y779D01*
X16Y779D02*
X23Y779D01*
X708Y779D02*
X715Y779D01*
X2013Y779D02*
X2020Y779D01*
X0Y778D02*
X7Y778D01*
X16Y778D02*
X23Y778D01*
X708Y778D02*
X715Y778D01*
X2013Y778D02*
X2020Y778D01*
X0Y777D02*
X7Y777D01*
X16Y777D02*
X23Y777D01*
X708Y777D02*
X715Y777D01*
X2013Y777D02*
X2020Y777D01*
X0Y776D02*
X7Y776D01*
X16Y776D02*
X23Y776D01*
X708Y776D02*
X715Y776D01*
X2013Y776D02*
X2020Y776D01*
X0Y775D02*
X7Y775D01*
X16Y775D02*
X23Y775D01*
X708Y775D02*
X715Y775D01*
X2013Y775D02*
X2020Y775D01*
X0Y774D02*
X7Y774D01*
X16Y774D02*
X23Y774D01*
X708Y774D02*
X715Y774D01*
X2013Y774D02*
X2020Y774D01*
X0Y773D02*
X7Y773D01*
X16Y773D02*
X23Y773D01*
X708Y773D02*
X715Y773D01*
X2013Y773D02*
X2020Y773D01*
X0Y772D02*
X7Y772D01*
X16Y772D02*
X23Y772D01*
X708Y772D02*
X715Y772D01*
X2013Y772D02*
X2020Y772D01*
X0Y771D02*
X7Y771D01*
X16Y771D02*
X23Y771D01*
X708Y771D02*
X715Y771D01*
X2013Y771D02*
X2020Y771D01*
X0Y770D02*
X7Y770D01*
X16Y770D02*
X23Y770D01*
X708Y770D02*
X715Y770D01*
X2013Y770D02*
X2020Y770D01*
X0Y769D02*
X7Y769D01*
X16Y769D02*
X23Y769D01*
X708Y769D02*
X715Y769D01*
X2013Y769D02*
X2020Y769D01*
X0Y768D02*
X7Y768D01*
X16Y768D02*
X23Y768D01*
X708Y768D02*
X715Y768D01*
X2013Y768D02*
X2020Y768D01*
X0Y767D02*
X7Y767D01*
X16Y767D02*
X23Y767D01*
X708Y767D02*
X715Y767D01*
X2013Y767D02*
X2020Y767D01*
X0Y766D02*
X7Y766D01*
X16Y766D02*
X23Y766D01*
X708Y766D02*
X715Y766D01*
X2013Y766D02*
X2020Y766D01*
X0Y765D02*
X7Y765D01*
X16Y765D02*
X23Y765D01*
X708Y765D02*
X715Y765D01*
X2013Y765D02*
X2020Y765D01*
X0Y764D02*
X7Y764D01*
X16Y764D02*
X23Y764D01*
X708Y764D02*
X715Y764D01*
X2013Y764D02*
X2020Y764D01*
X0Y763D02*
X7Y763D01*
X16Y763D02*
X23Y763D01*
X708Y763D02*
X715Y763D01*
X2013Y763D02*
X2020Y763D01*
X0Y762D02*
X7Y762D01*
X16Y762D02*
X23Y762D01*
X708Y762D02*
X715Y762D01*
X2013Y762D02*
X2020Y762D01*
X0Y761D02*
X7Y761D01*
X16Y761D02*
X23Y761D01*
X708Y761D02*
X715Y761D01*
X2013Y761D02*
X2020Y761D01*
X0Y760D02*
X7Y760D01*
X16Y760D02*
X23Y760D01*
X708Y760D02*
X715Y760D01*
X2013Y760D02*
X2020Y760D01*
X0Y759D02*
X7Y759D01*
X16Y759D02*
X23Y759D01*
X708Y759D02*
X715Y759D01*
X2013Y759D02*
X2020Y759D01*
X0Y758D02*
X7Y758D01*
X16Y758D02*
X23Y758D01*
X708Y758D02*
X715Y758D01*
X2013Y758D02*
X2020Y758D01*
X0Y757D02*
X7Y757D01*
X16Y757D02*
X23Y757D01*
X708Y757D02*
X715Y757D01*
X2013Y757D02*
X2020Y757D01*
X0Y756D02*
X7Y756D01*
X16Y756D02*
X23Y756D01*
X708Y756D02*
X715Y756D01*
X2013Y756D02*
X2020Y756D01*
X0Y755D02*
X7Y755D01*
X16Y755D02*
X23Y755D01*
X708Y755D02*
X715Y755D01*
X2013Y755D02*
X2020Y755D01*
X0Y754D02*
X7Y754D01*
X16Y754D02*
X23Y754D01*
X708Y754D02*
X715Y754D01*
X2013Y754D02*
X2020Y754D01*
X0Y753D02*
X7Y753D01*
X16Y753D02*
X23Y753D01*
X708Y753D02*
X715Y753D01*
X2013Y753D02*
X2020Y753D01*
X0Y752D02*
X7Y752D01*
X16Y752D02*
X23Y752D01*
X708Y752D02*
X715Y752D01*
X2013Y752D02*
X2020Y752D01*
X0Y751D02*
X7Y751D01*
X16Y751D02*
X23Y751D01*
X708Y751D02*
X715Y751D01*
X2013Y751D02*
X2020Y751D01*
X0Y750D02*
X7Y750D01*
X16Y750D02*
X23Y750D01*
X708Y750D02*
X715Y750D01*
X2013Y750D02*
X2020Y750D01*
X0Y749D02*
X7Y749D01*
X16Y749D02*
X23Y749D01*
X708Y749D02*
X715Y749D01*
X2013Y749D02*
X2020Y749D01*
X0Y748D02*
X7Y748D01*
X16Y748D02*
X23Y748D01*
X708Y748D02*
X715Y748D01*
X2013Y748D02*
X2020Y748D01*
X0Y747D02*
X7Y747D01*
X16Y747D02*
X23Y747D01*
X708Y747D02*
X715Y747D01*
X2013Y747D02*
X2020Y747D01*
X0Y746D02*
X7Y746D01*
X16Y746D02*
X23Y746D01*
X708Y746D02*
X715Y746D01*
X2013Y746D02*
X2020Y746D01*
X0Y745D02*
X7Y745D01*
X16Y745D02*
X23Y745D01*
X708Y745D02*
X715Y745D01*
X2013Y745D02*
X2020Y745D01*
X0Y744D02*
X7Y744D01*
X16Y744D02*
X23Y744D01*
X708Y744D02*
X715Y744D01*
X2013Y744D02*
X2020Y744D01*
X0Y743D02*
X7Y743D01*
X16Y743D02*
X23Y743D01*
X708Y743D02*
X715Y743D01*
X2013Y743D02*
X2020Y743D01*
X0Y742D02*
X7Y742D01*
X16Y742D02*
X23Y742D01*
X708Y742D02*
X715Y742D01*
X2013Y742D02*
X2020Y742D01*
X0Y741D02*
X7Y741D01*
X16Y741D02*
X23Y741D01*
X708Y741D02*
X715Y741D01*
X2013Y741D02*
X2020Y741D01*
X0Y740D02*
X7Y740D01*
X16Y740D02*
X23Y740D01*
X708Y740D02*
X715Y740D01*
X2013Y740D02*
X2020Y740D01*
X0Y739D02*
X7Y739D01*
X16Y739D02*
X23Y739D01*
X708Y739D02*
X715Y739D01*
X2013Y739D02*
X2020Y739D01*
X0Y738D02*
X7Y738D01*
X16Y738D02*
X23Y738D01*
X708Y738D02*
X715Y738D01*
X2013Y738D02*
X2020Y738D01*
X0Y737D02*
X7Y737D01*
X16Y737D02*
X23Y737D01*
X708Y737D02*
X715Y737D01*
X2013Y737D02*
X2020Y737D01*
X0Y736D02*
X7Y736D01*
X16Y736D02*
X23Y736D01*
X708Y736D02*
X715Y736D01*
X2013Y736D02*
X2020Y736D01*
X0Y735D02*
X7Y735D01*
X16Y735D02*
X23Y735D01*
X708Y735D02*
X715Y735D01*
X2013Y735D02*
X2020Y735D01*
X0Y734D02*
X7Y734D01*
X16Y734D02*
X23Y734D01*
X708Y734D02*
X715Y734D01*
X2013Y734D02*
X2020Y734D01*
X0Y733D02*
X7Y733D01*
X16Y733D02*
X23Y733D01*
X708Y733D02*
X715Y733D01*
X2013Y733D02*
X2020Y733D01*
X0Y732D02*
X7Y732D01*
X16Y732D02*
X23Y732D01*
X708Y732D02*
X715Y732D01*
X2013Y732D02*
X2020Y732D01*
X0Y731D02*
X7Y731D01*
X16Y731D02*
X23Y731D01*
X708Y731D02*
X715Y731D01*
X2013Y731D02*
X2020Y731D01*
X0Y730D02*
X7Y730D01*
X16Y730D02*
X23Y730D01*
X708Y730D02*
X715Y730D01*
X2013Y730D02*
X2020Y730D01*
X0Y729D02*
X7Y729D01*
X16Y729D02*
X23Y729D01*
X708Y729D02*
X715Y729D01*
X2013Y729D02*
X2020Y729D01*
X0Y728D02*
X7Y728D01*
X16Y728D02*
X23Y728D01*
X708Y728D02*
X715Y728D01*
X2013Y728D02*
X2020Y728D01*
X0Y727D02*
X7Y727D01*
X16Y727D02*
X23Y727D01*
X708Y727D02*
X715Y727D01*
X2013Y727D02*
X2020Y727D01*
X0Y726D02*
X7Y726D01*
X16Y726D02*
X23Y726D01*
X708Y726D02*
X715Y726D01*
X2013Y726D02*
X2020Y726D01*
X0Y725D02*
X7Y725D01*
X16Y725D02*
X23Y725D01*
X708Y725D02*
X715Y725D01*
X2013Y725D02*
X2020Y725D01*
X0Y724D02*
X7Y724D01*
X16Y724D02*
X23Y724D01*
X708Y724D02*
X715Y724D01*
X2013Y724D02*
X2020Y724D01*
X0Y723D02*
X7Y723D01*
X16Y723D02*
X23Y723D01*
X708Y723D02*
X715Y723D01*
X2013Y723D02*
X2020Y723D01*
X0Y722D02*
X7Y722D01*
X16Y722D02*
X23Y722D01*
X708Y722D02*
X715Y722D01*
X2013Y722D02*
X2020Y722D01*
X0Y721D02*
X7Y721D01*
X16Y721D02*
X23Y721D01*
X708Y721D02*
X715Y721D01*
X2013Y721D02*
X2020Y721D01*
X0Y720D02*
X7Y720D01*
X16Y720D02*
X23Y720D01*
X708Y720D02*
X715Y720D01*
X2013Y720D02*
X2020Y720D01*
X0Y719D02*
X7Y719D01*
X16Y719D02*
X23Y719D01*
X708Y719D02*
X715Y719D01*
X2013Y719D02*
X2020Y719D01*
X0Y718D02*
X7Y718D01*
X16Y718D02*
X23Y718D01*
X708Y718D02*
X715Y718D01*
X2013Y718D02*
X2020Y718D01*
X0Y717D02*
X7Y717D01*
X16Y717D02*
X23Y717D01*
X708Y717D02*
X715Y717D01*
X2013Y717D02*
X2020Y717D01*
X0Y716D02*
X7Y716D01*
X16Y716D02*
X23Y716D01*
X708Y716D02*
X715Y716D01*
X2013Y716D02*
X2020Y716D01*
X0Y715D02*
X7Y715D01*
X16Y715D02*
X23Y715D01*
X708Y715D02*
X715Y715D01*
X2013Y715D02*
X2020Y715D01*
X0Y714D02*
X7Y714D01*
X16Y714D02*
X23Y714D01*
X708Y714D02*
X715Y714D01*
X2013Y714D02*
X2020Y714D01*
X0Y713D02*
X7Y713D01*
X16Y713D02*
X23Y713D01*
X708Y713D02*
X715Y713D01*
X2013Y713D02*
X2020Y713D01*
X0Y712D02*
X7Y712D01*
X16Y712D02*
X23Y712D01*
X708Y712D02*
X715Y712D01*
X2013Y712D02*
X2020Y712D01*
X0Y711D02*
X7Y711D01*
X16Y711D02*
X23Y711D01*
X708Y711D02*
X715Y711D01*
X2013Y711D02*
X2020Y711D01*
X0Y710D02*
X7Y710D01*
X16Y710D02*
X23Y710D01*
X708Y710D02*
X715Y710D01*
X2013Y710D02*
X2020Y710D01*
X0Y709D02*
X7Y709D01*
X16Y709D02*
X23Y709D01*
X708Y709D02*
X715Y709D01*
X2013Y709D02*
X2020Y709D01*
X0Y708D02*
X7Y708D01*
X16Y708D02*
X23Y708D01*
X708Y708D02*
X715Y708D01*
X2013Y708D02*
X2020Y708D01*
X0Y707D02*
X7Y707D01*
X16Y707D02*
X23Y707D01*
X708Y707D02*
X715Y707D01*
X2013Y707D02*
X2020Y707D01*
X0Y706D02*
X7Y706D01*
X16Y706D02*
X23Y706D01*
X708Y706D02*
X715Y706D01*
X2013Y706D02*
X2020Y706D01*
X0Y705D02*
X7Y705D01*
X16Y705D02*
X23Y705D01*
X708Y705D02*
X715Y705D01*
X2013Y705D02*
X2020Y705D01*
X0Y704D02*
X7Y704D01*
X16Y704D02*
X23Y704D01*
X708Y704D02*
X715Y704D01*
X2013Y704D02*
X2020Y704D01*
X0Y703D02*
X7Y703D01*
X16Y703D02*
X23Y703D01*
X708Y703D02*
X715Y703D01*
X2013Y703D02*
X2020Y703D01*
X0Y702D02*
X7Y702D01*
X16Y702D02*
X23Y702D01*
X708Y702D02*
X715Y702D01*
X2013Y702D02*
X2020Y702D01*
X0Y701D02*
X7Y701D01*
X16Y701D02*
X23Y701D01*
X708Y701D02*
X715Y701D01*
X2013Y701D02*
X2020Y701D01*
X0Y700D02*
X7Y700D01*
X16Y700D02*
X23Y700D01*
X708Y700D02*
X715Y700D01*
X2013Y700D02*
X2020Y700D01*
X0Y699D02*
X7Y699D01*
X16Y699D02*
X23Y699D01*
X708Y699D02*
X715Y699D01*
X2013Y699D02*
X2020Y699D01*
X0Y698D02*
X7Y698D01*
X16Y698D02*
X23Y698D01*
X708Y698D02*
X715Y698D01*
X2013Y698D02*
X2020Y698D01*
X0Y697D02*
X7Y697D01*
X16Y697D02*
X23Y697D01*
X708Y697D02*
X715Y697D01*
X2013Y697D02*
X2020Y697D01*
X0Y696D02*
X7Y696D01*
X16Y696D02*
X23Y696D01*
X708Y696D02*
X715Y696D01*
X2013Y696D02*
X2020Y696D01*
X0Y695D02*
X7Y695D01*
X16Y695D02*
X23Y695D01*
X708Y695D02*
X715Y695D01*
X2013Y695D02*
X2020Y695D01*
X0Y694D02*
X7Y694D01*
X16Y694D02*
X23Y694D01*
X708Y694D02*
X715Y694D01*
X2013Y694D02*
X2020Y694D01*
X0Y693D02*
X7Y693D01*
X16Y693D02*
X23Y693D01*
X708Y693D02*
X715Y693D01*
X2013Y693D02*
X2020Y693D01*
X0Y692D02*
X7Y692D01*
X16Y692D02*
X23Y692D01*
X708Y692D02*
X715Y692D01*
X2013Y692D02*
X2020Y692D01*
X0Y691D02*
X7Y691D01*
X16Y691D02*
X23Y691D01*
X708Y691D02*
X715Y691D01*
X2013Y691D02*
X2020Y691D01*
X0Y690D02*
X7Y690D01*
X16Y690D02*
X23Y690D01*
X708Y690D02*
X715Y690D01*
X2013Y690D02*
X2020Y690D01*
X0Y689D02*
X7Y689D01*
X16Y689D02*
X23Y689D01*
X708Y689D02*
X715Y689D01*
X2013Y689D02*
X2020Y689D01*
X0Y688D02*
X7Y688D01*
X16Y688D02*
X23Y688D01*
X708Y688D02*
X715Y688D01*
X2013Y688D02*
X2020Y688D01*
X0Y687D02*
X7Y687D01*
X16Y687D02*
X23Y687D01*
X708Y687D02*
X715Y687D01*
X2013Y687D02*
X2020Y687D01*
X0Y686D02*
X7Y686D01*
X16Y686D02*
X23Y686D01*
X708Y686D02*
X715Y686D01*
X2013Y686D02*
X2020Y686D01*
X0Y685D02*
X7Y685D01*
X16Y685D02*
X23Y685D01*
X708Y685D02*
X715Y685D01*
X2013Y685D02*
X2020Y685D01*
X0Y684D02*
X7Y684D01*
X16Y684D02*
X23Y684D01*
X708Y684D02*
X715Y684D01*
X2013Y684D02*
X2020Y684D01*
X0Y683D02*
X7Y683D01*
X16Y683D02*
X23Y683D01*
X708Y683D02*
X715Y683D01*
X2013Y683D02*
X2020Y683D01*
X0Y682D02*
X7Y682D01*
X16Y682D02*
X23Y682D01*
X708Y682D02*
X715Y682D01*
X2013Y682D02*
X2020Y682D01*
X0Y681D02*
X7Y681D01*
X16Y681D02*
X23Y681D01*
X708Y681D02*
X715Y681D01*
X2013Y681D02*
X2020Y681D01*
X0Y680D02*
X7Y680D01*
X16Y680D02*
X23Y680D01*
X708Y680D02*
X715Y680D01*
X2013Y680D02*
X2020Y680D01*
X0Y679D02*
X7Y679D01*
X16Y679D02*
X23Y679D01*
X708Y679D02*
X715Y679D01*
X2013Y679D02*
X2020Y679D01*
X0Y678D02*
X7Y678D01*
X16Y678D02*
X23Y678D01*
X708Y678D02*
X715Y678D01*
X2013Y678D02*
X2020Y678D01*
X0Y677D02*
X7Y677D01*
X16Y677D02*
X23Y677D01*
X708Y677D02*
X715Y677D01*
X2013Y677D02*
X2020Y677D01*
X0Y676D02*
X7Y676D01*
X16Y676D02*
X23Y676D01*
X708Y676D02*
X715Y676D01*
X2013Y676D02*
X2020Y676D01*
X0Y675D02*
X7Y675D01*
X16Y675D02*
X23Y675D01*
X708Y675D02*
X715Y675D01*
X2013Y675D02*
X2020Y675D01*
X0Y674D02*
X7Y674D01*
X16Y674D02*
X23Y674D01*
X708Y674D02*
X715Y674D01*
X2013Y674D02*
X2020Y674D01*
X0Y673D02*
X7Y673D01*
X16Y673D02*
X23Y673D01*
X708Y673D02*
X715Y673D01*
X2013Y673D02*
X2020Y673D01*
X0Y672D02*
X7Y672D01*
X16Y672D02*
X23Y672D01*
X708Y672D02*
X715Y672D01*
X2013Y672D02*
X2020Y672D01*
X0Y671D02*
X7Y671D01*
X16Y671D02*
X23Y671D01*
X708Y671D02*
X715Y671D01*
X2013Y671D02*
X2020Y671D01*
X0Y670D02*
X7Y670D01*
X16Y670D02*
X23Y670D01*
X708Y670D02*
X715Y670D01*
X2013Y670D02*
X2020Y670D01*
X0Y669D02*
X7Y669D01*
X16Y669D02*
X23Y669D01*
X708Y669D02*
X715Y669D01*
X2013Y669D02*
X2020Y669D01*
X0Y668D02*
X7Y668D01*
X16Y668D02*
X23Y668D01*
X708Y668D02*
X715Y668D01*
X2013Y668D02*
X2020Y668D01*
X0Y667D02*
X7Y667D01*
X16Y667D02*
X23Y667D01*
X708Y667D02*
X715Y667D01*
X2013Y667D02*
X2020Y667D01*
X0Y666D02*
X7Y666D01*
X16Y666D02*
X23Y666D01*
X708Y666D02*
X715Y666D01*
X2013Y666D02*
X2020Y666D01*
X0Y665D02*
X7Y665D01*
X16Y665D02*
X23Y665D01*
X708Y665D02*
X715Y665D01*
X2013Y665D02*
X2020Y665D01*
X0Y664D02*
X7Y664D01*
X16Y664D02*
X23Y664D01*
X708Y664D02*
X715Y664D01*
X2013Y664D02*
X2020Y664D01*
X0Y663D02*
X7Y663D01*
X16Y663D02*
X23Y663D01*
X708Y663D02*
X715Y663D01*
X2013Y663D02*
X2020Y663D01*
X0Y662D02*
X7Y662D01*
X16Y662D02*
X23Y662D01*
X708Y662D02*
X715Y662D01*
X2013Y662D02*
X2020Y662D01*
X0Y661D02*
X7Y661D01*
X16Y661D02*
X23Y661D01*
X708Y661D02*
X715Y661D01*
X2013Y661D02*
X2020Y661D01*
X0Y660D02*
X7Y660D01*
X16Y660D02*
X23Y660D01*
X708Y660D02*
X715Y660D01*
X2013Y660D02*
X2020Y660D01*
X0Y659D02*
X7Y659D01*
X16Y659D02*
X23Y659D01*
X708Y659D02*
X715Y659D01*
X2013Y659D02*
X2020Y659D01*
X0Y658D02*
X7Y658D01*
X16Y658D02*
X23Y658D01*
X708Y658D02*
X715Y658D01*
X2013Y658D02*
X2020Y658D01*
X0Y657D02*
X7Y657D01*
X16Y657D02*
X23Y657D01*
X708Y657D02*
X715Y657D01*
X2013Y657D02*
X2020Y657D01*
X0Y656D02*
X7Y656D01*
X16Y656D02*
X23Y656D01*
X708Y656D02*
X715Y656D01*
X2013Y656D02*
X2020Y656D01*
X0Y655D02*
X7Y655D01*
X16Y655D02*
X23Y655D01*
X708Y655D02*
X715Y655D01*
X2013Y655D02*
X2020Y655D01*
X0Y654D02*
X7Y654D01*
X16Y654D02*
X23Y654D01*
X708Y654D02*
X715Y654D01*
X2013Y654D02*
X2020Y654D01*
X0Y653D02*
X7Y653D01*
X16Y653D02*
X23Y653D01*
X708Y653D02*
X715Y653D01*
X2013Y653D02*
X2020Y653D01*
X0Y652D02*
X7Y652D01*
X16Y652D02*
X23Y652D01*
X708Y652D02*
X715Y652D01*
X2013Y652D02*
X2020Y652D01*
X0Y651D02*
X7Y651D01*
X16Y651D02*
X23Y651D01*
X708Y651D02*
X715Y651D01*
X2013Y651D02*
X2020Y651D01*
X0Y650D02*
X7Y650D01*
X16Y650D02*
X23Y650D01*
X708Y650D02*
X715Y650D01*
X2013Y650D02*
X2020Y650D01*
X0Y649D02*
X7Y649D01*
X16Y649D02*
X23Y649D01*
X708Y649D02*
X715Y649D01*
X2013Y649D02*
X2020Y649D01*
X0Y648D02*
X7Y648D01*
X16Y648D02*
X23Y648D01*
X708Y648D02*
X715Y648D01*
X2013Y648D02*
X2020Y648D01*
X0Y647D02*
X7Y647D01*
X16Y647D02*
X23Y647D01*
X708Y647D02*
X715Y647D01*
X2013Y647D02*
X2020Y647D01*
X0Y646D02*
X7Y646D01*
X16Y646D02*
X23Y646D01*
X708Y646D02*
X715Y646D01*
X2013Y646D02*
X2020Y646D01*
X0Y645D02*
X7Y645D01*
X16Y645D02*
X23Y645D01*
X708Y645D02*
X715Y645D01*
X2013Y645D02*
X2020Y645D01*
X0Y644D02*
X7Y644D01*
X16Y644D02*
X23Y644D01*
X708Y644D02*
X715Y644D01*
X2013Y644D02*
X2020Y644D01*
X0Y643D02*
X7Y643D01*
X16Y643D02*
X23Y643D01*
X708Y643D02*
X715Y643D01*
X2013Y643D02*
X2020Y643D01*
X0Y642D02*
X7Y642D01*
X16Y642D02*
X23Y642D01*
X708Y642D02*
X715Y642D01*
X2013Y642D02*
X2020Y642D01*
X0Y641D02*
X7Y641D01*
X16Y641D02*
X23Y641D01*
X708Y641D02*
X715Y641D01*
X2013Y641D02*
X2020Y641D01*
X0Y640D02*
X7Y640D01*
X16Y640D02*
X23Y640D01*
X708Y640D02*
X715Y640D01*
X2013Y640D02*
X2020Y640D01*
X0Y639D02*
X7Y639D01*
X16Y639D02*
X23Y639D01*
X708Y639D02*
X715Y639D01*
X2013Y639D02*
X2020Y639D01*
X0Y638D02*
X7Y638D01*
X16Y638D02*
X23Y638D01*
X708Y638D02*
X715Y638D01*
X2013Y638D02*
X2020Y638D01*
X0Y637D02*
X7Y637D01*
X16Y637D02*
X23Y637D01*
X708Y637D02*
X715Y637D01*
X2013Y637D02*
X2020Y637D01*
X0Y636D02*
X7Y636D01*
X16Y636D02*
X23Y636D01*
X708Y636D02*
X715Y636D01*
X2013Y636D02*
X2020Y636D01*
X0Y635D02*
X7Y635D01*
X16Y635D02*
X23Y635D01*
X708Y635D02*
X715Y635D01*
X2013Y635D02*
X2020Y635D01*
X0Y634D02*
X7Y634D01*
X16Y634D02*
X23Y634D01*
X708Y634D02*
X715Y634D01*
X2013Y634D02*
X2020Y634D01*
X0Y633D02*
X7Y633D01*
X16Y633D02*
X23Y633D01*
X708Y633D02*
X715Y633D01*
X2013Y633D02*
X2020Y633D01*
X0Y632D02*
X7Y632D01*
X16Y632D02*
X23Y632D01*
X708Y632D02*
X715Y632D01*
X2013Y632D02*
X2020Y632D01*
X0Y631D02*
X7Y631D01*
X16Y631D02*
X23Y631D01*
X708Y631D02*
X715Y631D01*
X2013Y631D02*
X2020Y631D01*
X0Y630D02*
X7Y630D01*
X16Y630D02*
X23Y630D01*
X708Y630D02*
X715Y630D01*
X2013Y630D02*
X2020Y630D01*
X0Y629D02*
X7Y629D01*
X16Y629D02*
X23Y629D01*
X708Y629D02*
X715Y629D01*
X2013Y629D02*
X2020Y629D01*
X0Y628D02*
X7Y628D01*
X16Y628D02*
X23Y628D01*
X708Y628D02*
X715Y628D01*
X2013Y628D02*
X2020Y628D01*
X0Y627D02*
X7Y627D01*
X16Y627D02*
X23Y627D01*
X708Y627D02*
X715Y627D01*
X2013Y627D02*
X2020Y627D01*
X0Y626D02*
X7Y626D01*
X16Y626D02*
X23Y626D01*
X708Y626D02*
X715Y626D01*
X2013Y626D02*
X2020Y626D01*
X0Y625D02*
X7Y625D01*
X16Y625D02*
X23Y625D01*
X708Y625D02*
X715Y625D01*
X2013Y625D02*
X2020Y625D01*
X0Y624D02*
X7Y624D01*
X16Y624D02*
X23Y624D01*
X708Y624D02*
X715Y624D01*
X2013Y624D02*
X2020Y624D01*
X0Y623D02*
X7Y623D01*
X16Y623D02*
X23Y623D01*
X708Y623D02*
X715Y623D01*
X2013Y623D02*
X2020Y623D01*
X0Y622D02*
X7Y622D01*
X16Y622D02*
X23Y622D01*
X708Y622D02*
X715Y622D01*
X2013Y622D02*
X2020Y622D01*
X0Y621D02*
X7Y621D01*
X16Y621D02*
X23Y621D01*
X708Y621D02*
X715Y621D01*
X2013Y621D02*
X2020Y621D01*
X0Y620D02*
X7Y620D01*
X16Y620D02*
X23Y620D01*
X708Y620D02*
X715Y620D01*
X2013Y620D02*
X2020Y620D01*
X0Y619D02*
X7Y619D01*
X16Y619D02*
X23Y619D01*
X708Y619D02*
X715Y619D01*
X2013Y619D02*
X2020Y619D01*
X0Y618D02*
X7Y618D01*
X16Y618D02*
X23Y618D01*
X708Y618D02*
X715Y618D01*
X2013Y618D02*
X2020Y618D01*
X0Y617D02*
X7Y617D01*
X16Y617D02*
X23Y617D01*
X708Y617D02*
X715Y617D01*
X2013Y617D02*
X2020Y617D01*
X0Y616D02*
X7Y616D01*
X16Y616D02*
X23Y616D01*
X708Y616D02*
X715Y616D01*
X2013Y616D02*
X2020Y616D01*
X0Y615D02*
X7Y615D01*
X16Y615D02*
X23Y615D01*
X708Y615D02*
X715Y615D01*
X2013Y615D02*
X2020Y615D01*
X0Y614D02*
X7Y614D01*
X16Y614D02*
X23Y614D01*
X708Y614D02*
X715Y614D01*
X2013Y614D02*
X2020Y614D01*
X0Y613D02*
X7Y613D01*
X16Y613D02*
X23Y613D01*
X708Y613D02*
X715Y613D01*
X2013Y613D02*
X2020Y613D01*
X0Y612D02*
X7Y612D01*
X16Y612D02*
X23Y612D01*
X708Y612D02*
X715Y612D01*
X2013Y612D02*
X2020Y612D01*
X0Y611D02*
X7Y611D01*
X16Y611D02*
X23Y611D01*
X708Y611D02*
X715Y611D01*
X2013Y611D02*
X2020Y611D01*
X0Y610D02*
X7Y610D01*
X16Y610D02*
X23Y610D01*
X708Y610D02*
X715Y610D01*
X2013Y610D02*
X2020Y610D01*
X0Y609D02*
X7Y609D01*
X16Y609D02*
X23Y609D01*
X708Y609D02*
X715Y609D01*
X2013Y609D02*
X2020Y609D01*
X0Y608D02*
X7Y608D01*
X16Y608D02*
X23Y608D01*
X708Y608D02*
X715Y608D01*
X2013Y608D02*
X2020Y608D01*
X0Y607D02*
X7Y607D01*
X16Y607D02*
X23Y607D01*
X708Y607D02*
X715Y607D01*
X2013Y607D02*
X2020Y607D01*
X0Y606D02*
X7Y606D01*
X16Y606D02*
X23Y606D01*
X708Y606D02*
X715Y606D01*
X2013Y606D02*
X2020Y606D01*
X0Y605D02*
X7Y605D01*
X16Y605D02*
X23Y605D01*
X708Y605D02*
X715Y605D01*
X2013Y605D02*
X2020Y605D01*
X0Y604D02*
X7Y604D01*
X16Y604D02*
X23Y604D01*
X708Y604D02*
X715Y604D01*
X2013Y604D02*
X2020Y604D01*
X0Y603D02*
X7Y603D01*
X16Y603D02*
X23Y603D01*
X708Y603D02*
X715Y603D01*
X2013Y603D02*
X2020Y603D01*
X0Y602D02*
X7Y602D01*
X16Y602D02*
X23Y602D01*
X708Y602D02*
X715Y602D01*
X2013Y602D02*
X2020Y602D01*
X0Y601D02*
X7Y601D01*
X16Y601D02*
X23Y601D01*
X708Y601D02*
X715Y601D01*
X2013Y601D02*
X2020Y601D01*
X0Y600D02*
X7Y600D01*
X16Y600D02*
X23Y600D01*
X708Y600D02*
X715Y600D01*
X2013Y600D02*
X2020Y600D01*
X0Y599D02*
X7Y599D01*
X16Y599D02*
X23Y599D01*
X708Y599D02*
X715Y599D01*
X2013Y599D02*
X2020Y599D01*
X0Y598D02*
X7Y598D01*
X16Y598D02*
X23Y598D01*
X708Y598D02*
X715Y598D01*
X2013Y598D02*
X2020Y598D01*
X0Y597D02*
X7Y597D01*
X16Y597D02*
X23Y597D01*
X708Y597D02*
X715Y597D01*
X2013Y597D02*
X2020Y597D01*
X0Y596D02*
X7Y596D01*
X16Y596D02*
X23Y596D01*
X708Y596D02*
X715Y596D01*
X2013Y596D02*
X2020Y596D01*
X0Y595D02*
X7Y595D01*
X16Y595D02*
X23Y595D01*
X708Y595D02*
X715Y595D01*
X2013Y595D02*
X2020Y595D01*
X0Y594D02*
X7Y594D01*
X16Y594D02*
X23Y594D01*
X708Y594D02*
X715Y594D01*
X2013Y594D02*
X2020Y594D01*
X0Y593D02*
X7Y593D01*
X16Y593D02*
X23Y593D01*
X708Y593D02*
X715Y593D01*
X2013Y593D02*
X2020Y593D01*
X0Y592D02*
X7Y592D01*
X16Y592D02*
X23Y592D01*
X708Y592D02*
X715Y592D01*
X2013Y592D02*
X2020Y592D01*
X0Y591D02*
X7Y591D01*
X16Y591D02*
X23Y591D01*
X708Y591D02*
X715Y591D01*
X2013Y591D02*
X2020Y591D01*
X0Y590D02*
X7Y590D01*
X16Y590D02*
X23Y590D01*
X708Y590D02*
X715Y590D01*
X2013Y590D02*
X2020Y590D01*
X0Y589D02*
X7Y589D01*
X16Y589D02*
X23Y589D01*
X708Y589D02*
X715Y589D01*
X2013Y589D02*
X2020Y589D01*
X0Y588D02*
X7Y588D01*
X16Y588D02*
X23Y588D01*
X708Y588D02*
X715Y588D01*
X2013Y588D02*
X2020Y588D01*
X0Y587D02*
X7Y587D01*
X16Y587D02*
X23Y587D01*
X708Y587D02*
X715Y587D01*
X2013Y587D02*
X2020Y587D01*
X0Y586D02*
X7Y586D01*
X16Y586D02*
X23Y586D01*
X708Y586D02*
X715Y586D01*
X2013Y586D02*
X2020Y586D01*
X0Y585D02*
X7Y585D01*
X16Y585D02*
X23Y585D01*
X708Y585D02*
X715Y585D01*
X2013Y585D02*
X2020Y585D01*
X0Y584D02*
X7Y584D01*
X16Y584D02*
X23Y584D01*
X708Y584D02*
X715Y584D01*
X2013Y584D02*
X2020Y584D01*
X0Y583D02*
X7Y583D01*
X16Y583D02*
X23Y583D01*
X708Y583D02*
X715Y583D01*
X2013Y583D02*
X2020Y583D01*
X0Y582D02*
X7Y582D01*
X16Y582D02*
X23Y582D01*
X708Y582D02*
X715Y582D01*
X2013Y582D02*
X2020Y582D01*
X0Y581D02*
X7Y581D01*
X16Y581D02*
X23Y581D01*
X708Y581D02*
X715Y581D01*
X2013Y581D02*
X2020Y581D01*
X0Y580D02*
X7Y580D01*
X16Y580D02*
X23Y580D01*
X708Y580D02*
X715Y580D01*
X2013Y580D02*
X2020Y580D01*
X0Y579D02*
X7Y579D01*
X16Y579D02*
X23Y579D01*
X708Y579D02*
X715Y579D01*
X2013Y579D02*
X2020Y579D01*
X0Y578D02*
X7Y578D01*
X16Y578D02*
X23Y578D01*
X708Y578D02*
X715Y578D01*
X2013Y578D02*
X2020Y578D01*
X0Y577D02*
X7Y577D01*
X16Y577D02*
X23Y577D01*
X708Y577D02*
X715Y577D01*
X2013Y577D02*
X2020Y577D01*
X0Y576D02*
X7Y576D01*
X16Y576D02*
X23Y576D01*
X708Y576D02*
X715Y576D01*
X2013Y576D02*
X2020Y576D01*
X0Y575D02*
X7Y575D01*
X16Y575D02*
X23Y575D01*
X708Y575D02*
X715Y575D01*
X2013Y575D02*
X2020Y575D01*
X0Y574D02*
X7Y574D01*
X16Y574D02*
X23Y574D01*
X708Y574D02*
X715Y574D01*
X2013Y574D02*
X2020Y574D01*
X0Y573D02*
X7Y573D01*
X16Y573D02*
X23Y573D01*
X708Y573D02*
X715Y573D01*
X2013Y573D02*
X2020Y573D01*
X0Y572D02*
X7Y572D01*
X16Y572D02*
X23Y572D01*
X708Y572D02*
X715Y572D01*
X2013Y572D02*
X2020Y572D01*
X0Y571D02*
X7Y571D01*
X16Y571D02*
X23Y571D01*
X708Y571D02*
X715Y571D01*
X2013Y571D02*
X2020Y571D01*
X0Y570D02*
X7Y570D01*
X16Y570D02*
X23Y570D01*
X708Y570D02*
X715Y570D01*
X2013Y570D02*
X2020Y570D01*
X0Y569D02*
X7Y569D01*
X16Y569D02*
X23Y569D01*
X708Y569D02*
X715Y569D01*
X2013Y569D02*
X2020Y569D01*
X0Y568D02*
X7Y568D01*
X16Y568D02*
X23Y568D01*
X708Y568D02*
X715Y568D01*
X2013Y568D02*
X2020Y568D01*
X0Y567D02*
X7Y567D01*
X16Y567D02*
X23Y567D01*
X708Y567D02*
X715Y567D01*
X2013Y567D02*
X2020Y567D01*
X0Y566D02*
X7Y566D01*
X16Y566D02*
X23Y566D01*
X708Y566D02*
X715Y566D01*
X2013Y566D02*
X2020Y566D01*
X0Y565D02*
X7Y565D01*
X16Y565D02*
X23Y565D01*
X708Y565D02*
X715Y565D01*
X2013Y565D02*
X2020Y565D01*
X0Y564D02*
X7Y564D01*
X16Y564D02*
X23Y564D01*
X708Y564D02*
X715Y564D01*
X2013Y564D02*
X2020Y564D01*
X0Y563D02*
X7Y563D01*
X16Y563D02*
X23Y563D01*
X708Y563D02*
X715Y563D01*
X2013Y563D02*
X2020Y563D01*
X0Y562D02*
X7Y562D01*
X16Y562D02*
X23Y562D01*
X708Y562D02*
X715Y562D01*
X2013Y562D02*
X2020Y562D01*
X0Y561D02*
X7Y561D01*
X16Y561D02*
X23Y561D01*
X708Y561D02*
X715Y561D01*
X2013Y561D02*
X2020Y561D01*
X0Y560D02*
X7Y560D01*
X16Y560D02*
X23Y560D01*
X708Y560D02*
X715Y560D01*
X2013Y560D02*
X2020Y560D01*
X0Y559D02*
X7Y559D01*
X16Y559D02*
X23Y559D01*
X708Y559D02*
X715Y559D01*
X2013Y559D02*
X2020Y559D01*
X0Y558D02*
X7Y558D01*
X16Y558D02*
X23Y558D01*
X708Y558D02*
X715Y558D01*
X2013Y558D02*
X2020Y558D01*
X0Y557D02*
X7Y557D01*
X16Y557D02*
X23Y557D01*
X708Y557D02*
X715Y557D01*
X2013Y557D02*
X2020Y557D01*
X0Y556D02*
X7Y556D01*
X16Y556D02*
X23Y556D01*
X708Y556D02*
X715Y556D01*
X2013Y556D02*
X2020Y556D01*
X0Y555D02*
X7Y555D01*
X16Y555D02*
X23Y555D01*
X708Y555D02*
X715Y555D01*
X2013Y555D02*
X2020Y555D01*
X0Y554D02*
X7Y554D01*
X16Y554D02*
X23Y554D01*
X708Y554D02*
X715Y554D01*
X2013Y554D02*
X2020Y554D01*
X0Y553D02*
X7Y553D01*
X16Y553D02*
X23Y553D01*
X708Y553D02*
X715Y553D01*
X2013Y553D02*
X2020Y553D01*
X0Y552D02*
X7Y552D01*
X16Y552D02*
X23Y552D01*
X708Y552D02*
X715Y552D01*
X2013Y552D02*
X2020Y552D01*
X0Y551D02*
X7Y551D01*
X16Y551D02*
X23Y551D01*
X708Y551D02*
X715Y551D01*
X2013Y551D02*
X2020Y551D01*
X0Y550D02*
X7Y550D01*
X16Y550D02*
X23Y550D01*
X708Y550D02*
X715Y550D01*
X2013Y550D02*
X2020Y550D01*
X0Y549D02*
X7Y549D01*
X16Y549D02*
X23Y549D01*
X708Y549D02*
X715Y549D01*
X2013Y549D02*
X2020Y549D01*
X0Y548D02*
X7Y548D01*
X16Y548D02*
X23Y548D01*
X708Y548D02*
X715Y548D01*
X2013Y548D02*
X2020Y548D01*
X0Y547D02*
X7Y547D01*
X16Y547D02*
X23Y547D01*
X708Y547D02*
X715Y547D01*
X2013Y547D02*
X2020Y547D01*
X0Y546D02*
X7Y546D01*
X16Y546D02*
X23Y546D01*
X708Y546D02*
X715Y546D01*
X2013Y546D02*
X2020Y546D01*
X0Y545D02*
X7Y545D01*
X16Y545D02*
X23Y545D01*
X708Y545D02*
X715Y545D01*
X2013Y545D02*
X2020Y545D01*
X0Y544D02*
X7Y544D01*
X16Y544D02*
X23Y544D01*
X708Y544D02*
X715Y544D01*
X2013Y544D02*
X2020Y544D01*
X0Y543D02*
X7Y543D01*
X16Y543D02*
X23Y543D01*
X708Y543D02*
X715Y543D01*
X2013Y543D02*
X2020Y543D01*
X0Y542D02*
X7Y542D01*
X16Y542D02*
X23Y542D01*
X708Y542D02*
X715Y542D01*
X2013Y542D02*
X2020Y542D01*
X0Y541D02*
X7Y541D01*
X16Y541D02*
X23Y541D01*
X708Y541D02*
X715Y541D01*
X2013Y541D02*
X2020Y541D01*
X0Y540D02*
X7Y540D01*
X16Y540D02*
X23Y540D01*
X708Y540D02*
X715Y540D01*
X2013Y540D02*
X2020Y540D01*
X0Y539D02*
X7Y539D01*
X16Y539D02*
X23Y539D01*
X708Y539D02*
X715Y539D01*
X2013Y539D02*
X2020Y539D01*
X0Y538D02*
X7Y538D01*
X16Y538D02*
X23Y538D01*
X708Y538D02*
X715Y538D01*
X2013Y538D02*
X2020Y538D01*
X0Y537D02*
X7Y537D01*
X16Y537D02*
X23Y537D01*
X708Y537D02*
X715Y537D01*
X2013Y537D02*
X2020Y537D01*
X0Y536D02*
X7Y536D01*
X16Y536D02*
X23Y536D01*
X708Y536D02*
X715Y536D01*
X2013Y536D02*
X2020Y536D01*
X0Y535D02*
X7Y535D01*
X16Y535D02*
X23Y535D01*
X708Y535D02*
X715Y535D01*
X2013Y535D02*
X2020Y535D01*
X0Y534D02*
X7Y534D01*
X16Y534D02*
X23Y534D01*
X708Y534D02*
X715Y534D01*
X2013Y534D02*
X2020Y534D01*
X0Y533D02*
X7Y533D01*
X16Y533D02*
X23Y533D01*
X708Y533D02*
X715Y533D01*
X2013Y533D02*
X2020Y533D01*
X0Y532D02*
X7Y532D01*
X16Y532D02*
X23Y532D01*
X708Y532D02*
X715Y532D01*
X2013Y532D02*
X2020Y532D01*
X0Y531D02*
X7Y531D01*
X16Y531D02*
X23Y531D01*
X708Y531D02*
X715Y531D01*
X2013Y531D02*
X2020Y531D01*
X0Y530D02*
X7Y530D01*
X16Y530D02*
X23Y530D01*
X708Y530D02*
X715Y530D01*
X2013Y530D02*
X2020Y530D01*
X0Y529D02*
X7Y529D01*
X16Y529D02*
X23Y529D01*
X708Y529D02*
X715Y529D01*
X2013Y529D02*
X2020Y529D01*
X0Y528D02*
X7Y528D01*
X16Y528D02*
X23Y528D01*
X708Y528D02*
X715Y528D01*
X2013Y528D02*
X2020Y528D01*
X0Y527D02*
X7Y527D01*
X16Y527D02*
X23Y527D01*
X708Y527D02*
X715Y527D01*
X2013Y527D02*
X2020Y527D01*
X0Y526D02*
X7Y526D01*
X16Y526D02*
X23Y526D01*
X708Y526D02*
X715Y526D01*
X2013Y526D02*
X2020Y526D01*
X0Y525D02*
X7Y525D01*
X16Y525D02*
X23Y525D01*
X708Y525D02*
X715Y525D01*
X2013Y525D02*
X2020Y525D01*
X0Y524D02*
X7Y524D01*
X16Y524D02*
X23Y524D01*
X708Y524D02*
X715Y524D01*
X2013Y524D02*
X2020Y524D01*
X0Y523D02*
X7Y523D01*
X16Y523D02*
X23Y523D01*
X708Y523D02*
X715Y523D01*
X2013Y523D02*
X2020Y523D01*
X0Y522D02*
X7Y522D01*
X16Y522D02*
X23Y522D01*
X708Y522D02*
X715Y522D01*
X2013Y522D02*
X2020Y522D01*
X0Y521D02*
X7Y521D01*
X16Y521D02*
X23Y521D01*
X708Y521D02*
X715Y521D01*
X2013Y521D02*
X2020Y521D01*
X0Y520D02*
X7Y520D01*
X16Y520D02*
X23Y520D01*
X708Y520D02*
X715Y520D01*
X2013Y520D02*
X2020Y520D01*
X0Y519D02*
X7Y519D01*
X16Y519D02*
X23Y519D01*
X708Y519D02*
X715Y519D01*
X2013Y519D02*
X2020Y519D01*
X0Y518D02*
X7Y518D01*
X16Y518D02*
X23Y518D01*
X708Y518D02*
X715Y518D01*
X2013Y518D02*
X2020Y518D01*
X0Y517D02*
X7Y517D01*
X16Y517D02*
X23Y517D01*
X708Y517D02*
X715Y517D01*
X2013Y517D02*
X2020Y517D01*
X0Y516D02*
X7Y516D01*
X16Y516D02*
X23Y516D01*
X708Y516D02*
X715Y516D01*
X2013Y516D02*
X2020Y516D01*
X0Y515D02*
X7Y515D01*
X16Y515D02*
X23Y515D01*
X708Y515D02*
X715Y515D01*
X2013Y515D02*
X2020Y515D01*
X0Y514D02*
X7Y514D01*
X16Y514D02*
X23Y514D01*
X708Y514D02*
X715Y514D01*
X2013Y514D02*
X2020Y514D01*
X0Y513D02*
X7Y513D01*
X16Y513D02*
X23Y513D01*
X708Y513D02*
X715Y513D01*
X2013Y513D02*
X2020Y513D01*
X0Y512D02*
X7Y512D01*
X16Y512D02*
X23Y512D01*
X708Y512D02*
X715Y512D01*
X2013Y512D02*
X2020Y512D01*
X0Y511D02*
X7Y511D01*
X16Y511D02*
X23Y511D01*
X708Y511D02*
X715Y511D01*
X2013Y511D02*
X2020Y511D01*
X0Y510D02*
X7Y510D01*
X16Y510D02*
X23Y510D01*
X708Y510D02*
X715Y510D01*
X2013Y510D02*
X2020Y510D01*
X0Y509D02*
X7Y509D01*
X16Y509D02*
X23Y509D01*
X708Y509D02*
X715Y509D01*
X2013Y509D02*
X2020Y509D01*
X0Y508D02*
X7Y508D01*
X16Y508D02*
X23Y508D01*
X708Y508D02*
X715Y508D01*
X2013Y508D02*
X2020Y508D01*
X0Y507D02*
X7Y507D01*
X16Y507D02*
X23Y507D01*
X708Y507D02*
X715Y507D01*
X2013Y507D02*
X2020Y507D01*
X0Y506D02*
X7Y506D01*
X16Y506D02*
X23Y506D01*
X708Y506D02*
X715Y506D01*
X2013Y506D02*
X2020Y506D01*
X0Y505D02*
X7Y505D01*
X16Y505D02*
X23Y505D01*
X708Y505D02*
X715Y505D01*
X2013Y505D02*
X2020Y505D01*
X0Y504D02*
X7Y504D01*
X16Y504D02*
X23Y504D01*
X708Y504D02*
X715Y504D01*
X2013Y504D02*
X2020Y504D01*
X0Y503D02*
X7Y503D01*
X16Y503D02*
X23Y503D01*
X708Y503D02*
X715Y503D01*
X2013Y503D02*
X2020Y503D01*
X0Y502D02*
X7Y502D01*
X16Y502D02*
X23Y502D01*
X708Y502D02*
X715Y502D01*
X2013Y502D02*
X2020Y502D01*
X0Y501D02*
X7Y501D01*
X16Y501D02*
X23Y501D01*
X708Y501D02*
X715Y501D01*
X2013Y501D02*
X2020Y501D01*
X0Y500D02*
X7Y500D01*
X16Y500D02*
X23Y500D01*
X708Y500D02*
X715Y500D01*
X2013Y500D02*
X2020Y500D01*
X0Y499D02*
X7Y499D01*
X16Y499D02*
X23Y499D01*
X708Y499D02*
X715Y499D01*
X2013Y499D02*
X2020Y499D01*
X0Y498D02*
X7Y498D01*
X16Y498D02*
X23Y498D01*
X708Y498D02*
X715Y498D01*
X2013Y498D02*
X2020Y498D01*
X0Y497D02*
X7Y497D01*
X16Y497D02*
X23Y497D01*
X708Y497D02*
X715Y497D01*
X2013Y497D02*
X2020Y497D01*
X0Y496D02*
X7Y496D01*
X16Y496D02*
X23Y496D01*
X708Y496D02*
X715Y496D01*
X2013Y496D02*
X2020Y496D01*
X0Y495D02*
X7Y495D01*
X16Y495D02*
X23Y495D01*
X708Y495D02*
X715Y495D01*
X2013Y495D02*
X2020Y495D01*
X0Y494D02*
X7Y494D01*
X16Y494D02*
X23Y494D01*
X708Y494D02*
X715Y494D01*
X2013Y494D02*
X2020Y494D01*
X0Y493D02*
X7Y493D01*
X16Y493D02*
X23Y493D01*
X708Y493D02*
X715Y493D01*
X2013Y493D02*
X2020Y493D01*
X0Y492D02*
X7Y492D01*
X16Y492D02*
X23Y492D01*
X708Y492D02*
X715Y492D01*
X2013Y492D02*
X2020Y492D01*
X0Y491D02*
X7Y491D01*
X16Y491D02*
X23Y491D01*
X708Y491D02*
X715Y491D01*
X2013Y491D02*
X2020Y491D01*
X0Y490D02*
X7Y490D01*
X16Y490D02*
X23Y490D01*
X708Y490D02*
X715Y490D01*
X2013Y490D02*
X2020Y490D01*
X0Y489D02*
X7Y489D01*
X16Y489D02*
X23Y489D01*
X708Y489D02*
X715Y489D01*
X2013Y489D02*
X2020Y489D01*
X0Y488D02*
X7Y488D01*
X16Y488D02*
X23Y488D01*
X708Y488D02*
X715Y488D01*
X2013Y488D02*
X2020Y488D01*
X0Y487D02*
X7Y487D01*
X16Y487D02*
X23Y487D01*
X708Y487D02*
X715Y487D01*
X2013Y487D02*
X2020Y487D01*
X0Y486D02*
X7Y486D01*
X16Y486D02*
X23Y486D01*
X708Y486D02*
X715Y486D01*
X2013Y486D02*
X2020Y486D01*
X0Y485D02*
X7Y485D01*
X16Y485D02*
X23Y485D01*
X708Y485D02*
X715Y485D01*
X2013Y485D02*
X2020Y485D01*
X0Y484D02*
X7Y484D01*
X16Y484D02*
X23Y484D01*
X708Y484D02*
X715Y484D01*
X2013Y484D02*
X2020Y484D01*
X0Y483D02*
X7Y483D01*
X16Y483D02*
X23Y483D01*
X708Y483D02*
X715Y483D01*
X2013Y483D02*
X2020Y483D01*
X0Y482D02*
X7Y482D01*
X16Y482D02*
X23Y482D01*
X708Y482D02*
X715Y482D01*
X2013Y482D02*
X2020Y482D01*
X0Y481D02*
X7Y481D01*
X16Y481D02*
X23Y481D01*
X708Y481D02*
X715Y481D01*
X2013Y481D02*
X2020Y481D01*
X0Y480D02*
X7Y480D01*
X16Y480D02*
X23Y480D01*
X708Y480D02*
X715Y480D01*
X2013Y480D02*
X2020Y480D01*
X0Y479D02*
X7Y479D01*
X16Y479D02*
X23Y479D01*
X708Y479D02*
X715Y479D01*
X2013Y479D02*
X2020Y479D01*
X0Y478D02*
X7Y478D01*
X16Y478D02*
X23Y478D01*
X708Y478D02*
X715Y478D01*
X2013Y478D02*
X2020Y478D01*
X0Y477D02*
X7Y477D01*
X16Y477D02*
X23Y477D01*
X708Y477D02*
X715Y477D01*
X2013Y477D02*
X2020Y477D01*
X0Y476D02*
X7Y476D01*
X16Y476D02*
X23Y476D01*
X708Y476D02*
X715Y476D01*
X2013Y476D02*
X2020Y476D01*
X0Y475D02*
X7Y475D01*
X16Y475D02*
X23Y475D01*
X708Y475D02*
X715Y475D01*
X2013Y475D02*
X2020Y475D01*
X0Y474D02*
X7Y474D01*
X16Y474D02*
X23Y474D01*
X708Y474D02*
X715Y474D01*
X2013Y474D02*
X2020Y474D01*
X0Y473D02*
X7Y473D01*
X16Y473D02*
X23Y473D01*
X708Y473D02*
X715Y473D01*
X2013Y473D02*
X2020Y473D01*
X0Y472D02*
X7Y472D01*
X16Y472D02*
X23Y472D01*
X708Y472D02*
X715Y472D01*
X2013Y472D02*
X2020Y472D01*
X0Y471D02*
X7Y471D01*
X16Y471D02*
X23Y471D01*
X708Y471D02*
X715Y471D01*
X2013Y471D02*
X2020Y471D01*
X0Y470D02*
X7Y470D01*
X16Y470D02*
X23Y470D01*
X708Y470D02*
X715Y470D01*
X2013Y470D02*
X2020Y470D01*
X0Y469D02*
X7Y469D01*
X16Y469D02*
X23Y469D01*
X708Y469D02*
X715Y469D01*
X2013Y469D02*
X2020Y469D01*
X0Y468D02*
X7Y468D01*
X16Y468D02*
X23Y468D01*
X708Y468D02*
X715Y468D01*
X2013Y468D02*
X2020Y468D01*
X0Y467D02*
X7Y467D01*
X16Y467D02*
X23Y467D01*
X708Y467D02*
X715Y467D01*
X2013Y467D02*
X2020Y467D01*
X0Y466D02*
X7Y466D01*
X16Y466D02*
X23Y466D01*
X708Y466D02*
X715Y466D01*
X2013Y466D02*
X2020Y466D01*
X0Y465D02*
X7Y465D01*
X16Y465D02*
X23Y465D01*
X708Y465D02*
X715Y465D01*
X2013Y465D02*
X2020Y465D01*
X0Y464D02*
X7Y464D01*
X16Y464D02*
X23Y464D01*
X708Y464D02*
X715Y464D01*
X2013Y464D02*
X2020Y464D01*
X0Y463D02*
X7Y463D01*
X16Y463D02*
X23Y463D01*
X708Y463D02*
X715Y463D01*
X2013Y463D02*
X2020Y463D01*
X0Y462D02*
X7Y462D01*
X16Y462D02*
X23Y462D01*
X708Y462D02*
X715Y462D01*
X2013Y462D02*
X2020Y462D01*
X0Y461D02*
X7Y461D01*
X16Y461D02*
X23Y461D01*
X708Y461D02*
X715Y461D01*
X2013Y461D02*
X2020Y461D01*
X0Y460D02*
X7Y460D01*
X16Y460D02*
X23Y460D01*
X708Y460D02*
X715Y460D01*
X2013Y460D02*
X2020Y460D01*
X0Y459D02*
X7Y459D01*
X16Y459D02*
X23Y459D01*
X708Y459D02*
X715Y459D01*
X2013Y459D02*
X2020Y459D01*
X0Y458D02*
X7Y458D01*
X16Y458D02*
X23Y458D01*
X708Y458D02*
X715Y458D01*
X2013Y458D02*
X2020Y458D01*
X0Y457D02*
X7Y457D01*
X16Y457D02*
X23Y457D01*
X708Y457D02*
X715Y457D01*
X2013Y457D02*
X2020Y457D01*
X0Y456D02*
X7Y456D01*
X16Y456D02*
X23Y456D01*
X708Y456D02*
X715Y456D01*
X2013Y456D02*
X2020Y456D01*
X0Y455D02*
X7Y455D01*
X16Y455D02*
X23Y455D01*
X708Y455D02*
X715Y455D01*
X2013Y455D02*
X2020Y455D01*
X0Y454D02*
X7Y454D01*
X16Y454D02*
X23Y454D01*
X708Y454D02*
X715Y454D01*
X2013Y454D02*
X2020Y454D01*
X0Y453D02*
X7Y453D01*
X16Y453D02*
X23Y453D01*
X708Y453D02*
X715Y453D01*
X2013Y453D02*
X2020Y453D01*
X0Y452D02*
X7Y452D01*
X16Y452D02*
X23Y452D01*
X708Y452D02*
X715Y452D01*
X2013Y452D02*
X2020Y452D01*
X0Y451D02*
X7Y451D01*
X16Y451D02*
X23Y451D01*
X708Y451D02*
X715Y451D01*
X2013Y451D02*
X2020Y451D01*
X0Y450D02*
X7Y450D01*
X16Y450D02*
X23Y450D01*
X708Y450D02*
X715Y450D01*
X2013Y450D02*
X2020Y450D01*
X0Y449D02*
X7Y449D01*
X16Y449D02*
X23Y449D01*
X708Y449D02*
X715Y449D01*
X2013Y449D02*
X2020Y449D01*
X0Y448D02*
X7Y448D01*
X16Y448D02*
X23Y448D01*
X708Y448D02*
X715Y448D01*
X2013Y448D02*
X2020Y448D01*
X0Y447D02*
X7Y447D01*
X16Y447D02*
X23Y447D01*
X708Y447D02*
X715Y447D01*
X2013Y447D02*
X2020Y447D01*
X0Y446D02*
X7Y446D01*
X16Y446D02*
X23Y446D01*
X708Y446D02*
X715Y446D01*
X2013Y446D02*
X2020Y446D01*
X0Y445D02*
X7Y445D01*
X16Y445D02*
X23Y445D01*
X708Y445D02*
X715Y445D01*
X2013Y445D02*
X2020Y445D01*
X0Y444D02*
X7Y444D01*
X16Y444D02*
X23Y444D01*
X708Y444D02*
X715Y444D01*
X2013Y444D02*
X2020Y444D01*
X0Y443D02*
X7Y443D01*
X16Y443D02*
X23Y443D01*
X708Y443D02*
X715Y443D01*
X2013Y443D02*
X2020Y443D01*
X0Y442D02*
X7Y442D01*
X16Y442D02*
X23Y442D01*
X708Y442D02*
X715Y442D01*
X2013Y442D02*
X2020Y442D01*
X0Y441D02*
X7Y441D01*
X16Y441D02*
X23Y441D01*
X708Y441D02*
X715Y441D01*
X2013Y441D02*
X2020Y441D01*
X0Y440D02*
X7Y440D01*
X16Y440D02*
X23Y440D01*
X708Y440D02*
X715Y440D01*
X2013Y440D02*
X2020Y440D01*
X0Y439D02*
X7Y439D01*
X16Y439D02*
X23Y439D01*
X708Y439D02*
X715Y439D01*
X2013Y439D02*
X2020Y439D01*
X0Y438D02*
X7Y438D01*
X16Y438D02*
X23Y438D01*
X708Y438D02*
X715Y438D01*
X2013Y438D02*
X2020Y438D01*
X0Y437D02*
X7Y437D01*
X16Y437D02*
X23Y437D01*
X708Y437D02*
X715Y437D01*
X2013Y437D02*
X2020Y437D01*
X0Y436D02*
X7Y436D01*
X16Y436D02*
X23Y436D01*
X708Y436D02*
X715Y436D01*
X2013Y436D02*
X2020Y436D01*
X0Y435D02*
X7Y435D01*
X16Y435D02*
X23Y435D01*
X708Y435D02*
X715Y435D01*
X2013Y435D02*
X2020Y435D01*
X0Y434D02*
X7Y434D01*
X16Y434D02*
X23Y434D01*
X708Y434D02*
X715Y434D01*
X2013Y434D02*
X2020Y434D01*
X0Y433D02*
X7Y433D01*
X16Y433D02*
X23Y433D01*
X708Y433D02*
X715Y433D01*
X2013Y433D02*
X2020Y433D01*
X0Y432D02*
X7Y432D01*
X16Y432D02*
X23Y432D01*
X112Y432D02*
X119Y432D01*
X708Y432D02*
X715Y432D01*
X2013Y432D02*
X2020Y432D01*
X0Y431D02*
X7Y431D01*
X16Y431D02*
X23Y431D01*
X112Y431D02*
X119Y431D01*
X708Y431D02*
X715Y431D01*
X2013Y431D02*
X2020Y431D01*
X0Y430D02*
X7Y430D01*
X16Y430D02*
X23Y430D01*
X112Y430D02*
X119Y430D01*
X708Y430D02*
X715Y430D01*
X2013Y430D02*
X2020Y430D01*
X0Y429D02*
X7Y429D01*
X16Y429D02*
X23Y429D01*
X112Y429D02*
X119Y429D01*
X708Y429D02*
X715Y429D01*
X2013Y429D02*
X2020Y429D01*
X0Y428D02*
X7Y428D01*
X16Y428D02*
X23Y428D01*
X112Y428D02*
X119Y428D01*
X708Y428D02*
X715Y428D01*
X2013Y428D02*
X2020Y428D01*
X0Y427D02*
X7Y427D01*
X16Y427D02*
X23Y427D01*
X112Y427D02*
X119Y427D01*
X708Y427D02*
X715Y427D01*
X2013Y427D02*
X2020Y427D01*
X0Y426D02*
X7Y426D01*
X16Y426D02*
X23Y426D01*
X112Y426D02*
X119Y426D01*
X708Y426D02*
X715Y426D01*
X2013Y426D02*
X2020Y426D01*
X0Y425D02*
X7Y425D01*
X16Y425D02*
X23Y425D01*
X112Y425D02*
X119Y425D01*
X708Y425D02*
X715Y425D01*
X2013Y425D02*
X2020Y425D01*
X0Y424D02*
X7Y424D01*
X16Y424D02*
X23Y424D01*
X112Y424D02*
X119Y424D01*
X708Y424D02*
X715Y424D01*
X2013Y424D02*
X2020Y424D01*
X0Y423D02*
X7Y423D01*
X16Y423D02*
X23Y423D01*
X112Y423D02*
X119Y423D01*
X708Y423D02*
X715Y423D01*
X2013Y423D02*
X2020Y423D01*
X0Y422D02*
X7Y422D01*
X16Y422D02*
X23Y422D01*
X112Y422D02*
X119Y422D01*
X708Y422D02*
X715Y422D01*
X2013Y422D02*
X2020Y422D01*
X0Y421D02*
X7Y421D01*
X16Y421D02*
X23Y421D01*
X112Y421D02*
X119Y421D01*
X708Y421D02*
X715Y421D01*
X2013Y421D02*
X2020Y421D01*
X0Y420D02*
X7Y420D01*
X16Y420D02*
X23Y420D01*
X112Y420D02*
X119Y420D01*
X708Y420D02*
X715Y420D01*
X2013Y420D02*
X2020Y420D01*
X0Y419D02*
X7Y419D01*
X16Y419D02*
X23Y419D01*
X112Y419D02*
X119Y419D01*
X708Y419D02*
X715Y419D01*
X2013Y419D02*
X2020Y419D01*
X0Y418D02*
X7Y418D01*
X16Y418D02*
X23Y418D01*
X112Y418D02*
X119Y418D01*
X708Y418D02*
X715Y418D01*
X2013Y418D02*
X2020Y418D01*
X0Y417D02*
X7Y417D01*
X16Y417D02*
X23Y417D01*
X112Y417D02*
X119Y417D01*
X708Y417D02*
X715Y417D01*
X2013Y417D02*
X2020Y417D01*
X0Y416D02*
X7Y416D01*
X16Y416D02*
X23Y416D01*
X708Y416D02*
X715Y416D01*
X2013Y416D02*
X2020Y416D01*
X0Y415D02*
X7Y415D01*
X16Y415D02*
X23Y415D01*
X708Y415D02*
X715Y415D01*
X2013Y415D02*
X2020Y415D01*
X0Y414D02*
X7Y414D01*
X16Y414D02*
X23Y414D01*
X708Y414D02*
X715Y414D01*
X2013Y414D02*
X2020Y414D01*
X0Y413D02*
X7Y413D01*
X16Y413D02*
X23Y413D01*
X708Y413D02*
X715Y413D01*
X2013Y413D02*
X2020Y413D01*
X0Y412D02*
X7Y412D01*
X16Y412D02*
X23Y412D01*
X708Y412D02*
X715Y412D01*
X2013Y412D02*
X2020Y412D01*
X0Y411D02*
X7Y411D01*
X16Y411D02*
X23Y411D01*
X708Y411D02*
X715Y411D01*
X2013Y411D02*
X2020Y411D01*
X0Y410D02*
X7Y410D01*
X16Y410D02*
X23Y410D01*
X708Y410D02*
X715Y410D01*
X2013Y410D02*
X2020Y410D01*
X0Y409D02*
X7Y409D01*
X16Y409D02*
X23Y409D01*
X708Y409D02*
X715Y409D01*
X2013Y409D02*
X2020Y409D01*
X0Y408D02*
X7Y408D01*
X16Y408D02*
X23Y408D01*
X708Y408D02*
X715Y408D01*
X2013Y408D02*
X2020Y408D01*
X0Y407D02*
X7Y407D01*
X16Y407D02*
X23Y407D01*
X708Y407D02*
X715Y407D01*
X2013Y407D02*
X2020Y407D01*
X0Y406D02*
X7Y406D01*
X16Y406D02*
X23Y406D01*
X708Y406D02*
X715Y406D01*
X2013Y406D02*
X2020Y406D01*
X0Y405D02*
X7Y405D01*
X16Y405D02*
X23Y405D01*
X708Y405D02*
X715Y405D01*
X2013Y405D02*
X2020Y405D01*
X0Y404D02*
X7Y404D01*
X16Y404D02*
X23Y404D01*
X708Y404D02*
X715Y404D01*
X2013Y404D02*
X2020Y404D01*
X0Y403D02*
X7Y403D01*
X16Y403D02*
X23Y403D01*
X708Y403D02*
X715Y403D01*
X2013Y403D02*
X2020Y403D01*
X0Y402D02*
X7Y402D01*
X16Y402D02*
X23Y402D01*
X708Y402D02*
X715Y402D01*
X2013Y402D02*
X2020Y402D01*
X0Y401D02*
X7Y401D01*
X16Y401D02*
X23Y401D01*
X708Y401D02*
X715Y401D01*
X2013Y401D02*
X2020Y401D01*
X0Y400D02*
X7Y400D01*
X16Y400D02*
X23Y400D01*
X708Y400D02*
X715Y400D01*
X2013Y400D02*
X2020Y400D01*
X0Y399D02*
X7Y399D01*
X16Y399D02*
X23Y399D01*
X708Y399D02*
X715Y399D01*
X2013Y399D02*
X2020Y399D01*
X0Y398D02*
X7Y398D01*
X16Y398D02*
X23Y398D01*
X708Y398D02*
X715Y398D01*
X2013Y398D02*
X2020Y398D01*
X0Y397D02*
X7Y397D01*
X16Y397D02*
X23Y397D01*
X708Y397D02*
X715Y397D01*
X2013Y397D02*
X2020Y397D01*
X0Y396D02*
X7Y396D01*
X16Y396D02*
X23Y396D01*
X708Y396D02*
X715Y396D01*
X2013Y396D02*
X2020Y396D01*
X0Y395D02*
X7Y395D01*
X16Y395D02*
X23Y395D01*
X708Y395D02*
X715Y395D01*
X2013Y395D02*
X2020Y395D01*
X0Y394D02*
X7Y394D01*
X16Y394D02*
X23Y394D01*
X708Y394D02*
X715Y394D01*
X2013Y394D02*
X2020Y394D01*
X0Y393D02*
X7Y393D01*
X16Y393D02*
X23Y393D01*
X708Y393D02*
X715Y393D01*
X2013Y393D02*
X2020Y393D01*
X0Y392D02*
X7Y392D01*
X16Y392D02*
X23Y392D01*
X708Y392D02*
X715Y392D01*
X2013Y392D02*
X2020Y392D01*
X0Y391D02*
X7Y391D01*
X16Y391D02*
X23Y391D01*
X708Y391D02*
X715Y391D01*
X2013Y391D02*
X2020Y391D01*
X0Y390D02*
X7Y390D01*
X16Y390D02*
X23Y390D01*
X708Y390D02*
X715Y390D01*
X2013Y390D02*
X2020Y390D01*
X0Y389D02*
X7Y389D01*
X16Y389D02*
X23Y389D01*
X708Y389D02*
X715Y389D01*
X2013Y389D02*
X2020Y389D01*
X0Y388D02*
X7Y388D01*
X16Y388D02*
X23Y388D01*
X708Y388D02*
X715Y388D01*
X2013Y388D02*
X2020Y388D01*
X0Y387D02*
X7Y387D01*
X16Y387D02*
X23Y387D01*
X708Y387D02*
X715Y387D01*
X2013Y387D02*
X2020Y387D01*
X0Y386D02*
X7Y386D01*
X16Y386D02*
X23Y386D01*
X708Y386D02*
X715Y386D01*
X2013Y386D02*
X2020Y386D01*
X0Y385D02*
X7Y385D01*
X16Y385D02*
X23Y385D01*
X708Y385D02*
X715Y385D01*
X2013Y385D02*
X2020Y385D01*
X0Y384D02*
X7Y384D01*
X16Y384D02*
X23Y384D01*
X708Y384D02*
X715Y384D01*
X2013Y384D02*
X2020Y384D01*
X0Y383D02*
X7Y383D01*
X16Y383D02*
X23Y383D01*
X708Y383D02*
X715Y383D01*
X2013Y383D02*
X2020Y383D01*
X0Y382D02*
X7Y382D01*
X16Y382D02*
X23Y382D01*
X708Y382D02*
X715Y382D01*
X2013Y382D02*
X2020Y382D01*
X0Y381D02*
X7Y381D01*
X16Y381D02*
X23Y381D01*
X708Y381D02*
X715Y381D01*
X2013Y381D02*
X2020Y381D01*
X0Y380D02*
X7Y380D01*
X16Y380D02*
X23Y380D01*
X708Y380D02*
X715Y380D01*
X2013Y380D02*
X2020Y380D01*
X0Y379D02*
X7Y379D01*
X16Y379D02*
X23Y379D01*
X708Y379D02*
X715Y379D01*
X2013Y379D02*
X2020Y379D01*
X0Y378D02*
X7Y378D01*
X16Y378D02*
X23Y378D01*
X708Y378D02*
X715Y378D01*
X2013Y378D02*
X2020Y378D01*
X0Y377D02*
X7Y377D01*
X16Y377D02*
X23Y377D01*
X708Y377D02*
X715Y377D01*
X2013Y377D02*
X2020Y377D01*
X0Y376D02*
X7Y376D01*
X16Y376D02*
X23Y376D01*
X708Y376D02*
X715Y376D01*
X2013Y376D02*
X2020Y376D01*
X0Y375D02*
X7Y375D01*
X16Y375D02*
X23Y375D01*
X708Y375D02*
X715Y375D01*
X2013Y375D02*
X2020Y375D01*
X0Y374D02*
X7Y374D01*
X16Y374D02*
X23Y374D01*
X708Y374D02*
X715Y374D01*
X2013Y374D02*
X2020Y374D01*
X0Y373D02*
X7Y373D01*
X16Y373D02*
X23Y373D01*
X708Y373D02*
X715Y373D01*
X2013Y373D02*
X2020Y373D01*
X0Y372D02*
X7Y372D01*
X16Y372D02*
X23Y372D01*
X708Y372D02*
X715Y372D01*
X2013Y372D02*
X2020Y372D01*
X0Y371D02*
X7Y371D01*
X16Y371D02*
X23Y371D01*
X708Y371D02*
X715Y371D01*
X2013Y371D02*
X2020Y371D01*
X0Y370D02*
X7Y370D01*
X16Y370D02*
X23Y370D01*
X708Y370D02*
X715Y370D01*
X2013Y370D02*
X2020Y370D01*
X0Y369D02*
X7Y369D01*
X16Y369D02*
X23Y369D01*
X708Y369D02*
X715Y369D01*
X2013Y369D02*
X2020Y369D01*
X0Y368D02*
X7Y368D01*
X16Y368D02*
X23Y368D01*
X708Y368D02*
X715Y368D01*
X2013Y368D02*
X2020Y368D01*
X0Y367D02*
X7Y367D01*
X16Y367D02*
X23Y367D01*
X708Y367D02*
X715Y367D01*
X2013Y367D02*
X2020Y367D01*
X0Y366D02*
X7Y366D01*
X16Y366D02*
X23Y366D01*
X708Y366D02*
X715Y366D01*
X2013Y366D02*
X2020Y366D01*
X0Y365D02*
X7Y365D01*
X16Y365D02*
X23Y365D01*
X708Y365D02*
X715Y365D01*
X2013Y365D02*
X2020Y365D01*
X0Y364D02*
X7Y364D01*
X16Y364D02*
X23Y364D01*
X708Y364D02*
X715Y364D01*
X2013Y364D02*
X2020Y364D01*
X0Y363D02*
X7Y363D01*
X16Y363D02*
X23Y363D01*
X708Y363D02*
X715Y363D01*
X2013Y363D02*
X2020Y363D01*
X0Y362D02*
X7Y362D01*
X16Y362D02*
X23Y362D01*
X708Y362D02*
X715Y362D01*
X2013Y362D02*
X2020Y362D01*
X0Y361D02*
X7Y361D01*
X16Y361D02*
X23Y361D01*
X708Y361D02*
X715Y361D01*
X2013Y361D02*
X2020Y361D01*
X0Y360D02*
X7Y360D01*
X16Y360D02*
X23Y360D01*
X708Y360D02*
X715Y360D01*
X2013Y360D02*
X2020Y360D01*
X0Y359D02*
X7Y359D01*
X16Y359D02*
X23Y359D01*
X708Y359D02*
X715Y359D01*
X2013Y359D02*
X2020Y359D01*
X0Y358D02*
X7Y358D01*
X16Y358D02*
X23Y358D01*
X708Y358D02*
X715Y358D01*
X2013Y358D02*
X2020Y358D01*
X0Y357D02*
X7Y357D01*
X16Y357D02*
X23Y357D01*
X708Y357D02*
X715Y357D01*
X2013Y357D02*
X2020Y357D01*
X0Y356D02*
X7Y356D01*
X16Y356D02*
X23Y356D01*
X708Y356D02*
X715Y356D01*
X2013Y356D02*
X2020Y356D01*
X0Y355D02*
X7Y355D01*
X16Y355D02*
X23Y355D01*
X708Y355D02*
X715Y355D01*
X2013Y355D02*
X2020Y355D01*
X0Y354D02*
X7Y354D01*
X16Y354D02*
X23Y354D01*
X708Y354D02*
X715Y354D01*
X2013Y354D02*
X2020Y354D01*
X0Y353D02*
X7Y353D01*
X16Y353D02*
X23Y353D01*
X708Y353D02*
X715Y353D01*
X2013Y353D02*
X2020Y353D01*
X0Y352D02*
X7Y352D01*
X16Y352D02*
X23Y352D01*
X708Y352D02*
X715Y352D01*
X2013Y352D02*
X2020Y352D01*
X0Y351D02*
X7Y351D01*
X16Y351D02*
X23Y351D01*
X708Y351D02*
X715Y351D01*
X2013Y351D02*
X2020Y351D01*
X0Y350D02*
X7Y350D01*
X16Y350D02*
X23Y350D01*
X708Y350D02*
X715Y350D01*
X2013Y350D02*
X2020Y350D01*
X0Y349D02*
X7Y349D01*
X16Y349D02*
X23Y349D01*
X708Y349D02*
X715Y349D01*
X2013Y349D02*
X2020Y349D01*
X0Y348D02*
X7Y348D01*
X16Y348D02*
X23Y348D01*
X708Y348D02*
X715Y348D01*
X2013Y348D02*
X2020Y348D01*
X0Y347D02*
X7Y347D01*
X16Y347D02*
X23Y347D01*
X708Y347D02*
X715Y347D01*
X2013Y347D02*
X2020Y347D01*
X0Y346D02*
X7Y346D01*
X16Y346D02*
X23Y346D01*
X708Y346D02*
X715Y346D01*
X2013Y346D02*
X2020Y346D01*
X0Y345D02*
X7Y345D01*
X16Y345D02*
X23Y345D01*
X708Y345D02*
X715Y345D01*
X2013Y345D02*
X2020Y345D01*
X0Y344D02*
X7Y344D01*
X16Y344D02*
X23Y344D01*
X708Y344D02*
X715Y344D01*
X2013Y344D02*
X2020Y344D01*
X0Y343D02*
X7Y343D01*
X16Y343D02*
X23Y343D01*
X708Y343D02*
X715Y343D01*
X2013Y343D02*
X2020Y343D01*
X0Y342D02*
X7Y342D01*
X16Y342D02*
X23Y342D01*
X708Y342D02*
X715Y342D01*
X2013Y342D02*
X2020Y342D01*
X0Y341D02*
X7Y341D01*
X16Y341D02*
X23Y341D01*
X708Y341D02*
X715Y341D01*
X2013Y341D02*
X2020Y341D01*
X0Y340D02*
X7Y340D01*
X16Y340D02*
X23Y340D01*
X708Y340D02*
X715Y340D01*
X2013Y340D02*
X2020Y340D01*
X0Y339D02*
X7Y339D01*
X16Y339D02*
X23Y339D01*
X708Y339D02*
X715Y339D01*
X2013Y339D02*
X2020Y339D01*
X0Y338D02*
X7Y338D01*
X16Y338D02*
X23Y338D01*
X708Y338D02*
X715Y338D01*
X2013Y338D02*
X2020Y338D01*
X0Y337D02*
X7Y337D01*
X16Y337D02*
X23Y337D01*
X708Y337D02*
X715Y337D01*
X2013Y337D02*
X2020Y337D01*
X0Y336D02*
X7Y336D01*
X16Y336D02*
X23Y336D01*
X708Y336D02*
X715Y336D01*
X2013Y336D02*
X2020Y336D01*
X0Y335D02*
X7Y335D01*
X16Y335D02*
X23Y335D01*
X708Y335D02*
X715Y335D01*
X2013Y335D02*
X2020Y335D01*
X0Y334D02*
X7Y334D01*
X16Y334D02*
X23Y334D01*
X708Y334D02*
X715Y334D01*
X2013Y334D02*
X2020Y334D01*
X0Y333D02*
X7Y333D01*
X16Y333D02*
X23Y333D01*
X708Y333D02*
X715Y333D01*
X2013Y333D02*
X2020Y333D01*
X0Y332D02*
X7Y332D01*
X16Y332D02*
X23Y332D01*
X708Y332D02*
X715Y332D01*
X2013Y332D02*
X2020Y332D01*
X0Y331D02*
X7Y331D01*
X16Y331D02*
X23Y331D01*
X708Y331D02*
X715Y331D01*
X2013Y331D02*
X2020Y331D01*
X0Y330D02*
X7Y330D01*
X16Y330D02*
X23Y330D01*
X708Y330D02*
X715Y330D01*
X2013Y330D02*
X2020Y330D01*
X0Y329D02*
X7Y329D01*
X16Y329D02*
X23Y329D01*
X708Y329D02*
X715Y329D01*
X2013Y329D02*
X2020Y329D01*
X0Y328D02*
X7Y328D01*
X16Y328D02*
X23Y328D01*
X708Y328D02*
X715Y328D01*
X2013Y328D02*
X2020Y328D01*
X0Y327D02*
X7Y327D01*
X16Y327D02*
X23Y327D01*
X708Y327D02*
X715Y327D01*
X2013Y327D02*
X2020Y327D01*
X0Y326D02*
X7Y326D01*
X16Y326D02*
X23Y326D01*
X708Y326D02*
X715Y326D01*
X2013Y326D02*
X2020Y326D01*
X0Y325D02*
X7Y325D01*
X16Y325D02*
X23Y325D01*
X708Y325D02*
X715Y325D01*
X2013Y325D02*
X2020Y325D01*
X0Y324D02*
X7Y324D01*
X16Y324D02*
X23Y324D01*
X708Y324D02*
X715Y324D01*
X2013Y324D02*
X2020Y324D01*
X0Y323D02*
X7Y323D01*
X16Y323D02*
X23Y323D01*
X708Y323D02*
X715Y323D01*
X2013Y323D02*
X2020Y323D01*
X0Y322D02*
X7Y322D01*
X16Y322D02*
X23Y322D01*
X708Y322D02*
X715Y322D01*
X2013Y322D02*
X2020Y322D01*
X0Y321D02*
X7Y321D01*
X16Y321D02*
X23Y321D01*
X708Y321D02*
X715Y321D01*
X2013Y321D02*
X2020Y321D01*
X0Y320D02*
X7Y320D01*
X16Y320D02*
X23Y320D01*
X708Y320D02*
X715Y320D01*
X2013Y320D02*
X2020Y320D01*
X0Y319D02*
X7Y319D01*
X16Y319D02*
X23Y319D01*
X708Y319D02*
X715Y319D01*
X2013Y319D02*
X2020Y319D01*
X0Y318D02*
X7Y318D01*
X16Y318D02*
X23Y318D01*
X708Y318D02*
X715Y318D01*
X2013Y318D02*
X2020Y318D01*
X0Y317D02*
X7Y317D01*
X16Y317D02*
X23Y317D01*
X708Y317D02*
X715Y317D01*
X2013Y317D02*
X2020Y317D01*
X0Y316D02*
X7Y316D01*
X16Y316D02*
X23Y316D01*
X708Y316D02*
X715Y316D01*
X2013Y316D02*
X2020Y316D01*
X0Y315D02*
X7Y315D01*
X16Y315D02*
X23Y315D01*
X708Y315D02*
X715Y315D01*
X2013Y315D02*
X2020Y315D01*
X0Y314D02*
X7Y314D01*
X16Y314D02*
X23Y314D01*
X708Y314D02*
X715Y314D01*
X2013Y314D02*
X2020Y314D01*
X0Y313D02*
X7Y313D01*
X16Y313D02*
X23Y313D01*
X708Y313D02*
X715Y313D01*
X2013Y313D02*
X2020Y313D01*
X0Y312D02*
X7Y312D01*
X16Y312D02*
X23Y312D01*
X708Y312D02*
X715Y312D01*
X2013Y312D02*
X2020Y312D01*
X0Y311D02*
X7Y311D01*
X16Y311D02*
X23Y311D01*
X708Y311D02*
X715Y311D01*
X2013Y311D02*
X2020Y311D01*
X0Y310D02*
X7Y310D01*
X16Y310D02*
X23Y310D01*
X708Y310D02*
X715Y310D01*
X2013Y310D02*
X2020Y310D01*
X0Y309D02*
X7Y309D01*
X16Y309D02*
X23Y309D01*
X708Y309D02*
X715Y309D01*
X2013Y309D02*
X2020Y309D01*
X0Y308D02*
X7Y308D01*
X16Y308D02*
X23Y308D01*
X708Y308D02*
X715Y308D01*
X2013Y308D02*
X2020Y308D01*
X0Y307D02*
X7Y307D01*
X16Y307D02*
X23Y307D01*
X708Y307D02*
X715Y307D01*
X2013Y307D02*
X2020Y307D01*
X0Y306D02*
X7Y306D01*
X16Y306D02*
X23Y306D01*
X708Y306D02*
X715Y306D01*
X2013Y306D02*
X2020Y306D01*
X0Y305D02*
X7Y305D01*
X16Y305D02*
X23Y305D01*
X708Y305D02*
X715Y305D01*
X2013Y305D02*
X2020Y305D01*
X0Y304D02*
X7Y304D01*
X16Y304D02*
X23Y304D01*
X708Y304D02*
X715Y304D01*
X2013Y304D02*
X2020Y304D01*
X0Y303D02*
X7Y303D01*
X16Y303D02*
X23Y303D01*
X708Y303D02*
X715Y303D01*
X2013Y303D02*
X2020Y303D01*
X0Y302D02*
X7Y302D01*
X16Y302D02*
X23Y302D01*
X708Y302D02*
X715Y302D01*
X2013Y302D02*
X2020Y302D01*
X0Y301D02*
X7Y301D01*
X16Y301D02*
X23Y301D01*
X708Y301D02*
X715Y301D01*
X2013Y301D02*
X2020Y301D01*
X0Y300D02*
X7Y300D01*
X16Y300D02*
X23Y300D01*
X708Y300D02*
X715Y300D01*
X2013Y300D02*
X2020Y300D01*
X0Y299D02*
X7Y299D01*
X16Y299D02*
X23Y299D01*
X708Y299D02*
X715Y299D01*
X2013Y299D02*
X2020Y299D01*
X0Y298D02*
X7Y298D01*
X16Y298D02*
X23Y298D01*
X708Y298D02*
X715Y298D01*
X2013Y298D02*
X2020Y298D01*
X0Y297D02*
X7Y297D01*
X16Y297D02*
X23Y297D01*
X708Y297D02*
X715Y297D01*
X2013Y297D02*
X2020Y297D01*
X0Y296D02*
X7Y296D01*
X16Y296D02*
X23Y296D01*
X708Y296D02*
X715Y296D01*
X2013Y296D02*
X2020Y296D01*
X0Y295D02*
X7Y295D01*
X16Y295D02*
X23Y295D01*
X708Y295D02*
X715Y295D01*
X2013Y295D02*
X2020Y295D01*
X0Y294D02*
X7Y294D01*
X16Y294D02*
X23Y294D01*
X708Y294D02*
X715Y294D01*
X2013Y294D02*
X2020Y294D01*
X0Y293D02*
X7Y293D01*
X16Y293D02*
X23Y293D01*
X708Y293D02*
X715Y293D01*
X2013Y293D02*
X2020Y293D01*
X0Y292D02*
X7Y292D01*
X16Y292D02*
X23Y292D01*
X708Y292D02*
X715Y292D01*
X2013Y292D02*
X2020Y292D01*
X0Y291D02*
X7Y291D01*
X16Y291D02*
X23Y291D01*
X708Y291D02*
X715Y291D01*
X2013Y291D02*
X2020Y291D01*
X0Y290D02*
X7Y290D01*
X16Y290D02*
X23Y290D01*
X708Y290D02*
X715Y290D01*
X2013Y290D02*
X2020Y290D01*
X0Y289D02*
X7Y289D01*
X16Y289D02*
X23Y289D01*
X107Y289D02*
X125Y289D01*
X607Y289D02*
X624Y289D01*
X708Y289D02*
X715Y289D01*
X2013Y289D02*
X2020Y289D01*
X0Y288D02*
X7Y288D01*
X16Y288D02*
X23Y288D01*
X102Y288D02*
X130Y288D01*
X602Y288D02*
X630Y288D01*
X708Y288D02*
X715Y288D01*
X2013Y288D02*
X2020Y288D01*
X0Y287D02*
X7Y287D01*
X16Y287D02*
X23Y287D01*
X98Y287D02*
X134Y287D01*
X598Y287D02*
X634Y287D01*
X708Y287D02*
X715Y287D01*
X2013Y287D02*
X2020Y287D01*
X0Y286D02*
X7Y286D01*
X16Y286D02*
X23Y286D01*
X95Y286D02*
X137Y286D01*
X595Y286D02*
X637Y286D01*
X708Y286D02*
X715Y286D01*
X2013Y286D02*
X2020Y286D01*
X0Y285D02*
X7Y285D01*
X16Y285D02*
X23Y285D01*
X92Y285D02*
X140Y285D01*
X592Y285D02*
X639Y285D01*
X708Y285D02*
X715Y285D01*
X2013Y285D02*
X2020Y285D01*
X0Y284D02*
X7Y284D01*
X16Y284D02*
X23Y284D01*
X90Y284D02*
X142Y284D01*
X590Y284D02*
X642Y284D01*
X708Y284D02*
X715Y284D01*
X2013Y284D02*
X2020Y284D01*
X0Y283D02*
X7Y283D01*
X16Y283D02*
X23Y283D01*
X88Y283D02*
X144Y283D01*
X588Y283D02*
X644Y283D01*
X708Y283D02*
X715Y283D01*
X2013Y283D02*
X2020Y283D01*
X0Y282D02*
X7Y282D01*
X16Y282D02*
X23Y282D01*
X86Y282D02*
X146Y282D01*
X586Y282D02*
X646Y282D01*
X708Y282D02*
X715Y282D01*
X2013Y282D02*
X2020Y282D01*
X0Y281D02*
X7Y281D01*
X16Y281D02*
X23Y281D01*
X84Y281D02*
X107Y281D01*
X125Y281D02*
X148Y281D01*
X584Y281D02*
X606Y281D01*
X625Y281D02*
X648Y281D01*
X708Y281D02*
X715Y281D01*
X2013Y281D02*
X2020Y281D01*
X0Y280D02*
X7Y280D01*
X16Y280D02*
X23Y280D01*
X82Y280D02*
X101Y280D01*
X130Y280D02*
X149Y280D01*
X582Y280D02*
X601Y280D01*
X630Y280D02*
X649Y280D01*
X708Y280D02*
X715Y280D01*
X2013Y280D02*
X2020Y280D01*
X0Y279D02*
X7Y279D01*
X16Y279D02*
X23Y279D01*
X81Y279D02*
X98Y279D01*
X134Y279D02*
X151Y279D01*
X581Y279D02*
X598Y279D01*
X634Y279D02*
X651Y279D01*
X708Y279D02*
X715Y279D01*
X2013Y279D02*
X2020Y279D01*
X0Y278D02*
X7Y278D01*
X16Y278D02*
X23Y278D01*
X79Y278D02*
X95Y278D01*
X137Y278D02*
X153Y278D01*
X579Y278D02*
X595Y278D01*
X637Y278D02*
X652Y278D01*
X708Y278D02*
X715Y278D01*
X2013Y278D02*
X2020Y278D01*
X0Y277D02*
X7Y277D01*
X16Y277D02*
X23Y277D01*
X78Y277D02*
X93Y277D01*
X139Y277D02*
X154Y277D01*
X578Y277D02*
X592Y277D01*
X639Y277D02*
X654Y277D01*
X708Y277D02*
X715Y277D01*
X2013Y277D02*
X2020Y277D01*
X0Y276D02*
X7Y276D01*
X16Y276D02*
X23Y276D01*
X77Y276D02*
X90Y276D01*
X141Y276D02*
X155Y276D01*
X576Y276D02*
X590Y276D01*
X641Y276D02*
X655Y276D01*
X708Y276D02*
X715Y276D01*
X2013Y276D02*
X2020Y276D01*
X0Y275D02*
X7Y275D01*
X16Y275D02*
X23Y275D01*
X75Y275D02*
X88Y275D01*
X143Y275D02*
X157Y275D01*
X575Y275D02*
X588Y275D01*
X643Y275D02*
X656Y275D01*
X708Y275D02*
X715Y275D01*
X2013Y275D02*
X2020Y275D01*
X0Y274D02*
X7Y274D01*
X16Y274D02*
X23Y274D01*
X74Y274D02*
X87Y274D01*
X145Y274D02*
X158Y274D01*
X574Y274D02*
X587Y274D01*
X645Y274D02*
X658Y274D01*
X708Y274D02*
X715Y274D01*
X2013Y274D02*
X2020Y274D01*
X0Y273D02*
X7Y273D01*
X16Y273D02*
X23Y273D01*
X73Y273D02*
X85Y273D01*
X147Y273D02*
X159Y273D01*
X573Y273D02*
X585Y273D01*
X647Y273D02*
X659Y273D01*
X708Y273D02*
X715Y273D01*
X2013Y273D02*
X2020Y273D01*
X0Y272D02*
X7Y272D01*
X16Y272D02*
X23Y272D01*
X72Y272D02*
X84Y272D01*
X148Y272D02*
X160Y272D01*
X572Y272D02*
X583Y272D01*
X648Y272D02*
X660Y272D01*
X708Y272D02*
X715Y272D01*
X2013Y272D02*
X2020Y272D01*
X0Y271D02*
X7Y271D01*
X16Y271D02*
X23Y271D01*
X71Y271D02*
X82Y271D01*
X150Y271D02*
X161Y271D01*
X571Y271D02*
X582Y271D01*
X650Y271D02*
X661Y271D01*
X708Y271D02*
X715Y271D01*
X2013Y271D02*
X2020Y271D01*
X0Y270D02*
X7Y270D01*
X16Y270D02*
X23Y270D01*
X70Y270D02*
X81Y270D01*
X151Y270D02*
X162Y270D01*
X570Y270D02*
X581Y270D01*
X651Y270D02*
X662Y270D01*
X708Y270D02*
X715Y270D01*
X2013Y270D02*
X2020Y270D01*
X0Y269D02*
X7Y269D01*
X16Y269D02*
X23Y269D01*
X69Y269D02*
X80Y269D01*
X152Y269D02*
X163Y269D01*
X569Y269D02*
X579Y269D01*
X652Y269D02*
X663Y269D01*
X708Y269D02*
X715Y269D01*
X2013Y269D02*
X2020Y269D01*
X0Y268D02*
X7Y268D01*
X16Y268D02*
X23Y268D01*
X68Y268D02*
X78Y268D01*
X154Y268D02*
X164Y268D01*
X568Y268D02*
X578Y268D01*
X653Y268D02*
X664Y268D01*
X708Y268D02*
X715Y268D01*
X2013Y268D02*
X2020Y268D01*
X0Y267D02*
X7Y267D01*
X16Y267D02*
X23Y267D01*
X67Y267D02*
X77Y267D01*
X155Y267D02*
X165Y267D01*
X567Y267D02*
X577Y267D01*
X654Y267D02*
X665Y267D01*
X708Y267D02*
X715Y267D01*
X2013Y267D02*
X2020Y267D01*
X0Y266D02*
X7Y266D01*
X16Y266D02*
X23Y266D01*
X66Y266D02*
X76Y266D01*
X156Y266D02*
X166Y266D01*
X566Y266D02*
X576Y266D01*
X656Y266D02*
X665Y266D01*
X708Y266D02*
X715Y266D01*
X2013Y266D02*
X2020Y266D01*
X0Y265D02*
X7Y265D01*
X16Y265D02*
X23Y265D01*
X66Y265D02*
X75Y265D01*
X157Y265D02*
X166Y265D01*
X565Y265D02*
X575Y265D01*
X657Y265D02*
X666Y265D01*
X708Y265D02*
X715Y265D01*
X2013Y265D02*
X2020Y265D01*
X0Y264D02*
X7Y264D01*
X16Y264D02*
X23Y264D01*
X65Y264D02*
X74Y264D01*
X158Y264D02*
X167Y264D01*
X565Y264D02*
X574Y264D01*
X658Y264D02*
X667Y264D01*
X708Y264D02*
X715Y264D01*
X2013Y264D02*
X2020Y264D01*
X0Y263D02*
X7Y263D01*
X16Y263D02*
X23Y263D01*
X64Y263D02*
X73Y263D01*
X159Y263D02*
X168Y263D01*
X564Y263D02*
X573Y263D01*
X658Y263D02*
X668Y263D01*
X708Y263D02*
X715Y263D01*
X2013Y263D02*
X2020Y263D01*
X0Y262D02*
X7Y262D01*
X16Y262D02*
X23Y262D01*
X63Y262D02*
X72Y262D01*
X160Y262D02*
X169Y262D01*
X563Y262D02*
X572Y262D01*
X659Y262D02*
X668Y262D01*
X708Y262D02*
X715Y262D01*
X2013Y262D02*
X2020Y262D01*
X0Y261D02*
X7Y261D01*
X16Y261D02*
X23Y261D01*
X63Y261D02*
X71Y261D01*
X160Y261D02*
X169Y261D01*
X562Y261D02*
X571Y261D01*
X660Y261D02*
X669Y261D01*
X708Y261D02*
X715Y261D01*
X2013Y261D02*
X2020Y261D01*
X0Y260D02*
X7Y260D01*
X16Y260D02*
X23Y260D01*
X62Y260D02*
X71Y260D01*
X161Y260D02*
X170Y260D01*
X562Y260D02*
X571Y260D01*
X661Y260D02*
X670Y260D01*
X708Y260D02*
X715Y260D01*
X2013Y260D02*
X2020Y260D01*
X0Y259D02*
X7Y259D01*
X16Y259D02*
X23Y259D01*
X61Y259D02*
X70Y259D01*
X162Y259D02*
X171Y259D01*
X561Y259D02*
X570Y259D01*
X662Y259D02*
X670Y259D01*
X708Y259D02*
X715Y259D01*
X2013Y259D02*
X2020Y259D01*
X0Y258D02*
X7Y258D01*
X16Y258D02*
X23Y258D01*
X61Y258D02*
X69Y258D01*
X163Y258D02*
X171Y258D01*
X561Y258D02*
X569Y258D01*
X663Y258D02*
X671Y258D01*
X708Y258D02*
X715Y258D01*
X2013Y258D02*
X2020Y258D01*
X0Y257D02*
X7Y257D01*
X16Y257D02*
X23Y257D01*
X60Y257D02*
X68Y257D01*
X163Y257D02*
X172Y257D01*
X560Y257D02*
X568Y257D01*
X663Y257D02*
X672Y257D01*
X708Y257D02*
X715Y257D01*
X2013Y257D02*
X2020Y257D01*
X0Y256D02*
X7Y256D01*
X16Y256D02*
X23Y256D01*
X60Y256D02*
X68Y256D01*
X164Y256D02*
X172Y256D01*
X559Y256D02*
X568Y256D01*
X664Y256D02*
X672Y256D01*
X708Y256D02*
X715Y256D01*
X2013Y256D02*
X2020Y256D01*
X0Y255D02*
X7Y255D01*
X16Y255D02*
X23Y255D01*
X59Y255D02*
X67Y255D01*
X165Y255D02*
X173Y255D01*
X559Y255D02*
X567Y255D01*
X665Y255D02*
X673Y255D01*
X708Y255D02*
X715Y255D01*
X2013Y255D02*
X2020Y255D01*
X0Y254D02*
X7Y254D01*
X16Y254D02*
X23Y254D01*
X59Y254D02*
X67Y254D01*
X165Y254D02*
X173Y254D01*
X558Y254D02*
X566Y254D01*
X665Y254D02*
X673Y254D01*
X708Y254D02*
X715Y254D01*
X2013Y254D02*
X2020Y254D01*
X0Y253D02*
X7Y253D01*
X16Y253D02*
X23Y253D01*
X58Y253D02*
X66Y253D01*
X166Y253D02*
X174Y253D01*
X558Y253D02*
X566Y253D01*
X666Y253D02*
X674Y253D01*
X708Y253D02*
X715Y253D01*
X2013Y253D02*
X2020Y253D01*
X0Y252D02*
X7Y252D01*
X16Y252D02*
X23Y252D01*
X58Y252D02*
X65Y252D01*
X167Y252D02*
X174Y252D01*
X557Y252D02*
X565Y252D01*
X666Y252D02*
X674Y252D01*
X708Y252D02*
X715Y252D01*
X2013Y252D02*
X2020Y252D01*
X0Y251D02*
X7Y251D01*
X16Y251D02*
X23Y251D01*
X57Y251D02*
X65Y251D01*
X167Y251D02*
X175Y251D01*
X557Y251D02*
X565Y251D01*
X667Y251D02*
X675Y251D01*
X708Y251D02*
X715Y251D01*
X2013Y251D02*
X2020Y251D01*
X0Y250D02*
X7Y250D01*
X16Y250D02*
X23Y250D01*
X57Y250D02*
X64Y250D01*
X168Y250D02*
X175Y250D01*
X556Y250D02*
X564Y250D01*
X667Y250D02*
X675Y250D01*
X708Y250D02*
X715Y250D01*
X2013Y250D02*
X2020Y250D01*
X0Y249D02*
X7Y249D01*
X16Y249D02*
X23Y249D01*
X56Y249D02*
X64Y249D01*
X168Y249D02*
X176Y249D01*
X556Y249D02*
X564Y249D01*
X668Y249D02*
X675Y249D01*
X708Y249D02*
X715Y249D01*
X2013Y249D02*
X2020Y249D01*
X0Y248D02*
X7Y248D01*
X16Y248D02*
X23Y248D01*
X56Y248D02*
X63Y248D01*
X169Y248D02*
X176Y248D01*
X556Y248D02*
X563Y248D01*
X668Y248D02*
X676Y248D01*
X708Y248D02*
X715Y248D01*
X2013Y248D02*
X2020Y248D01*
X0Y247D02*
X7Y247D01*
X16Y247D02*
X23Y247D01*
X56Y247D02*
X63Y247D01*
X169Y247D02*
X176Y247D01*
X555Y247D02*
X563Y247D01*
X669Y247D02*
X676Y247D01*
X708Y247D02*
X715Y247D01*
X2013Y247D02*
X2020Y247D01*
X0Y246D02*
X7Y246D01*
X16Y246D02*
X23Y246D01*
X55Y246D02*
X63Y246D01*
X169Y246D02*
X177Y246D01*
X555Y246D02*
X562Y246D01*
X669Y246D02*
X677Y246D01*
X708Y246D02*
X715Y246D01*
X2013Y246D02*
X2020Y246D01*
X0Y245D02*
X7Y245D01*
X16Y245D02*
X23Y245D01*
X55Y245D02*
X62Y245D01*
X170Y245D02*
X177Y245D01*
X555Y245D02*
X562Y245D01*
X670Y245D02*
X677Y245D01*
X708Y245D02*
X715Y245D01*
X2013Y245D02*
X2020Y245D01*
X0Y244D02*
X7Y244D01*
X16Y244D02*
X23Y244D01*
X54Y244D02*
X62Y244D01*
X170Y244D02*
X177Y244D01*
X554Y244D02*
X562Y244D01*
X670Y244D02*
X677Y244D01*
X708Y244D02*
X715Y244D01*
X2013Y244D02*
X2020Y244D01*
X0Y243D02*
X7Y243D01*
X16Y243D02*
X23Y243D01*
X54Y243D02*
X61Y243D01*
X170Y243D02*
X178Y243D01*
X554Y243D02*
X561Y243D01*
X670Y243D02*
X678Y243D01*
X708Y243D02*
X715Y243D01*
X2013Y243D02*
X2020Y243D01*
X0Y242D02*
X7Y242D01*
X16Y242D02*
X23Y242D01*
X54Y242D02*
X61Y242D01*
X171Y242D02*
X178Y242D01*
X554Y242D02*
X561Y242D01*
X671Y242D02*
X678Y242D01*
X708Y242D02*
X715Y242D01*
X2013Y242D02*
X2020Y242D01*
X0Y241D02*
X7Y241D01*
X16Y241D02*
X23Y241D01*
X54Y241D02*
X61Y241D01*
X171Y241D02*
X178Y241D01*
X554Y241D02*
X561Y241D01*
X671Y241D02*
X678Y241D01*
X708Y241D02*
X715Y241D01*
X2013Y241D02*
X2020Y241D01*
X0Y240D02*
X7Y240D01*
X16Y240D02*
X23Y240D01*
X53Y240D02*
X61Y240D01*
X171Y240D02*
X179Y240D01*
X553Y240D02*
X560Y240D01*
X671Y240D02*
X678Y240D01*
X708Y240D02*
X715Y240D01*
X2013Y240D02*
X2020Y240D01*
X0Y239D02*
X7Y239D01*
X16Y239D02*
X23Y239D01*
X53Y239D02*
X60Y239D01*
X172Y239D02*
X179Y239D01*
X553Y239D02*
X560Y239D01*
X671Y239D02*
X679Y239D01*
X708Y239D02*
X715Y239D01*
X2013Y239D02*
X2020Y239D01*
X0Y238D02*
X7Y238D01*
X16Y238D02*
X23Y238D01*
X53Y238D02*
X60Y238D01*
X172Y238D02*
X179Y238D01*
X553Y238D02*
X560Y238D01*
X672Y238D02*
X679Y238D01*
X708Y238D02*
X715Y238D01*
X2013Y238D02*
X2020Y238D01*
X0Y237D02*
X7Y237D01*
X16Y237D02*
X23Y237D01*
X53Y237D02*
X60Y237D01*
X172Y237D02*
X179Y237D01*
X553Y237D02*
X560Y237D01*
X672Y237D02*
X679Y237D01*
X708Y237D02*
X715Y237D01*
X2013Y237D02*
X2020Y237D01*
X0Y236D02*
X7Y236D01*
X16Y236D02*
X23Y236D01*
X53Y236D02*
X60Y236D01*
X172Y236D02*
X179Y236D01*
X552Y236D02*
X559Y236D01*
X672Y236D02*
X679Y236D01*
X708Y236D02*
X715Y236D01*
X2013Y236D02*
X2020Y236D01*
X0Y235D02*
X7Y235D01*
X16Y235D02*
X23Y235D01*
X52Y235D02*
X59Y235D01*
X173Y235D02*
X180Y235D01*
X552Y235D02*
X559Y235D01*
X672Y235D02*
X679Y235D01*
X708Y235D02*
X715Y235D01*
X2013Y235D02*
X2020Y235D01*
X0Y234D02*
X7Y234D01*
X16Y234D02*
X23Y234D01*
X52Y234D02*
X59Y234D01*
X173Y234D02*
X180Y234D01*
X552Y234D02*
X559Y234D01*
X672Y234D02*
X680Y234D01*
X708Y234D02*
X715Y234D01*
X2013Y234D02*
X2020Y234D01*
X0Y233D02*
X7Y233D01*
X16Y233D02*
X23Y233D01*
X52Y233D02*
X59Y233D01*
X173Y233D02*
X180Y233D01*
X552Y233D02*
X559Y233D01*
X673Y233D02*
X680Y233D01*
X708Y233D02*
X715Y233D01*
X2013Y233D02*
X2020Y233D01*
X0Y232D02*
X7Y232D01*
X16Y232D02*
X23Y232D01*
X52Y232D02*
X59Y232D01*
X173Y232D02*
X180Y232D01*
X552Y232D02*
X559Y232D01*
X673Y232D02*
X680Y232D01*
X708Y232D02*
X715Y232D01*
X2013Y232D02*
X2020Y232D01*
X0Y231D02*
X7Y231D01*
X16Y231D02*
X23Y231D01*
X52Y231D02*
X59Y231D01*
X173Y231D02*
X180Y231D01*
X552Y231D02*
X559Y231D01*
X673Y231D02*
X680Y231D01*
X708Y231D02*
X715Y231D01*
X2013Y231D02*
X2020Y231D01*
X0Y230D02*
X7Y230D01*
X16Y230D02*
X23Y230D01*
X52Y230D02*
X59Y230D01*
X173Y230D02*
X180Y230D01*
X552Y230D02*
X559Y230D01*
X673Y230D02*
X680Y230D01*
X708Y230D02*
X715Y230D01*
X2013Y230D02*
X2020Y230D01*
X0Y229D02*
X7Y229D01*
X16Y229D02*
X23Y229D01*
X52Y229D02*
X59Y229D01*
X173Y229D02*
X180Y229D01*
X552Y229D02*
X559Y229D01*
X673Y229D02*
X680Y229D01*
X708Y229D02*
X715Y229D01*
X2013Y229D02*
X2020Y229D01*
X0Y228D02*
X7Y228D01*
X16Y228D02*
X23Y228D01*
X52Y228D02*
X59Y228D01*
X173Y228D02*
X180Y228D01*
X551Y228D02*
X558Y228D01*
X673Y228D02*
X680Y228D01*
X708Y228D02*
X715Y228D01*
X2013Y228D02*
X2020Y228D01*
X0Y227D02*
X7Y227D01*
X16Y227D02*
X23Y227D01*
X52Y227D02*
X59Y227D01*
X173Y227D02*
X180Y227D01*
X551Y227D02*
X558Y227D01*
X673Y227D02*
X680Y227D01*
X708Y227D02*
X715Y227D01*
X2013Y227D02*
X2020Y227D01*
X0Y226D02*
X7Y226D01*
X16Y226D02*
X23Y226D01*
X52Y226D02*
X59Y226D01*
X173Y226D02*
X180Y226D01*
X551Y226D02*
X558Y226D01*
X673Y226D02*
X680Y226D01*
X708Y226D02*
X715Y226D01*
X2013Y226D02*
X2020Y226D01*
X0Y225D02*
X7Y225D01*
X16Y225D02*
X23Y225D01*
X51Y225D02*
X58Y225D01*
X173Y225D02*
X180Y225D01*
X551Y225D02*
X558Y225D01*
X673Y225D02*
X680Y225D01*
X708Y225D02*
X715Y225D01*
X2013Y225D02*
X2020Y225D01*
X0Y224D02*
X7Y224D01*
X16Y224D02*
X23Y224D01*
X52Y224D02*
X59Y224D01*
X173Y224D02*
X180Y224D01*
X551Y224D02*
X558Y224D01*
X673Y224D02*
X680Y224D01*
X708Y224D02*
X715Y224D01*
X2013Y224D02*
X2020Y224D01*
X0Y223D02*
X7Y223D01*
X16Y223D02*
X23Y223D01*
X52Y223D02*
X59Y223D01*
X173Y223D02*
X180Y223D01*
X551Y223D02*
X558Y223D01*
X673Y223D02*
X680Y223D01*
X708Y223D02*
X715Y223D01*
X2013Y223D02*
X2020Y223D01*
X0Y222D02*
X7Y222D01*
X16Y222D02*
X23Y222D01*
X52Y222D02*
X59Y222D01*
X173Y222D02*
X180Y222D01*
X551Y222D02*
X558Y222D01*
X673Y222D02*
X680Y222D01*
X708Y222D02*
X715Y222D01*
X2013Y222D02*
X2020Y222D01*
X0Y221D02*
X7Y221D01*
X16Y221D02*
X23Y221D01*
X52Y221D02*
X59Y221D01*
X173Y221D02*
X180Y221D01*
X552Y221D02*
X558Y221D01*
X673Y221D02*
X680Y221D01*
X708Y221D02*
X715Y221D01*
X2013Y221D02*
X2020Y221D01*
X0Y220D02*
X7Y220D01*
X16Y220D02*
X23Y220D01*
X52Y220D02*
X59Y220D01*
X173Y220D02*
X180Y220D01*
X552Y220D02*
X559Y220D01*
X673Y220D02*
X680Y220D01*
X708Y220D02*
X715Y220D01*
X2013Y220D02*
X2020Y220D01*
X0Y219D02*
X7Y219D01*
X16Y219D02*
X23Y219D01*
X52Y219D02*
X59Y219D01*
X173Y219D02*
X180Y219D01*
X552Y219D02*
X559Y219D01*
X673Y219D02*
X680Y219D01*
X708Y219D02*
X715Y219D01*
X2013Y219D02*
X2020Y219D01*
X0Y218D02*
X7Y218D01*
X16Y218D02*
X23Y218D01*
X52Y218D02*
X59Y218D01*
X173Y218D02*
X180Y218D01*
X552Y218D02*
X559Y218D01*
X673Y218D02*
X680Y218D01*
X708Y218D02*
X715Y218D01*
X2013Y218D02*
X2020Y218D01*
X0Y217D02*
X7Y217D01*
X16Y217D02*
X23Y217D01*
X52Y217D02*
X59Y217D01*
X173Y217D02*
X180Y217D01*
X552Y217D02*
X559Y217D01*
X673Y217D02*
X680Y217D01*
X708Y217D02*
X715Y217D01*
X2013Y217D02*
X2020Y217D01*
X0Y216D02*
X7Y216D01*
X16Y216D02*
X23Y216D01*
X52Y216D02*
X59Y216D01*
X173Y216D02*
X180Y216D01*
X552Y216D02*
X559Y216D01*
X673Y216D02*
X680Y216D01*
X708Y216D02*
X715Y216D01*
X2013Y216D02*
X2020Y216D01*
X0Y215D02*
X7Y215D01*
X16Y215D02*
X23Y215D01*
X52Y215D02*
X59Y215D01*
X173Y215D02*
X180Y215D01*
X552Y215D02*
X559Y215D01*
X672Y215D02*
X679Y215D01*
X708Y215D02*
X715Y215D01*
X2013Y215D02*
X2020Y215D01*
X0Y214D02*
X7Y214D01*
X16Y214D02*
X23Y214D01*
X52Y214D02*
X59Y214D01*
X172Y214D02*
X179Y214D01*
X552Y214D02*
X559Y214D01*
X672Y214D02*
X679Y214D01*
X708Y214D02*
X715Y214D01*
X2013Y214D02*
X2020Y214D01*
X0Y213D02*
X7Y213D01*
X16Y213D02*
X23Y213D01*
X53Y213D02*
X60Y213D01*
X172Y213D02*
X179Y213D01*
X552Y213D02*
X559Y213D01*
X672Y213D02*
X679Y213D01*
X708Y213D02*
X715Y213D01*
X2013Y213D02*
X2020Y213D01*
X0Y212D02*
X7Y212D01*
X16Y212D02*
X23Y212D01*
X53Y212D02*
X60Y212D01*
X172Y212D02*
X179Y212D01*
X553Y212D02*
X560Y212D01*
X672Y212D02*
X679Y212D01*
X708Y212D02*
X715Y212D01*
X2013Y212D02*
X2020Y212D01*
X0Y211D02*
X7Y211D01*
X16Y211D02*
X23Y211D01*
X53Y211D02*
X60Y211D01*
X172Y211D02*
X179Y211D01*
X553Y211D02*
X560Y211D01*
X672Y211D02*
X679Y211D01*
X708Y211D02*
X715Y211D01*
X2013Y211D02*
X2020Y211D01*
X0Y210D02*
X7Y210D01*
X16Y210D02*
X23Y210D01*
X53Y210D02*
X60Y210D01*
X171Y210D02*
X179Y210D01*
X553Y210D02*
X560Y210D01*
X671Y210D02*
X678Y210D01*
X708Y210D02*
X715Y210D01*
X2013Y210D02*
X2020Y210D01*
X0Y209D02*
X7Y209D01*
X16Y209D02*
X23Y209D01*
X54Y209D02*
X61Y209D01*
X171Y209D02*
X178Y209D01*
X553Y209D02*
X561Y209D01*
X671Y209D02*
X678Y209D01*
X708Y209D02*
X715Y209D01*
X2013Y209D02*
X2020Y209D01*
X0Y208D02*
X7Y208D01*
X16Y208D02*
X23Y208D01*
X54Y208D02*
X61Y208D01*
X171Y208D02*
X178Y208D01*
X554Y208D02*
X561Y208D01*
X671Y208D02*
X678Y208D01*
X708Y208D02*
X715Y208D01*
X2013Y208D02*
X2020Y208D01*
X0Y207D02*
X7Y207D01*
X16Y207D02*
X23Y207D01*
X54Y207D02*
X61Y207D01*
X171Y207D02*
X178Y207D01*
X554Y207D02*
X561Y207D01*
X670Y207D02*
X678Y207D01*
X708Y207D02*
X715Y207D01*
X2013Y207D02*
X2020Y207D01*
X0Y206D02*
X7Y206D01*
X16Y206D02*
X23Y206D01*
X54Y206D02*
X62Y206D01*
X170Y206D02*
X178Y206D01*
X554Y206D02*
X561Y206D01*
X670Y206D02*
X677Y206D01*
X708Y206D02*
X715Y206D01*
X2013Y206D02*
X2020Y206D01*
X0Y205D02*
X7Y205D01*
X16Y205D02*
X23Y205D01*
X55Y205D02*
X62Y205D01*
X170Y205D02*
X177Y205D01*
X554Y205D02*
X562Y205D01*
X670Y205D02*
X677Y205D01*
X708Y205D02*
X715Y205D01*
X2013Y205D02*
X2020Y205D01*
X0Y204D02*
X7Y204D01*
X16Y204D02*
X23Y204D01*
X55Y204D02*
X62Y204D01*
X170Y204D02*
X177Y204D01*
X555Y204D02*
X562Y204D01*
X669Y204D02*
X677Y204D01*
X708Y204D02*
X715Y204D01*
X2013Y204D02*
X2020Y204D01*
X0Y203D02*
X7Y203D01*
X16Y203D02*
X23Y203D01*
X55Y203D02*
X63Y203D01*
X169Y203D02*
X177Y203D01*
X555Y203D02*
X563Y203D01*
X669Y203D02*
X676Y203D01*
X708Y203D02*
X715Y203D01*
X2013Y203D02*
X2020Y203D01*
X0Y202D02*
X7Y202D01*
X16Y202D02*
X23Y202D01*
X56Y202D02*
X63Y202D01*
X169Y202D02*
X176Y202D01*
X556Y202D02*
X563Y202D01*
X669Y202D02*
X676Y202D01*
X708Y202D02*
X715Y202D01*
X2013Y202D02*
X2020Y202D01*
X0Y201D02*
X7Y201D01*
X16Y201D02*
X23Y201D01*
X56Y201D02*
X64Y201D01*
X168Y201D02*
X176Y201D01*
X556Y201D02*
X563Y201D01*
X668Y201D02*
X676Y201D01*
X708Y201D02*
X715Y201D01*
X2013Y201D02*
X2020Y201D01*
X0Y200D02*
X7Y200D01*
X16Y200D02*
X23Y200D01*
X56Y200D02*
X64Y200D01*
X168Y200D02*
X175Y200D01*
X556Y200D02*
X564Y200D01*
X668Y200D02*
X675Y200D01*
X708Y200D02*
X715Y200D01*
X2013Y200D02*
X2020Y200D01*
X0Y199D02*
X7Y199D01*
X16Y199D02*
X23Y199D01*
X57Y199D02*
X65Y199D01*
X167Y199D02*
X175Y199D01*
X557Y199D02*
X564Y199D01*
X667Y199D02*
X675Y199D01*
X708Y199D02*
X715Y199D01*
X2013Y199D02*
X2020Y199D01*
X0Y198D02*
X7Y198D01*
X16Y198D02*
X23Y198D01*
X57Y198D02*
X65Y198D01*
X167Y198D02*
X175Y198D01*
X557Y198D02*
X565Y198D01*
X667Y198D02*
X674Y198D01*
X708Y198D02*
X715Y198D01*
X2013Y198D02*
X2020Y198D01*
X0Y197D02*
X7Y197D01*
X16Y197D02*
X23Y197D01*
X58Y197D02*
X66Y197D01*
X166Y197D02*
X174Y197D01*
X558Y197D02*
X565Y197D01*
X666Y197D02*
X674Y197D01*
X708Y197D02*
X715Y197D01*
X2013Y197D02*
X2020Y197D01*
X0Y196D02*
X7Y196D01*
X16Y196D02*
X23Y196D01*
X58Y196D02*
X66Y196D01*
X166Y196D02*
X174Y196D01*
X558Y196D02*
X566Y196D01*
X666Y196D02*
X673Y196D01*
X708Y196D02*
X715Y196D01*
X2013Y196D02*
X2020Y196D01*
X0Y195D02*
X7Y195D01*
X16Y195D02*
X23Y195D01*
X59Y195D02*
X67Y195D01*
X165Y195D02*
X173Y195D01*
X559Y195D02*
X567Y195D01*
X665Y195D02*
X673Y195D01*
X708Y195D02*
X715Y195D01*
X2013Y195D02*
X2020Y195D01*
X0Y194D02*
X7Y194D01*
X16Y194D02*
X23Y194D01*
X59Y194D02*
X67Y194D01*
X164Y194D02*
X173Y194D01*
X559Y194D02*
X567Y194D01*
X664Y194D02*
X672Y194D01*
X708Y194D02*
X715Y194D01*
X2013Y194D02*
X2020Y194D01*
X0Y193D02*
X7Y193D01*
X16Y193D02*
X23Y193D01*
X60Y193D02*
X68Y193D01*
X164Y193D02*
X172Y193D01*
X560Y193D02*
X568Y193D01*
X664Y193D02*
X672Y193D01*
X708Y193D02*
X715Y193D01*
X2013Y193D02*
X2020Y193D01*
X0Y192D02*
X7Y192D01*
X16Y192D02*
X23Y192D01*
X60Y192D02*
X69Y192D01*
X163Y192D02*
X171Y192D01*
X560Y192D02*
X569Y192D01*
X663Y192D02*
X671Y192D01*
X708Y192D02*
X715Y192D01*
X2013Y192D02*
X2020Y192D01*
X0Y191D02*
X7Y191D01*
X16Y191D02*
X23Y191D01*
X61Y191D02*
X70Y191D01*
X162Y191D02*
X171Y191D01*
X561Y191D02*
X569Y191D01*
X662Y191D02*
X671Y191D01*
X708Y191D02*
X715Y191D01*
X2013Y191D02*
X2020Y191D01*
X0Y190D02*
X7Y190D01*
X16Y190D02*
X23Y190D01*
X62Y190D02*
X70Y190D01*
X162Y190D02*
X170Y190D01*
X562Y190D02*
X570Y190D01*
X661Y190D02*
X670Y190D01*
X708Y190D02*
X715Y190D01*
X2013Y190D02*
X2020Y190D01*
X0Y189D02*
X7Y189D01*
X16Y189D02*
X23Y189D01*
X62Y189D02*
X71Y189D01*
X161Y189D02*
X170Y189D01*
X562Y189D02*
X571Y189D01*
X661Y189D02*
X669Y189D01*
X708Y189D02*
X715Y189D01*
X2013Y189D02*
X2020Y189D01*
X0Y188D02*
X7Y188D01*
X16Y188D02*
X23Y188D01*
X63Y188D02*
X72Y188D01*
X160Y188D02*
X169Y188D01*
X563Y188D02*
X572Y188D01*
X660Y188D02*
X669Y188D01*
X708Y188D02*
X715Y188D01*
X2013Y188D02*
X2020Y188D01*
X0Y187D02*
X7Y187D01*
X16Y187D02*
X23Y187D01*
X64Y187D02*
X73Y187D01*
X159Y187D02*
X168Y187D01*
X564Y187D02*
X573Y187D01*
X659Y187D02*
X668Y187D01*
X708Y187D02*
X715Y187D01*
X2013Y187D02*
X2020Y187D01*
X0Y186D02*
X7Y186D01*
X16Y186D02*
X23Y186D01*
X64Y186D02*
X74Y186D01*
X158Y186D02*
X167Y186D01*
X564Y186D02*
X574Y186D01*
X658Y186D02*
X667Y186D01*
X708Y186D02*
X715Y186D01*
X2013Y186D02*
X2020Y186D01*
X0Y185D02*
X7Y185D01*
X16Y185D02*
X23Y185D01*
X65Y185D02*
X75Y185D01*
X157Y185D02*
X167Y185D01*
X565Y185D02*
X575Y185D01*
X657Y185D02*
X667Y185D01*
X708Y185D02*
X715Y185D01*
X2013Y185D02*
X2020Y185D01*
X0Y184D02*
X7Y184D01*
X16Y184D02*
X23Y184D01*
X66Y184D02*
X76Y184D01*
X156Y184D02*
X166Y184D01*
X566Y184D02*
X576Y184D01*
X656Y184D02*
X666Y184D01*
X708Y184D02*
X715Y184D01*
X2013Y184D02*
X2020Y184D01*
X0Y183D02*
X7Y183D01*
X16Y183D02*
X23Y183D01*
X67Y183D02*
X77Y183D01*
X155Y183D02*
X165Y183D01*
X567Y183D02*
X577Y183D01*
X655Y183D02*
X665Y183D01*
X708Y183D02*
X715Y183D01*
X2013Y183D02*
X2020Y183D01*
X0Y182D02*
X7Y182D01*
X16Y182D02*
X23Y182D01*
X68Y182D02*
X78Y182D01*
X154Y182D02*
X164Y182D01*
X567Y182D02*
X578Y182D01*
X654Y182D02*
X664Y182D01*
X708Y182D02*
X715Y182D01*
X2013Y182D02*
X2020Y182D01*
X0Y181D02*
X7Y181D01*
X16Y181D02*
X23Y181D01*
X69Y181D02*
X79Y181D01*
X153Y181D02*
X163Y181D01*
X568Y181D02*
X579Y181D01*
X653Y181D02*
X663Y181D01*
X708Y181D02*
X715Y181D01*
X2013Y181D02*
X2020Y181D01*
X0Y180D02*
X7Y180D01*
X16Y180D02*
X23Y180D01*
X69Y180D02*
X80Y180D01*
X152Y180D02*
X162Y180D01*
X569Y180D02*
X580Y180D01*
X652Y180D02*
X662Y180D01*
X708Y180D02*
X715Y180D01*
X2013Y180D02*
X2020Y180D01*
X0Y179D02*
X7Y179D01*
X16Y179D02*
X23Y179D01*
X70Y179D02*
X82Y179D01*
X150Y179D02*
X162Y179D01*
X570Y179D02*
X581Y179D01*
X650Y179D02*
X661Y179D01*
X708Y179D02*
X715Y179D01*
X2013Y179D02*
X2020Y179D01*
X0Y178D02*
X7Y178D01*
X16Y178D02*
X23Y178D01*
X71Y178D02*
X83Y178D01*
X149Y178D02*
X161Y178D01*
X571Y178D02*
X583Y178D01*
X649Y178D02*
X660Y178D01*
X708Y178D02*
X715Y178D01*
X2013Y178D02*
X2020Y178D01*
X0Y177D02*
X7Y177D01*
X16Y177D02*
X23Y177D01*
X72Y177D02*
X84Y177D01*
X148Y177D02*
X159Y177D01*
X572Y177D02*
X584Y177D01*
X647Y177D02*
X659Y177D01*
X708Y177D02*
X715Y177D01*
X2013Y177D02*
X2020Y177D01*
X0Y176D02*
X7Y176D01*
X16Y176D02*
X23Y176D01*
X74Y176D02*
X86Y176D01*
X146Y176D02*
X158Y176D01*
X573Y176D02*
X586Y176D01*
X646Y176D02*
X658Y176D01*
X708Y176D02*
X715Y176D01*
X2013Y176D02*
X2020Y176D01*
X0Y175D02*
X7Y175D01*
X16Y175D02*
X23Y175D01*
X75Y175D02*
X88Y175D01*
X144Y175D02*
X157Y175D01*
X575Y175D02*
X587Y175D01*
X644Y175D02*
X657Y175D01*
X708Y175D02*
X715Y175D01*
X2013Y175D02*
X2020Y175D01*
X0Y174D02*
X7Y174D01*
X16Y174D02*
X23Y174D01*
X76Y174D02*
X89Y174D01*
X142Y174D02*
X156Y174D01*
X576Y174D02*
X589Y174D01*
X642Y174D02*
X656Y174D01*
X708Y174D02*
X715Y174D01*
X2013Y174D02*
X2020Y174D01*
X0Y173D02*
X7Y173D01*
X16Y173D02*
X23Y173D01*
X77Y173D02*
X92Y173D01*
X140Y173D02*
X155Y173D01*
X577Y173D02*
X591Y173D01*
X640Y173D02*
X654Y173D01*
X708Y173D02*
X715Y173D01*
X2013Y173D02*
X2020Y173D01*
X0Y172D02*
X7Y172D01*
X16Y172D02*
X23Y172D01*
X79Y172D02*
X94Y172D01*
X138Y172D02*
X153Y172D01*
X579Y172D02*
X594Y172D01*
X638Y172D02*
X653Y172D01*
X708Y172D02*
X715Y172D01*
X2013Y172D02*
X2020Y172D01*
X0Y171D02*
X7Y171D01*
X16Y171D02*
X23Y171D01*
X80Y171D02*
X96Y171D01*
X135Y171D02*
X152Y171D01*
X580Y171D02*
X596Y171D01*
X635Y171D02*
X652Y171D01*
X708Y171D02*
X715Y171D01*
X2013Y171D02*
X2020Y171D01*
X0Y170D02*
X7Y170D01*
X16Y170D02*
X23Y170D01*
X82Y170D02*
X100Y170D01*
X132Y170D02*
X150Y170D01*
X581Y170D02*
X599Y170D01*
X632Y170D02*
X650Y170D01*
X708Y170D02*
X715Y170D01*
X2013Y170D02*
X2020Y170D01*
X0Y169D02*
X7Y169D01*
X16Y169D02*
X23Y169D01*
X83Y169D02*
X103Y169D01*
X128Y169D02*
X149Y169D01*
X583Y169D02*
X603Y169D01*
X628Y169D02*
X648Y169D01*
X708Y169D02*
X715Y169D01*
X2013Y169D02*
X2020Y169D01*
X0Y168D02*
X7Y168D01*
X16Y168D02*
X23Y168D01*
X85Y168D02*
X111Y168D01*
X121Y168D02*
X147Y168D01*
X585Y168D02*
X610Y168D01*
X621Y168D02*
X647Y168D01*
X708Y168D02*
X715Y168D01*
X2013Y168D02*
X2020Y168D01*
X0Y167D02*
X7Y167D01*
X16Y167D02*
X23Y167D01*
X87Y167D02*
X145Y167D01*
X587Y167D02*
X645Y167D01*
X708Y167D02*
X715Y167D01*
X2013Y167D02*
X2020Y167D01*
X0Y166D02*
X7Y166D01*
X16Y166D02*
X23Y166D01*
X89Y166D02*
X143Y166D01*
X589Y166D02*
X643Y166D01*
X708Y166D02*
X715Y166D01*
X2013Y166D02*
X2020Y166D01*
X0Y165D02*
X7Y165D01*
X16Y165D02*
X23Y165D01*
X91Y165D02*
X141Y165D01*
X591Y165D02*
X641Y165D01*
X708Y165D02*
X715Y165D01*
X2013Y165D02*
X2020Y165D01*
X0Y164D02*
X7Y164D01*
X16Y164D02*
X23Y164D01*
X94Y164D02*
X138Y164D01*
X594Y164D02*
X638Y164D01*
X708Y164D02*
X715Y164D01*
X2013Y164D02*
X2020Y164D01*
X0Y163D02*
X7Y163D01*
X16Y163D02*
X23Y163D01*
X97Y163D02*
X135Y163D01*
X596Y163D02*
X635Y163D01*
X708Y163D02*
X715Y163D01*
X2013Y163D02*
X2020Y163D01*
X0Y162D02*
X7Y162D01*
X16Y162D02*
X23Y162D01*
X100Y162D02*
X132Y162D01*
X600Y162D02*
X632Y162D01*
X708Y162D02*
X715Y162D01*
X2013Y162D02*
X2020Y162D01*
X0Y161D02*
X7Y161D01*
X16Y161D02*
X23Y161D01*
X104Y161D02*
X128Y161D01*
X604Y161D02*
X628Y161D01*
X708Y161D02*
X715Y161D01*
X2013Y161D02*
X2020Y161D01*
X0Y160D02*
X7Y160D01*
X16Y160D02*
X23Y160D01*
X112Y160D02*
X120Y160D01*
X612Y160D02*
X620Y160D01*
X708Y160D02*
X715Y160D01*
X2013Y160D02*
X2020Y160D01*
X0Y159D02*
X7Y159D01*
X16Y159D02*
X23Y159D01*
X708Y159D02*
X715Y159D01*
X2013Y159D02*
X2020Y159D01*
X0Y158D02*
X7Y158D01*
X16Y158D02*
X23Y158D01*
X708Y158D02*
X715Y158D01*
X2013Y158D02*
X2020Y158D01*
X0Y157D02*
X7Y157D01*
X16Y157D02*
X23Y157D01*
X708Y157D02*
X715Y157D01*
X2013Y157D02*
X2020Y157D01*
X0Y156D02*
X7Y156D01*
X16Y156D02*
X23Y156D01*
X708Y156D02*
X715Y156D01*
X2013Y156D02*
X2020Y156D01*
X0Y155D02*
X7Y155D01*
X16Y155D02*
X23Y155D01*
X708Y155D02*
X715Y155D01*
X2013Y155D02*
X2020Y155D01*
X0Y154D02*
X7Y154D01*
X16Y154D02*
X23Y154D01*
X708Y154D02*
X715Y154D01*
X2013Y154D02*
X2020Y154D01*
X0Y153D02*
X7Y153D01*
X16Y153D02*
X23Y153D01*
X708Y153D02*
X715Y153D01*
X2013Y153D02*
X2020Y153D01*
X0Y152D02*
X7Y152D01*
X16Y152D02*
X23Y152D01*
X708Y152D02*
X715Y152D01*
X2013Y152D02*
X2020Y152D01*
X0Y151D02*
X7Y151D01*
X16Y151D02*
X23Y151D01*
X708Y151D02*
X715Y151D01*
X2013Y151D02*
X2020Y151D01*
X0Y150D02*
X7Y150D01*
X16Y150D02*
X23Y150D01*
X708Y150D02*
X715Y150D01*
X2013Y150D02*
X2020Y150D01*
X0Y149D02*
X7Y149D01*
X16Y149D02*
X23Y149D01*
X708Y149D02*
X715Y149D01*
X2013Y149D02*
X2020Y149D01*
X0Y148D02*
X7Y148D01*
X16Y148D02*
X23Y148D01*
X708Y148D02*
X715Y148D01*
X2013Y148D02*
X2020Y148D01*
X0Y147D02*
X7Y147D01*
X16Y147D02*
X23Y147D01*
X708Y147D02*
X715Y147D01*
X2013Y147D02*
X2020Y147D01*
X0Y146D02*
X7Y146D01*
X16Y146D02*
X23Y146D01*
X708Y146D02*
X715Y146D01*
X2013Y146D02*
X2020Y146D01*
X0Y145D02*
X7Y145D01*
X16Y145D02*
X23Y145D01*
X708Y145D02*
X715Y145D01*
X2013Y145D02*
X2020Y145D01*
X0Y144D02*
X7Y144D01*
X16Y144D02*
X23Y144D01*
X708Y144D02*
X715Y144D01*
X2013Y144D02*
X2020Y144D01*
X0Y143D02*
X7Y143D01*
X16Y143D02*
X23Y143D01*
X708Y143D02*
X715Y143D01*
X2013Y143D02*
X2020Y143D01*
X0Y142D02*
X7Y142D01*
X16Y142D02*
X23Y142D01*
X708Y142D02*
X715Y142D01*
X2013Y142D02*
X2020Y142D01*
X0Y141D02*
X7Y141D01*
X16Y141D02*
X23Y141D01*
X708Y141D02*
X715Y141D01*
X2013Y141D02*
X2020Y141D01*
X0Y140D02*
X7Y140D01*
X16Y140D02*
X23Y140D01*
X708Y140D02*
X715Y140D01*
X2013Y140D02*
X2020Y140D01*
X0Y139D02*
X7Y139D01*
X16Y139D02*
X23Y139D01*
X708Y139D02*
X715Y139D01*
X2013Y139D02*
X2020Y139D01*
X0Y138D02*
X7Y138D01*
X16Y138D02*
X23Y138D01*
X708Y138D02*
X715Y138D01*
X2013Y138D02*
X2020Y138D01*
X0Y137D02*
X7Y137D01*
X16Y137D02*
X23Y137D01*
X708Y137D02*
X715Y137D01*
X2013Y137D02*
X2020Y137D01*
X0Y136D02*
X7Y136D01*
X16Y136D02*
X23Y136D01*
X708Y136D02*
X715Y136D01*
X2013Y136D02*
X2020Y136D01*
X0Y135D02*
X7Y135D01*
X16Y135D02*
X23Y135D01*
X708Y135D02*
X715Y135D01*
X2013Y135D02*
X2020Y135D01*
X0Y134D02*
X7Y134D01*
X16Y134D02*
X23Y134D01*
X708Y134D02*
X715Y134D01*
X2013Y134D02*
X2020Y134D01*
X0Y133D02*
X7Y133D01*
X16Y133D02*
X24Y133D01*
X708Y133D02*
X715Y133D01*
X2013Y133D02*
X2020Y133D01*
X0Y132D02*
X7Y132D01*
X16Y132D02*
X715Y132D01*
X2013Y132D02*
X2020Y132D01*
X0Y131D02*
X7Y131D01*
X16Y131D02*
X715Y131D01*
X2013Y131D02*
X2020Y131D01*
X0Y130D02*
X7Y130D01*
X16Y130D02*
X715Y130D01*
X2013Y130D02*
X2020Y130D01*
X0Y129D02*
X7Y129D01*
X16Y129D02*
X715Y129D01*
X2013Y129D02*
X2020Y129D01*
X0Y128D02*
X7Y128D01*
X16Y128D02*
X715Y128D01*
X2013Y128D02*
X2020Y128D01*
X0Y127D02*
X7Y127D01*
X16Y127D02*
X715Y127D01*
X2013Y127D02*
X2020Y127D01*
X0Y126D02*
X7Y126D01*
X16Y126D02*
X715Y126D01*
X2013Y126D02*
X2020Y126D01*
X0Y125D02*
X7Y125D01*
X17Y125D02*
X715Y125D01*
X2013Y125D02*
X2020Y125D01*
X0Y124D02*
X7Y124D01*
X2013Y124D02*
X2020Y124D01*
X0Y123D02*
X7Y123D01*
X2013Y123D02*
X2020Y123D01*
X0Y122D02*
X7Y122D01*
X2013Y122D02*
X2020Y122D01*
X0Y121D02*
X7Y121D01*
X2013Y121D02*
X2020Y121D01*
X0Y120D02*
X7Y120D01*
X2013Y120D02*
X2020Y120D01*
X0Y119D02*
X7Y119D01*
X2013Y119D02*
X2020Y119D01*
X0Y118D02*
X7Y118D01*
X2013Y118D02*
X2020Y118D01*
X0Y117D02*
X7Y117D01*
X2013Y117D02*
X2020Y117D01*
X0Y116D02*
X7Y116D01*
X2013Y116D02*
X2020Y116D01*
X0Y115D02*
X7Y115D01*
X2013Y115D02*
X2020Y115D01*
X0Y114D02*
X7Y114D01*
X2013Y114D02*
X2020Y114D01*
X0Y113D02*
X7Y113D01*
X2013Y113D02*
X2020Y113D01*
X0Y112D02*
X7Y112D01*
X2013Y112D02*
X2020Y112D01*
X0Y111D02*
X7Y111D01*
X2013Y111D02*
X2020Y111D01*
X0Y110D02*
X7Y110D01*
X2013Y110D02*
X2020Y110D01*
X0Y109D02*
X7Y109D01*
X2013Y109D02*
X2020Y109D01*
X0Y108D02*
X7Y108D01*
X2013Y108D02*
X2020Y108D01*
X0Y107D02*
X7Y107D01*
X2013Y107D02*
X2020Y107D01*
X0Y106D02*
X7Y106D01*
X2013Y106D02*
X2020Y106D01*
X0Y105D02*
X7Y105D01*
X2013Y105D02*
X2020Y105D01*
X0Y104D02*
X7Y104D01*
X2013Y104D02*
X2020Y104D01*
X0Y103D02*
X7Y103D01*
X2013Y103D02*
X2020Y103D01*
X0Y102D02*
X7Y102D01*
X2013Y102D02*
X2020Y102D01*
X0Y101D02*
X7Y101D01*
X2013Y101D02*
X2020Y101D01*
X0Y100D02*
X7Y100D01*
X2013Y100D02*
X2020Y100D01*
X0Y99D02*
X7Y99D01*
X2013Y99D02*
X2020Y99D01*
X0Y98D02*
X7Y98D01*
X2013Y98D02*
X2020Y98D01*
X0Y97D02*
X7Y97D01*
X2013Y97D02*
X2020Y97D01*
X0Y96D02*
X7Y96D01*
X2013Y96D02*
X2020Y96D01*
X0Y95D02*
X7Y95D01*
X2013Y95D02*
X2020Y95D01*
X0Y94D02*
X7Y94D01*
X2013Y94D02*
X2020Y94D01*
X0Y93D02*
X7Y93D01*
X2013Y93D02*
X2020Y93D01*
X0Y92D02*
X7Y92D01*
X2013Y92D02*
X2020Y92D01*
X0Y91D02*
X7Y91D01*
X2013Y91D02*
X2020Y91D01*
X0Y90D02*
X7Y90D01*
X2013Y90D02*
X2020Y90D01*
X0Y89D02*
X7Y89D01*
X2013Y89D02*
X2020Y89D01*
X0Y88D02*
X7Y88D01*
X2013Y88D02*
X2020Y88D01*
X0Y87D02*
X7Y87D01*
X2013Y87D02*
X2020Y87D01*
X0Y86D02*
X7Y86D01*
X2013Y86D02*
X2020Y86D01*
X0Y85D02*
X7Y85D01*
X2013Y85D02*
X2020Y85D01*
X0Y84D02*
X7Y84D01*
X2013Y84D02*
X2020Y84D01*
X0Y83D02*
X7Y83D01*
X2013Y83D02*
X2020Y83D01*
X0Y82D02*
X7Y82D01*
X2013Y82D02*
X2020Y82D01*
X0Y81D02*
X7Y81D01*
X2013Y81D02*
X2020Y81D01*
X0Y80D02*
X7Y80D01*
X2013Y80D02*
X2020Y80D01*
X0Y79D02*
X7Y79D01*
X2013Y79D02*
X2020Y79D01*
X0Y78D02*
X7Y78D01*
X2013Y78D02*
X2020Y78D01*
X0Y77D02*
X7Y77D01*
X2013Y77D02*
X2020Y77D01*
X0Y76D02*
X7Y76D01*
X2013Y76D02*
X2020Y76D01*
X0Y75D02*
X7Y75D01*
X2013Y75D02*
X2020Y75D01*
X0Y74D02*
X7Y74D01*
X2013Y74D02*
X2020Y74D01*
X0Y73D02*
X7Y73D01*
X2013Y73D02*
X2020Y73D01*
X0Y72D02*
X7Y72D01*
X2013Y72D02*
X2020Y72D01*
X0Y71D02*
X7Y71D01*
X2013Y71D02*
X2020Y71D01*
X0Y70D02*
X7Y70D01*
X2013Y70D02*
X2020Y70D01*
X0Y69D02*
X7Y69D01*
X2013Y69D02*
X2020Y69D01*
X0Y68D02*
X7Y68D01*
X2013Y68D02*
X2020Y68D01*
X0Y67D02*
X7Y67D01*
X2013Y67D02*
X2020Y67D01*
X0Y66D02*
X7Y66D01*
X2013Y66D02*
X2020Y66D01*
X0Y65D02*
X7Y65D01*
X2013Y65D02*
X2020Y65D01*
X0Y64D02*
X7Y64D01*
X2013Y64D02*
X2020Y64D01*
X0Y63D02*
X7Y63D01*
X2013Y63D02*
X2020Y63D01*
X0Y62D02*
X7Y62D01*
X2013Y62D02*
X2020Y62D01*
X0Y61D02*
X7Y61D01*
X2013Y61D02*
X2020Y61D01*
X0Y60D02*
X7Y60D01*
X2013Y60D02*
X2020Y60D01*
X0Y59D02*
X7Y59D01*
X2013Y59D02*
X2020Y59D01*
X0Y58D02*
X7Y58D01*
X2013Y58D02*
X2020Y58D01*
X0Y57D02*
X7Y57D01*
X2013Y57D02*
X2020Y57D01*
X0Y56D02*
X7Y56D01*
X2013Y56D02*
X2020Y56D01*
X0Y55D02*
X7Y55D01*
X2013Y55D02*
X2020Y55D01*
X0Y54D02*
X7Y54D01*
X2013Y54D02*
X2020Y54D01*
X0Y53D02*
X7Y53D01*
X2013Y53D02*
X2020Y53D01*
X0Y52D02*
X7Y52D01*
X2013Y52D02*
X2020Y52D01*
X0Y51D02*
X7Y51D01*
X2013Y51D02*
X2020Y51D01*
X0Y50D02*
X7Y50D01*
X2013Y50D02*
X2020Y50D01*
X0Y49D02*
X7Y49D01*
X2013Y49D02*
X2020Y49D01*
X0Y48D02*
X7Y48D01*
X2013Y48D02*
X2020Y48D01*
X0Y47D02*
X7Y47D01*
X2013Y47D02*
X2020Y47D01*
X0Y46D02*
X7Y46D01*
X2013Y46D02*
X2020Y46D01*
X0Y45D02*
X7Y45D01*
X2013Y45D02*
X2020Y45D01*
X0Y44D02*
X7Y44D01*
X2013Y44D02*
X2020Y44D01*
X0Y43D02*
X7Y43D01*
X2013Y43D02*
X2020Y43D01*
X0Y42D02*
X7Y42D01*
X2013Y42D02*
X2020Y42D01*
X0Y41D02*
X7Y41D01*
X2013Y41D02*
X2020Y41D01*
X0Y40D02*
X7Y40D01*
X2013Y40D02*
X2020Y40D01*
X0Y39D02*
X7Y39D01*
X2013Y39D02*
X2020Y39D01*
X0Y38D02*
X7Y38D01*
X2013Y38D02*
X2020Y38D01*
X0Y37D02*
X7Y37D01*
X2013Y37D02*
X2020Y37D01*
X0Y36D02*
X7Y36D01*
X2013Y36D02*
X2020Y36D01*
X0Y35D02*
X7Y35D01*
X2013Y35D02*
X2020Y35D01*
X0Y34D02*
X7Y34D01*
X2013Y34D02*
X2020Y34D01*
X0Y33D02*
X7Y33D01*
X2013Y33D02*
X2020Y33D01*
X0Y32D02*
X7Y32D01*
X2013Y32D02*
X2020Y32D01*
X0Y31D02*
X7Y31D01*
X2013Y31D02*
X2020Y31D01*
X0Y30D02*
X7Y30D01*
X2013Y30D02*
X2020Y30D01*
X0Y29D02*
X7Y29D01*
X2013Y29D02*
X2020Y29D01*
X0Y28D02*
X7Y28D01*
X2013Y28D02*
X2020Y28D01*
X0Y27D02*
X7Y27D01*
X2013Y27D02*
X2020Y27D01*
X0Y26D02*
X7Y26D01*
X2013Y26D02*
X2020Y26D01*
X0Y25D02*
X7Y25D01*
X2013Y25D02*
X2020Y25D01*
X0Y24D02*
X7Y24D01*
X2013Y24D02*
X2020Y24D01*
X0Y23D02*
X7Y23D01*
X2013Y23D02*
X2020Y23D01*
X0Y22D02*
X7Y22D01*
X2013Y22D02*
X2020Y22D01*
X0Y21D02*
X7Y21D01*
X2013Y21D02*
X2020Y21D01*
X0Y20D02*
X7Y20D01*
X2013Y20D02*
X2020Y20D01*
X0Y19D02*
X7Y19D01*
X2013Y19D02*
X2020Y19D01*
X0Y18D02*
X7Y18D01*
X2013Y18D02*
X2020Y18D01*
X0Y17D02*
X7Y17D01*
X2013Y17D02*
X2020Y17D01*
X0Y16D02*
X7Y16D01*
X2013Y16D02*
X2020Y16D01*
X0Y15D02*
X7Y15D01*
X2013Y15D02*
X2020Y15D01*
X0Y14D02*
X7Y14D01*
X2013Y14D02*
X2020Y14D01*
X0Y13D02*
X7Y13D01*
X2013Y13D02*
X2020Y13D01*
X0Y12D02*
X7Y12D01*
X2013Y12D02*
X2020Y12D01*
X0Y11D02*
X7Y11D01*
X2013Y11D02*
X2020Y11D01*
X0Y10D02*
X7Y10D01*
X2013Y10D02*
X2020Y10D01*
X0Y9D02*
X7Y9D01*
X2013Y9D02*
X2020Y9D01*
X0Y8D02*
X2020Y8D01*
X0Y7D02*
X2020Y7D01*
X0Y6D02*
X2020Y6D01*
X0Y5D02*
X2020Y5D01*
X0Y4D02*
X2020Y4D01*
X0Y3D02*
X2020Y3D01*
X0Y2D02*
X2020Y2D01*
X0Y1D02*
X2020Y1D01*
D02*
G04 End of Silk1*
M02*